<svg xmlns="http://www.w3.org/2000/svg" xmlns:xlink="http://www.w3.org/1999/xlink" width="1920" zoomAndPan="magnify" viewBox="0 0 1440 809.999993" height="1080" preserveAspectRatio="xMidYMid meet" version="1.0"><defs><filter x="0%" y="0%" width="100%" height="100%" id="5b59115f09"><feColorMatrix values="0 0 0 0 1 0 0 0 0 1 0 0 0 0 1 0 0 0 1 0" color-interpolation-filters="sRGB"/></filter><mask id="3df6b92902"><g filter="url(#5b59115f09)"><rect x="-144" width="1728" fill="#000000" y="-80.999999" height="971.999992" fill-opacity="0.11"/></g></mask><clipPath id="0edea5efcf"><path d="M 607 1 L 639.175781 1 L 639.175781 34 L 607 34 Z M 607 1 " clip-rule="nonzero"/></clipPath><clipPath id="305cb7a09f"><path d="M 0 0 L 12 0 L 12 36 L 0 36 Z M 0 0 " clip-rule="nonzero"/></clipPath><clipPath id="9709dbb9c3"><path d="M 0 232 L 21 232 L 21 280 L 0 280 Z M 0 232 " clip-rule="nonzero"/></clipPath><clipPath id="301413df8d"><path d="M 0 31 L 199 31 L 199 197 L 0 197 Z M 0 31 " clip-rule="nonzero"/></clipPath><clipPath id="84d4709abf"><path d="M 0 193 L 98 193 L 98 252 L 0 252 Z M 0 193 " clip-rule="nonzero"/></clipPath><clipPath id="7ab07733a1"><path d="M 0 263 L 99 263 L 99 475 L 0 475 Z M 0 263 " clip-rule="nonzero"/></clipPath><clipPath id="ddccd21316"><path d="M 0 550 L 97 550 L 97 621 L 0 621 Z M 0 550 " clip-rule="nonzero"/></clipPath><clipPath id="b5891c3fe8"><path d="M 0 685 L 97 685 L 97 755 L 0 755 Z M 0 685 " clip-rule="nonzero"/></clipPath><clipPath id="8f79a27bc4"><rect x="0" width="640" y="0" height="810"/></clipPath><mask id="bcbad21766"><g filter="url(#5b59115f09)"><rect x="-144" width="1728" fill="#000000" y="-80.999999" height="971.999992" fill-opacity="0.11"/></g></mask><clipPath id="aa1cb7c4eb"><path d="M 0.460938 218 L 66 218 L 66 285 L 0.460938 285 Z M 0.460938 218 " clip-rule="nonzero"/></clipPath><clipPath id="c53ebb2cc3"><path d="M 537 237 L 717 237 L 717 313 L 537 313 Z M 537 237 " clip-rule="nonzero"/></clipPath><clipPath id="90042cfc65"><path d="M 734 304 L 747 304 L 747 313 L 734 313 Z M 734 304 " clip-rule="nonzero"/></clipPath><clipPath id="c0af67938f"><path d="M 581 282 L 702 282 L 702 313 L 581 313 Z M 581 282 " clip-rule="nonzero"/></clipPath><clipPath id="78cdd6956f"><path d="M 597 298 L 686 298 L 686 313 L 597 313 Z M 597 298 " clip-rule="nonzero"/></clipPath><clipPath id="81ee894fc5"><path d="M 745 77 L 1196 77 L 1196 266 L 745 266 Z M 745 77 " clip-rule="nonzero"/></clipPath><clipPath id="88fc63863e"><path d="M 876 269 L 1196 269 L 1196 313 L 876 313 Z M 876 269 " clip-rule="nonzero"/></clipPath><clipPath id="471b2d6728"><path d="M 223 270 L 501 270 L 501 313 L 223 313 Z M 223 270 " clip-rule="nonzero"/></clipPath><clipPath id="37680a05c2"><path d="M 820 205 L 1196 205 L 1196 266 L 820 266 Z M 820 205 " clip-rule="nonzero"/></clipPath><clipPath id="e2df024e6d"><rect x="0" width="1196" y="0" height="313"/></clipPath><mask id="fff9f5745f"><g filter="url(#5b59115f09)"><rect x="-144" width="1728" fill="#000000" y="-80.999999" height="971.999992" fill-opacity="0.11"/></g></mask><clipPath id="8c7dd47d17"><path d="M 0.289062 250 L 66 250 L 66 317 L 0.289062 317 Z M 0.289062 250 " clip-rule="nonzero"/></clipPath><clipPath id="5ee22825be"><path d="M 745 269 L 977 269 L 977 458 L 745 458 Z M 745 269 " clip-rule="nonzero"/></clipPath><clipPath id="aa9d4c41db"><path d="M 744 0 L 977 0 L 977 128 L 744 128 Z M 744 0 " clip-rule="nonzero"/></clipPath><clipPath id="22e9d086e1"><path d="M 876 42 L 977 42 L 977 266 L 876 266 Z M 876 42 " clip-rule="nonzero"/></clipPath><clipPath id="bd4b6fbdfe"><path d="M 557 0 L 770 0 L 770 63 L 557 63 Z M 557 0 " clip-rule="nonzero"/></clipPath><clipPath id="5c01574a50"><path d="M 70 0 L 263 0 L 263 71 L 70 71 Z M 70 0 " clip-rule="nonzero"/></clipPath><clipPath id="48beb05868"><path d="M 918 319 L 977 319 L 977 407 L 918 407 Z M 918 319 " clip-rule="nonzero"/></clipPath><clipPath id="8d4c983c48"><path d="M 393 441 L 500 441 L 500 533.742188 L 393 533.742188 Z M 393 441 " clip-rule="nonzero"/></clipPath><clipPath id="05c8cb93ba"><path d="M 245 0 L 280 0 L 280 38 L 245 38 Z M 245 0 " clip-rule="nonzero"/></clipPath><clipPath id="d86ff5fa44"><path d="M 276 0 L 561 0 L 561 112 L 276 112 Z M 276 0 " clip-rule="nonzero"/></clipPath><clipPath id="32a507c2ea"><path d="M 819 269 L 977 269 L 977 330 L 819 330 Z M 819 269 " clip-rule="nonzero"/></clipPath><clipPath id="99dbe50c8e"><path d="M 816 0 L 977 0 L 977 129 L 816 129 Z M 816 0 " clip-rule="nonzero"/></clipPath><clipPath id="946304ec59"><rect x="0" width="977" y="0" height="535"/></clipPath></defs><rect x="-144" width="1728" fill="#ffffff" y="-80.999999" height="971.999992" fill-opacity="1"/><rect x="-144" width="1728" fill="#0b1924" y="-80.999999" height="971.999992" fill-opacity="1"/><g mask="url(#3df6b92902)"><g transform="matrix(1, 0, 0, 1, 0, 0.000000000000039746)"><g clip-path="url(#8f79a27bc4)"><g clip-path="url(#0edea5efcf)"><path fill="#488cca" d="M 607.628906 17.71875 C 607.628906 18.757812 607.730469 19.78125 607.929688 20.796875 C 608.132812 21.816406 608.433594 22.800781 608.828125 23.757812 C 609.226562 24.714844 609.710938 25.625 610.289062 26.488281 C 610.863281 27.347656 611.519531 28.144531 612.25 28.878906 C 612.984375 29.609375 613.78125 30.265625 614.640625 30.839844 C 615.503906 31.414062 616.414062 31.902344 617.371094 32.296875 C 618.328125 32.695312 619.316406 32.992188 620.332031 33.195312 C 621.347656 33.398438 622.375 33.5 623.410156 33.5 C 624.445312 33.5 625.472656 33.398438 626.488281 33.195312 C 627.503906 32.992188 628.492188 32.695312 629.449219 32.296875 C 630.40625 31.902344 631.316406 31.414062 632.179688 30.839844 C 633.039062 30.265625 633.835938 29.609375 634.570312 28.878906 C 635.300781 28.144531 635.957031 27.347656 636.53125 26.488281 C 637.109375 25.625 637.59375 24.714844 637.992188 23.757812 C 638.386719 22.800781 638.6875 21.816406 638.886719 20.796875 C 639.089844 19.78125 639.191406 18.757812 639.191406 17.71875 C 639.191406 16.683594 639.089844 15.660156 638.886719 14.640625 C 638.6875 13.625 638.386719 12.640625 637.992188 11.683594 C 637.59375 10.726562 637.109375 9.816406 636.53125 8.953125 C 635.957031 8.09375 635.300781 7.296875 634.570312 6.5625 C 633.835938 5.832031 633.039062 5.175781 632.179688 4.601562 C 631.316406 4.027344 630.40625 3.539062 629.449219 3.144531 C 628.492188 2.746094 627.503906 2.449219 626.488281 2.246094 C 625.472656 2.042969 624.445312 1.941406 623.410156 1.941406 C 622.375 1.941406 621.347656 2.042969 620.332031 2.246094 C 619.316406 2.449219 618.328125 2.746094 617.371094 3.144531 C 616.414062 3.539062 615.503906 4.027344 614.640625 4.601562 C 613.78125 5.175781 612.984375 5.832031 612.25 6.5625 C 611.519531 7.296875 610.863281 8.09375 610.289062 8.953125 C 609.710938 9.816406 609.226562 10.726562 608.828125 11.683594 C 608.433594 12.640625 608.132812 13.625 607.929688 14.640625 C 607.730469 15.660156 607.628906 16.683594 607.628906 17.71875 Z M 607.628906 17.71875 " fill-opacity="1" fill-rule="nonzero"/></g><path fill="#488cca" d="M 391.765625 131.050781 C 391.765625 132.085938 391.867188 133.109375 392.070312 134.125 C 392.273438 135.144531 392.570312 136.128906 392.96875 137.085938 C 393.363281 138.042969 393.851562 138.953125 394.425781 139.816406 C 395 140.675781 395.65625 141.472656 396.386719 142.207031 C 397.121094 142.9375 397.917969 143.59375 398.78125 144.167969 C 399.640625 144.742188 400.550781 145.230469 401.507812 145.625 C 402.464844 146.023438 403.453125 146.320312 404.46875 146.523438 C 405.484375 146.726562 406.511719 146.828125 407.546875 146.828125 C 408.585938 146.828125 409.609375 146.726562 410.628906 146.523438 C 411.644531 146.320312 412.628906 146.023438 413.585938 145.625 C 414.546875 145.230469 415.453125 144.742188 416.316406 144.167969 C 417.175781 143.59375 417.976562 142.9375 418.707031 142.207031 C 419.441406 141.472656 420.09375 140.675781 420.671875 139.816406 C 421.246094 138.953125 421.730469 138.042969 422.128906 137.085938 C 422.523438 136.128906 422.824219 135.144531 423.027344 134.125 C 423.230469 133.109375 423.328125 132.085938 423.328125 131.050781 C 423.328125 130.011719 423.230469 128.988281 423.027344 127.972656 C 422.824219 126.953125 422.523438 125.96875 422.128906 125.011719 C 421.730469 124.054688 421.246094 123.144531 420.671875 122.28125 C 420.09375 121.421875 419.441406 120.625 418.707031 119.890625 C 417.976562 119.160156 417.175781 118.503906 416.316406 117.929688 C 415.453125 117.355469 414.546875 116.867188 413.585938 116.472656 C 412.628906 116.074219 411.644531 115.777344 410.628906 115.574219 C 409.609375 115.371094 408.585938 115.269531 407.546875 115.269531 C 406.511719 115.269531 405.484375 115.371094 404.46875 115.574219 C 403.453125 115.777344 402.464844 116.074219 401.507812 116.472656 C 400.550781 116.867188 399.640625 117.355469 398.78125 117.929688 C 397.917969 118.503906 397.121094 119.160156 396.386719 119.890625 C 395.65625 120.625 395 121.421875 394.425781 122.28125 C 393.851562 123.144531 393.363281 124.054688 392.96875 125.011719 C 392.570312 125.96875 392.273438 126.953125 392.070312 127.972656 C 391.867188 128.988281 391.765625 130.011719 391.765625 131.050781 Z M 391.765625 131.050781 " fill-opacity="1" fill-rule="nonzero"/><path fill="#488cca" d="M 401.171875 35.4375 C 410.945312 35.4375 418.894531 27.492188 418.894531 17.71875 C 418.894531 7.949219 410.945312 0.00390625 401.171875 0.00390625 C 391.398438 0.00390625 383.449219 7.949219 383.449219 17.71875 C 383.445312 27.488281 391.398438 35.4375 401.171875 35.4375 Z M 401.171875 3.882812 C 408.800781 3.882812 415.011719 10.089844 415.011719 17.71875 C 415.011719 25.347656 408.800781 31.558594 401.171875 31.558594 C 393.539062 31.558594 387.328125 25.347656 387.328125 17.71875 C 387.324219 10.085938 393.535156 3.882812 401.171875 3.882812 Z M 401.171875 3.882812 " fill-opacity="1" fill-rule="nonzero"/><path fill="#488cca" d="M 152.398438 69.347656 C 152.398438 70.382812 152.5 71.40625 152.703125 72.425781 C 152.902344 73.441406 153.203125 74.425781 153.601562 75.382812 C 153.996094 76.339844 154.484375 77.25 155.058594 78.113281 C 155.632812 78.972656 156.289062 79.769531 157.019531 80.503906 C 157.753906 81.234375 158.550781 81.890625 159.414062 82.464844 C 160.273438 83.039062 161.183594 83.527344 162.140625 83.921875 C 163.097656 84.320312 164.085938 84.617188 165.101562 84.820312 C 166.117188 85.023438 167.144531 85.125 168.179688 85.125 C 169.214844 85.125 170.242188 85.023438 171.257812 84.820312 C 172.277344 84.617188 173.261719 84.320312 174.21875 83.921875 C 175.175781 83.527344 176.085938 83.039062 176.949219 82.464844 C 177.808594 81.890625 178.605469 81.234375 179.339844 80.503906 C 180.074219 79.769531 180.726562 78.972656 181.300781 78.113281 C 181.878906 77.25 182.363281 76.339844 182.761719 75.382812 C 183.15625 74.425781 183.457031 73.441406 183.660156 72.425781 C 183.859375 71.40625 183.960938 70.382812 183.960938 69.347656 C 183.960938 68.308594 183.859375 67.285156 183.660156 66.269531 C 183.457031 65.25 183.15625 64.265625 182.761719 63.308594 C 182.363281 62.351562 181.878906 61.441406 181.300781 60.582031 C 180.726562 59.71875 180.074219 58.921875 179.339844 58.1875 C 178.605469 57.457031 177.808594 56.804688 176.949219 56.226562 C 176.085938 55.652344 175.175781 55.164062 174.21875 54.769531 C 173.261719 54.371094 172.277344 54.074219 171.257812 53.871094 C 170.242188 53.667969 169.214844 53.566406 168.179688 53.566406 C 167.144531 53.566406 166.117188 53.667969 165.101562 53.871094 C 164.085938 54.074219 163.097656 54.371094 162.140625 54.769531 C 161.183594 55.164062 160.273438 55.652344 159.414062 56.226562 C 158.550781 56.804688 157.753906 57.457031 157.019531 58.1875 C 156.289062 58.921875 155.632812 59.71875 155.058594 60.582031 C 154.484375 61.441406 153.996094 62.351562 153.601562 63.308594 C 153.203125 64.265625 152.902344 65.25 152.703125 66.269531 C 152.5 67.285156 152.398438 68.308594 152.398438 69.347656 Z M 152.398438 69.347656 " fill-opacity="1" fill-rule="nonzero"/><path fill="#488cca" d="M 242.371094 747.769531 C 242.371094 748.808594 242.472656 749.832031 242.671875 750.847656 C 242.875 751.863281 243.175781 752.851562 243.570312 753.808594 C 243.96875 754.765625 244.453125 755.675781 245.03125 756.535156 C 245.605469 757.398438 246.257812 758.195312 246.992188 758.925781 C 247.726562 759.660156 248.523438 760.3125 249.382812 760.890625 C 250.246094 761.464844 251.15625 761.949219 252.113281 762.347656 C 253.070312 762.742188 254.058594 763.042969 255.074219 763.246094 C 256.089844 763.449219 257.117188 763.546875 258.152344 763.546875 C 259.1875 763.546875 260.214844 763.449219 261.230469 763.246094 C 262.246094 763.042969 263.234375 762.742188 264.191406 762.347656 C 265.148438 761.949219 266.058594 761.464844 266.921875 760.890625 C 267.78125 760.3125 268.578125 759.660156 269.3125 758.925781 C 270.042969 758.195312 270.699219 757.398438 271.273438 756.535156 C 271.851562 755.675781 272.335938 754.765625 272.734375 753.808594 C 273.128906 752.851562 273.429688 751.863281 273.628906 750.847656 C 273.832031 749.832031 273.933594 748.808594 273.933594 747.769531 C 273.933594 746.734375 273.832031 745.707031 273.628906 744.691406 C 273.429688 743.675781 273.128906 742.691406 272.734375 741.734375 C 272.335938 740.777344 271.851562 739.867188 271.273438 739.003906 C 270.699219 738.144531 270.042969 737.347656 269.3125 736.613281 C 268.578125 735.882812 267.78125 735.226562 266.917969 734.652344 C 266.058594 734.078125 265.148438 733.589844 264.191406 733.195312 C 263.234375 732.796875 262.246094 732.5 261.230469 732.296875 C 260.214844 732.09375 259.1875 731.992188 258.152344 731.992188 C 257.117188 731.992188 256.089844 732.09375 255.074219 732.296875 C 254.058594 732.5 253.070312 732.796875 252.113281 733.195312 C 251.15625 733.589844 250.246094 734.078125 249.382812 734.652344 C 248.523438 735.226562 247.726562 735.882812 246.992188 736.613281 C 246.257812 737.347656 245.605469 738.144531 245.03125 739.003906 C 244.453125 739.867188 243.96875 740.777344 243.570312 741.734375 C 243.175781 742.691406 242.875 743.675781 242.671875 744.691406 C 242.472656 745.707031 242.371094 746.734375 242.371094 747.769531 Z M 242.371094 747.769531 " fill-opacity="1" fill-rule="nonzero"/><path fill="#488cca" d="M 161.65625 442.585938 C 171.429688 442.585938 179.378906 434.640625 179.378906 424.867188 C 179.378906 415.097656 171.429688 407.148438 161.65625 407.148438 C 151.882812 407.148438 143.933594 415.097656 143.933594 424.867188 C 143.933594 434.640625 151.882812 442.585938 161.65625 442.585938 Z M 161.65625 411.03125 C 169.285156 411.03125 175.496094 417.238281 175.496094 424.867188 C 175.496094 432.496094 169.285156 438.707031 161.65625 438.707031 C 154.023438 438.707031 147.8125 432.496094 147.8125 424.867188 C 147.8125 417.238281 154.019531 411.03125 161.65625 411.03125 Z M 161.65625 411.03125 " fill-opacity="1" fill-rule="nonzero"/><g clip-path="url(#305cb7a09f)"><path fill="#488cca" d="M -5.84375 35.4375 C 3.929688 35.4375 11.878906 27.492188 11.878906 17.71875 C 11.878906 7.949219 3.929688 0.00390625 -5.84375 0.00390625 C -15.617188 0.00390625 -23.566406 7.949219 -23.566406 17.71875 C -23.566406 27.488281 -15.617188 35.4375 -5.84375 35.4375 Z M -5.84375 3.882812 C 1.789062 3.882812 7.996094 10.089844 7.996094 17.71875 C 7.996094 25.347656 1.789062 31.558594 -5.84375 31.558594 C -13.472656 31.558594 -19.683594 25.347656 -19.683594 17.71875 C -19.683594 10.085938 -13.472656 3.882812 -5.84375 3.882812 Z M -5.84375 3.882812 " fill-opacity="1" fill-rule="nonzero"/></g><g clip-path="url(#9709dbb9c3)"><path fill="#488cca" d="M -26.285156 255.8125 C -26.289062 256.578125 -26.25 257.34375 -26.175781 258.105469 C -26.097656 258.867188 -25.988281 259.625 -25.835938 260.375 C -25.6875 261.125 -25.503906 261.867188 -25.28125 262.601562 C -25.058594 263.335938 -24.800781 264.054688 -24.507812 264.761719 C -24.214844 265.46875 -23.886719 266.160156 -23.523438 266.835938 C -23.164062 267.511719 -22.769531 268.167969 -22.34375 268.804688 C -21.917969 269.441406 -21.464844 270.058594 -20.976562 270.648438 C -20.492188 271.242188 -19.976562 271.808594 -19.433594 272.351562 C -18.894531 272.890625 -18.328125 273.40625 -17.734375 273.890625 C -17.140625 274.378906 -16.527344 274.832031 -15.890625 275.257812 C -15.253906 275.683594 -14.597656 276.078125 -13.921875 276.4375 C -13.246094 276.800781 -12.554688 277.125 -11.847656 277.417969 C -11.136719 277.714844 -10.417969 277.96875 -9.683594 278.191406 C -8.949219 278.414062 -8.207031 278.601562 -7.457031 278.75 C -6.707031 278.898438 -5.949219 279.011719 -5.1875 279.085938 C -4.425781 279.164062 -3.660156 279.199219 -2.894531 279.199219 C -2.128906 279.199219 -1.363281 279.164062 -0.601562 279.085938 C 0.160156 279.011719 0.917969 278.898438 1.671875 278.75 C 2.421875 278.601562 3.164062 278.414062 3.898438 278.191406 C 4.628906 277.96875 5.351562 277.714844 6.058594 277.417969 C 6.765625 277.125 7.457031 276.800781 8.132812 276.4375 C 8.808594 276.078125 9.464844 275.683594 10.101562 275.257812 C 10.738281 274.832031 11.355469 274.378906 11.945312 273.890625 C 12.539062 273.40625 13.105469 272.890625 13.648438 272.351562 C 14.191406 271.808594 14.703125 271.242188 15.191406 270.648438 C 15.675781 270.058594 16.132812 269.441406 16.558594 268.804688 C 16.984375 268.167969 17.375 267.511719 17.738281 266.835938 C 18.097656 266.160156 18.425781 265.46875 18.71875 264.761719 C 19.011719 264.054688 19.269531 263.335938 19.492188 262.601562 C 19.714844 261.867188 19.902344 261.125 20.050781 260.375 C 20.199219 259.625 20.3125 258.867188 20.386719 258.105469 C 20.460938 257.34375 20.5 256.578125 20.5 255.8125 C 20.5 255.046875 20.460938 254.28125 20.386719 253.519531 C 20.3125 252.757812 20.199219 252 20.050781 251.25 C 19.902344 250.5 19.714844 249.757812 19.492188 249.023438 C 19.269531 248.289062 19.011719 247.570312 18.71875 246.863281 C 18.425781 246.15625 18.097656 245.464844 17.738281 244.789062 C 17.375 244.113281 16.984375 243.457031 16.558594 242.820312 C 16.132812 242.183594 15.675781 241.566406 15.191406 240.976562 C 14.703125 240.382812 14.191406 239.816406 13.648438 239.273438 C 13.105469 238.734375 12.539062 238.21875 11.945312 237.734375 C 11.355469 237.246094 10.738281 236.792969 10.101562 236.367188 C 9.464844 235.941406 8.808594 235.546875 8.132812 235.1875 C 7.457031 234.824219 6.765625 234.5 6.058594 234.207031 C 5.351562 233.914062 4.628906 233.65625 3.898438 233.433594 C 3.164062 233.210938 2.421875 233.023438 1.671875 232.875 C 0.917969 232.726562 0.160156 232.613281 -0.601562 232.539062 C -1.363281 232.460938 -2.128906 232.425781 -2.894531 232.425781 C -3.660156 232.425781 -4.425781 232.460938 -5.1875 232.539062 C -5.949219 232.613281 -6.707031 232.726562 -7.457031 232.875 C -8.207031 233.023438 -8.949219 233.210938 -9.683594 233.433594 C -10.417969 233.65625 -11.136719 233.914062 -11.847656 234.207031 C -12.554688 234.5 -13.246094 234.824219 -13.921875 235.1875 C -14.597656 235.546875 -15.253906 235.941406 -15.890625 236.367188 C -16.527344 236.792969 -17.140625 237.246094 -17.734375 237.734375 C -18.328125 238.21875 -18.894531 238.734375 -19.433594 239.273438 C -19.976562 239.816406 -20.492188 240.382812 -20.976562 240.976562 C -21.464844 241.566406 -21.917969 242.183594 -22.34375 242.820312 C -22.769531 243.457031 -23.164062 244.113281 -23.523438 244.789062 C -23.886719 245.464844 -24.214844 246.15625 -24.507812 246.863281 C -24.800781 247.570312 -25.058594 248.289062 -25.28125 249.023438 C -25.503906 249.757812 -25.6875 250.5 -25.835938 251.25 C -25.988281 252 -26.097656 252.757812 -26.175781 253.519531 C -26.25 254.28125 -26.289062 255.046875 -26.285156 255.8125 Z M -26.285156 255.8125 " fill-opacity="1" fill-rule="nonzero"/></g><path fill="#488cca" d="M 512.394531 196.421875 L 587.898438 196.421875 L 625.648438 131.046875 L 587.898438 65.675781 L 512.394531 65.675781 L 474.640625 131.046875 Z M 585.660156 192.542969 L 514.636719 192.542969 L 479.125 131.046875 L 514.636719 69.554688 L 585.660156 69.554688 L 621.171875 131.046875 Z M 585.660156 192.542969 " fill-opacity="1" fill-rule="nonzero"/><path fill="#488cca" d="M 624.96875 18.863281 L 621.839844 16.570312 L 585.210938 66.464844 L 588.339844 68.761719 Z M 624.96875 18.863281 " fill-opacity="1" fill-rule="nonzero"/><path fill="#488cca" d="M 406.433594 267.289062 L 478.0625 267.289062 L 478.605469 266.234375 L 515.238281 195.371094 L 511.792969 193.589844 L 475.703125 263.40625 L 408.660156 263.40625 L 368.359375 194.535156 L 409.175781 132.109375 L 405.925781 129.984375 L 363.796875 194.425781 Z M 406.433594 267.289062 " fill-opacity="1" fill-rule="nonzero"/><path fill="#488cca" d="M 297.929688 196.421875 L 366.078125 196.421875 L 366.078125 192.542969 L 300.25 192.542969 L 267.242188 131.007812 L 297.113281 69.558594 L 367.089844 69.558594 L 393.679688 31.742188 L 390.503906 29.507812 L 365.074219 65.679688 L 294.6875 65.679688 L 262.882812 131.089844 Z M 297.929688 196.421875 " fill-opacity="1" fill-rule="nonzero"/><path fill="#488cca" d="M 195.777344 132.988281 L 265.066406 132.988281 L 265.066406 129.109375 L 198.242188 129.109375 L 168.996094 66.792969 L 165.480469 68.441406 Z M 195.777344 132.988281 " fill-opacity="1" fill-rule="nonzero"/><g clip-path="url(#301413df8d)"><path fill="#488cca" d="M 94.761719 196.421875 L 168.46875 196.421875 L 198.769531 131.871094 L 195.253906 130.226562 L 166.003906 192.542969 L 97.226562 192.542969 L 67.453125 129.109375 L 5.675781 129.109375 L -29.386719 67.585938 L -10.90625 32.886719 L -14.332031 31.0625 L -33.820312 67.648438 L 3.421875 132.988281 L 64.988281 132.988281 Z M 94.761719 196.421875 " fill-opacity="1" fill-rule="nonzero"/></g><g clip-path="url(#84d4709abf)"><path fill="#488cca" d="M 66.292969 251.511719 L 97.691406 195.429688 L 94.300781 193.53125 L 64.023438 247.625 L -2.890625 247.441406 L -2.902344 251.324219 Z M 66.292969 251.511719 " fill-opacity="1" fill-rule="nonzero"/></g><g clip-path="url(#7ab07733a1)"><path fill="#488cca" d="M -4.558594 474.914062 L -1.230469 472.921875 L -29.382812 425.863281 L -1.71875 372.789062 L 66.265625 372.789062 L 98.261719 318.539062 L 64.113281 263.40625 L -2.894531 263.40625 L -2.894531 267.289062 L 61.949219 267.289062 L 93.726562 318.585938 L 64.050781 368.90625 L -4.074219 368.90625 L -33.828125 425.996094 Z M -4.558594 474.914062 " fill-opacity="1" fill-rule="nonzero"/></g><path fill="#488cca" d="M 145.875 422.925781 L 95.109375 422.925781 L 95.109375 426.808594 L 145.875 426.808594 Z M 145.875 422.925781 " fill-opacity="1" fill-rule="nonzero"/><path fill="#488cca" d="M 406.535156 387.742188 L 476.882812 387.742188 L 476.882812 383.863281 L 408.5625 383.863281 L 368.433594 326.207031 L 409.152344 266.4375 L 405.945312 264.253906 L 363.722656 326.230469 Z M 406.535156 387.742188 " fill-opacity="1" fill-rule="nonzero"/><path fill="#488cca" d="M 93.777344 553.578125 L 165.167969 553.578125 L 204.066406 503.890625 L 269.816406 503.890625 L 307.019531 449.886719 L 367.117188 449.886719 L 409.164062 386.878906 L 405.933594 384.726562 L 365.042969 446.003906 L 304.980469 446.003906 L 267.777344 500.007812 L 202.179688 500.007812 L 163.277344 549.699219 L 96.441406 549.699219 L 67.316406 474.125 L 98.257812 424.917969 L 66.84375 369.886719 L 63.472656 371.808594 L 93.730469 424.820312 L 62.996094 473.707031 Z M 93.777344 553.578125 " fill-opacity="1" fill-rule="nonzero"/><g clip-path="url(#ddccd21316)"><path fill="#488cca" d="M -2.894531 620.550781 L 66.417969 620.550781 L 96.878906 552.429688 L 93.335938 550.847656 L 63.898438 616.671875 L -2.894531 616.671875 Z M -2.894531 620.550781 " fill-opacity="1" fill-rule="nonzero"/></g><path fill="#488cca" d="M 201.246094 749.710938 L 258.152344 749.710938 L 258.152344 745.832031 L 203.40625 745.832031 L 165.304688 684.441406 L 96.375 684.441406 L 66.933594 617.828125 L 63.382812 619.394531 L 93.84375 688.324219 L 163.144531 688.324219 Z M 201.246094 749.710938 " fill-opacity="1" fill-rule="nonzero"/><path fill="#488cca" d="M 204.34375 747.796875 L 200.460938 747.742188 L 199.582031 809.925781 L 203.464844 809.980469 Z M 204.34375 747.796875 " fill-opacity="1" fill-rule="nonzero"/><g clip-path="url(#b5891c3fe8)"><path fill="#488cca" d="M -4.167969 754.226562 L 66.40625 754.226562 L 96.875 687.179688 L 93.34375 685.574219 L 63.90625 750.347656 L -1.625 750.347656 L -23.523438 700.078125 L -27.078125 701.628906 Z M -4.167969 754.226562 " fill-opacity="1" fill-rule="nonzero"/></g></g></g></g><g mask="url(#bcbad21766)"><g transform="matrix(1, 0, 0, 1, 244, 497)"><g clip-path="url(#e2df024e6d)"><path fill="#488cca" d="M 515.835938 288.636719 C 506.066406 288.636719 498.121094 280.691406 498.121094 270.925781 C 498.121094 261.160156 506.066406 253.214844 515.835938 253.214844 C 525.605469 253.214844 533.554688 261.160156 533.554688 270.925781 C 533.554688 280.691406 525.605469 288.636719 515.835938 288.636719 Z M 515.835938 258.1875 C 508.808594 258.1875 503.09375 263.90625 503.09375 270.925781 C 503.09375 277.945312 508.8125 283.664062 515.835938 283.664062 C 522.859375 283.664062 528.578125 277.945312 528.578125 270.925781 C 528.578125 263.90625 522.863281 258.1875 515.835938 258.1875 Z M 515.835938 258.1875 " fill-opacity="1" fill-rule="nonzero"/><g clip-path="url(#aa1cb7c4eb)"><path fill="#488cca" d="M 65.800781 251.410156 C 65.800781 252.480469 65.75 253.546875 65.644531 254.613281 C 65.539062 255.675781 65.382812 256.734375 65.175781 257.785156 C 64.964844 258.832031 64.707031 259.871094 64.394531 260.894531 C 64.085938 261.917969 63.722656 262.921875 63.316406 263.914062 C 62.90625 264.902344 62.449219 265.867188 61.945312 266.8125 C 61.4375 267.753906 60.890625 268.671875 60.292969 269.5625 C 59.699219 270.449219 59.0625 271.308594 58.382812 272.136719 C 57.703125 272.964844 56.988281 273.753906 56.230469 274.511719 C 55.472656 275.269531 54.679688 275.988281 53.851562 276.664062 C 53.027344 277.34375 52.167969 277.980469 51.277344 278.574219 C 50.386719 279.171875 49.46875 279.71875 48.527344 280.222656 C 47.582031 280.726562 46.617188 281.183594 45.625 281.59375 C 44.636719 282.003906 43.628906 282.363281 42.605469 282.675781 C 41.582031 282.984375 40.546875 283.246094 39.496094 283.453125 C 38.445312 283.664062 37.386719 283.820312 36.324219 283.925781 C 35.257812 284.03125 34.1875 284.082031 33.117188 284.082031 C 32.046875 284.082031 30.980469 284.03125 29.914062 283.925781 C 28.851562 283.820312 27.792969 283.664062 26.742188 283.453125 C 25.691406 283.246094 24.65625 282.984375 23.632812 282.675781 C 22.605469 282.363281 21.601562 282.003906 20.609375 281.59375 C 19.621094 281.183594 18.65625 280.726562 17.710938 280.222656 C 16.769531 279.71875 15.851562 279.171875 14.960938 278.574219 C 14.070312 277.980469 13.210938 277.34375 12.382812 276.664062 C 11.558594 275.988281 10.765625 275.269531 10.007812 274.511719 C 9.25 273.753906 8.53125 272.964844 7.855469 272.136719 C 7.175781 271.308594 6.539062 270.449219 5.941406 269.5625 C 5.347656 268.671875 4.796875 267.753906 4.292969 266.8125 C 3.789062 265.867188 3.332031 264.902344 2.921875 263.914062 C 2.511719 262.921875 2.152344 261.917969 1.84375 260.894531 C 1.53125 259.871094 1.273438 258.832031 1.0625 257.785156 C 0.855469 256.734375 0.695312 255.675781 0.59375 254.613281 C 0.488281 253.546875 0.433594 252.480469 0.433594 251.410156 C 0.433594 250.339844 0.488281 249.273438 0.59375 248.207031 C 0.695312 247.140625 0.855469 246.085938 1.0625 245.035156 C 1.273438 243.984375 1.53125 242.949219 1.84375 241.925781 C 2.152344 240.902344 2.511719 239.894531 2.921875 238.90625 C 3.332031 237.917969 3.789062 236.949219 4.292969 236.007812 C 4.796875 235.0625 5.347656 234.148438 5.941406 233.257812 C 6.539062 232.367188 7.175781 231.507812 7.855469 230.683594 C 8.53125 229.855469 9.25 229.0625 10.007812 228.304688 C 10.765625 227.550781 11.558594 226.832031 12.382812 226.152344 C 13.210938 225.472656 14.070312 224.835938 14.960938 224.242188 C 15.851562 223.648438 16.769531 223.097656 17.710938 222.59375 C 18.65625 222.089844 19.621094 221.632812 20.609375 221.222656 C 21.601562 220.8125 22.605469 220.453125 23.632812 220.144531 C 24.65625 219.832031 25.691406 219.574219 26.742188 219.363281 C 27.792969 219.15625 28.851562 219 29.914062 218.894531 C 30.980469 218.789062 32.046875 218.738281 33.117188 218.738281 C 34.1875 218.738281 35.257812 218.789062 36.324219 218.894531 C 37.386719 219 38.445312 219.15625 39.496094 219.363281 C 40.546875 219.574219 41.582031 219.832031 42.605469 220.144531 C 43.628906 220.453125 44.636719 220.8125 45.625 221.222656 C 46.617188 221.632812 47.582031 222.089844 48.527344 222.59375 C 49.46875 223.097656 50.386719 223.648438 51.277344 224.242188 C 52.167969 224.835938 53.027344 225.472656 53.851562 226.152344 C 54.679688 226.832031 55.472656 227.550781 56.230469 228.304688 C 56.988281 229.0625 57.703125 229.855469 58.382812 230.683594 C 59.0625 231.507812 59.699219 232.367188 60.292969 233.257812 C 60.890625 234.148438 61.4375 235.0625 61.945312 236.007812 C 62.449219 236.949219 62.90625 237.917969 63.316406 238.90625 C 63.722656 239.894531 64.085938 240.902344 64.394531 241.925781 C 64.707031 242.949219 64.964844 243.984375 65.175781 245.035156 C 65.382812 246.085938 65.539062 247.140625 65.644531 248.207031 C 65.75 249.273438 65.800781 250.339844 65.800781 251.410156 Z M 65.800781 251.410156 " fill-opacity="1" fill-rule="nonzero"/></g><path fill="#488cca" d="M 802.472656 310.472656 C 786.570312 310.472656 773.632812 297.542969 773.632812 281.644531 C 773.632812 265.75 786.570312 252.816406 802.472656 252.816406 C 818.371094 252.816406 831.308594 265.75 831.308594 281.644531 C 831.308594 297.542969 818.378906 310.472656 802.472656 310.472656 Z M 802.472656 257.785156 C 789.308594 257.785156 778.605469 268.488281 778.605469 281.640625 C 778.605469 294.792969 789.316406 305.496094 802.472656 305.496094 C 815.632812 305.496094 826.335938 294.792969 826.335938 281.640625 C 826.335938 268.488281 815.632812 257.785156 802.472656 257.785156 Z M 802.472656 257.785156 " fill-opacity="1" fill-rule="nonzero"/><path fill="#488cca" d="M 124.175781 114.191406 C 124.175781 114.855469 124.113281 115.511719 123.980469 116.164062 C 123.851562 116.816406 123.660156 117.453125 123.40625 118.066406 C 123.152344 118.679688 122.839844 119.265625 122.46875 119.816406 C 122.101562 120.371094 121.679688 120.882812 121.210938 121.351562 C 120.738281 121.820312 120.226562 122.242188 119.675781 122.613281 C 119.121094 122.980469 118.535156 123.292969 117.921875 123.546875 C 117.308594 123.800781 116.675781 123.992188 116.023438 124.125 C 115.371094 124.253906 114.710938 124.316406 114.046875 124.320312 C 113.378906 124.316406 112.722656 124.253906 112.070312 124.125 C 111.414062 123.992188 110.78125 123.800781 110.167969 123.546875 C 109.554688 123.292969 108.96875 122.980469 108.417969 122.613281 C 107.863281 122.242188 107.351562 121.820312 106.878906 121.351562 C 106.410156 120.882812 105.992188 120.371094 105.621094 119.816406 C 105.25 119.265625 104.9375 118.679688 104.683594 118.066406 C 104.429688 117.453125 104.238281 116.816406 104.109375 116.164062 C 103.976562 115.511719 103.914062 114.855469 103.914062 114.191406 C 103.914062 113.523438 103.976562 112.867188 104.109375 112.214844 C 104.238281 111.5625 104.429688 110.929688 104.683594 110.3125 C 104.9375 109.699219 105.25 109.117188 105.621094 108.5625 C 105.992188 108.011719 106.410156 107.5 106.878906 107.027344 C 107.351562 106.558594 107.863281 106.136719 108.417969 105.769531 C 108.96875 105.398438 109.554688 105.085938 110.167969 104.832031 C 110.78125 104.578125 111.414062 104.386719 112.070312 104.257812 C 112.722656 104.125 113.378906 104.0625 114.046875 104.0625 C 114.710938 104.0625 115.371094 104.125 116.023438 104.257812 C 116.675781 104.386719 117.308594 104.578125 117.921875 104.832031 C 118.535156 105.085938 119.121094 105.398438 119.675781 105.769531 C 120.226562 106.136719 120.738281 106.558594 121.210938 107.027344 C 121.679688 107.5 122.101562 108.011719 122.46875 108.5625 C 122.839844 109.117188 123.152344 109.699219 123.40625 110.3125 C 123.660156 110.929688 123.851562 111.5625 123.980469 112.214844 C 124.113281 112.867188 124.175781 113.523438 124.175781 114.191406 Z M 124.175781 114.191406 " fill-opacity="1" fill-rule="nonzero"/><path fill="#488cca" d="M 123.546875 18.875 C 123.546875 19.542969 123.480469 20.199219 123.351562 20.851562 C 123.222656 21.503906 123.027344 22.136719 122.773438 22.753906 C 122.519531 23.367188 122.207031 23.949219 121.835938 24.503906 C 121.46875 25.058594 121.046875 25.570312 120.578125 26.039062 C 120.105469 26.507812 119.59375 26.929688 119.042969 27.296875 C 118.488281 27.667969 117.90625 27.980469 117.289062 28.234375 C 116.675781 28.488281 116.042969 28.679688 115.390625 28.8125 C 114.738281 28.941406 114.078125 29.003906 113.414062 29.003906 C 112.75 29.003906 112.089844 28.941406 111.4375 28.8125 C 110.785156 28.679688 110.152344 28.488281 109.535156 28.234375 C 108.921875 27.980469 108.335938 27.667969 107.785156 27.296875 C 107.230469 26.929688 106.71875 26.507812 106.25 26.039062 C 105.777344 25.570312 105.359375 25.058594 104.988281 24.503906 C 104.621094 23.949219 104.308594 23.367188 104.050781 22.753906 C 103.796875 22.136719 103.605469 21.503906 103.476562 20.851562 C 103.347656 20.199219 103.28125 19.542969 103.28125 18.875 C 103.28125 18.210938 103.347656 17.554688 103.476562 16.902344 C 103.605469 16.25 103.796875 15.613281 104.050781 15 C 104.308594 14.386719 104.621094 13.800781 104.988281 13.25 C 105.359375 12.695312 105.777344 12.183594 106.25 11.714844 C 106.71875 11.246094 107.230469 10.824219 107.785156 10.457031 C 108.335938 10.085938 108.921875 9.773438 109.535156 9.519531 C 110.152344 9.265625 110.785156 9.074219 111.4375 8.941406 C 112.089844 8.8125 112.75 8.75 113.414062 8.75 C 114.078125 8.75 114.738281 8.8125 115.390625 8.941406 C 116.042969 9.074219 116.675781 9.265625 117.289062 9.519531 C 117.90625 9.773438 118.488281 10.085938 119.042969 10.457031 C 119.59375 10.824219 120.105469 11.246094 120.578125 11.714844 C 121.046875 12.183594 121.46875 12.695312 121.835938 13.25 C 122.207031 13.800781 122.519531 14.386719 122.773438 15 C 123.027344 15.613281 123.222656 16.25 123.351562 16.902344 C 123.480469 17.554688 123.546875 18.210938 123.546875 18.875 Z M 123.546875 18.875 " fill-opacity="1" fill-rule="nonzero"/><g clip-path="url(#c53ebb2cc3)"><path fill="#488cca" d="M 641.902344 447.171875 C 617.980469 447.171875 594.59375 438.902344 576.046875 423.886719 L 573.023438 421.433594 L 576.519531 419.71875 C 584.761719 415.675781 589.878906 407.46875 589.878906 398.292969 C 589.878906 385.136719 579.175781 374.4375 566.015625 374.4375 C 559.378906 374.4375 553.222656 377.09375 548.667969 381.914062 L 545.992188 384.753906 L 544.550781 381.128906 C 539.65625 368.839844 537.179688 355.835938 537.179688 342.476562 C 537.179688 327.769531 540.175781 313.539062 546.078125 300.183594 L 547.472656 297.035156 L 550.023438 299.339844 C 554.414062 303.316406 560.101562 305.503906 566.023438 305.503906 C 579.183594 305.503906 589.890625 294.796875 589.890625 281.640625 C 589.890625 273.933594 586.136719 266.667969 579.851562 262.195312 L 577.054688 260.207031 L 579.816406 258.167969 C 597.898438 244.832031 619.371094 237.78125 641.910156 237.78125 C 666.070312 237.78125 689.648438 246.199219 708.289062 261.488281 L 705.136719 265.332031 C 687.378906 250.769531 664.925781 242.746094 641.910156 242.746094 C 621.523438 242.746094 602.058594 248.796875 585.402344 260.285156 C 591.375 265.714844 594.863281 273.472656 594.863281 281.628906 C 594.863281 297.53125 581.925781 310.464844 566.023438 310.464844 C 560.015625 310.464844 554.214844 308.605469 549.367188 305.167969 C 544.582031 317.011719 542.160156 329.542969 542.160156 342.464844 C 542.160156 353.960938 544.082031 365.175781 547.890625 375.859375 C 552.992188 371.703125 559.308594 369.457031 566.023438 369.457031 C 581.925781 369.457031 594.863281 382.386719 594.863281 398.285156 C 594.863281 408.070312 590.042969 416.945312 582.066406 422.25 C 599.238281 435.132812 620.347656 442.191406 641.910156 442.191406 C 668.660156 442.191406 693.773438 431.746094 712.632812 412.792969 L 716.15625 416.300781 C 696.351562 436.210938 669.984375 447.171875 641.902344 447.171875 Z M 641.902344 447.171875 " fill-opacity="1" fill-rule="nonzero"/></g><g clip-path="url(#90042cfc65)"><path fill="#488cca" d="M 743.058594 369.699219 L 738.253906 368.40625 C 740.511719 360 741.660156 351.277344 741.660156 342.476562 C 741.660156 329.980469 739.382812 317.804688 734.878906 306.273438 L 739.515625 304.46875 C 744.242188 316.574219 746.632812 329.363281 746.632812 342.480469 C 746.632812 351.714844 745.429688 360.875 743.058594 369.699219 Z M 743.058594 369.699219 " fill-opacity="1" fill-rule="nonzero"/></g><path fill="#488cca" d="M 725.734375 310.472656 C 709.832031 310.472656 696.894531 297.542969 696.894531 281.644531 C 696.894531 265.75 709.832031 252.816406 725.734375 252.816406 C 741.632812 252.816406 754.570312 265.75 754.570312 281.644531 C 754.570312 297.542969 741.632812 310.472656 725.734375 310.472656 Z M 725.734375 257.789062 C 712.570312 257.789062 701.867188 268.488281 701.867188 281.644531 C 701.867188 294.800781 712.570312 305.503906 725.734375 305.503906 C 738.894531 305.503906 749.597656 294.800781 749.597656 281.644531 C 749.597656 268.488281 738.890625 257.789062 725.734375 257.789062 Z M 725.734375 257.789062 " fill-opacity="1" fill-rule="nonzero"/><path fill="#488cca" d="M 546.679688 303.03125 C 540.640625 297.570312 537.175781 289.773438 537.175781 281.640625 C 537.175781 265.746094 550.113281 252.8125 566.015625 252.8125 C 572.046875 252.8125 577.828125 254.65625 582.726562 258.148438 L 579.839844 262.195312 C 575.789062 259.308594 571.007812 257.785156 566.015625 257.785156 C 552.851562 257.785156 542.148438 268.484375 542.148438 281.640625 C 542.148438 288.371094 545.015625 294.828125 550.011719 299.339844 Z M 546.679688 303.03125 " fill-opacity="1" fill-rule="nonzero"/><g clip-path="url(#c0af67938f)"><path fill="#488cca" d="M 641.472656 402.847656 C 608.171875 402.847656 581.078125 375.765625 581.078125 342.476562 C 581.078125 309.1875 608.171875 282.101562 641.472656 282.101562 C 674.773438 282.101562 701.867188 309.1875 701.867188 342.476562 C 701.867188 375.765625 674.773438 402.847656 641.472656 402.847656 Z M 641.472656 287.082031 C 610.914062 287.082031 586.054688 311.929688 586.054688 342.480469 C 586.054688 373.03125 610.914062 397.882812 641.472656 397.882812 C 672.035156 397.882812 696.894531 373.03125 696.894531 342.480469 C 696.894531 311.929688 672.027344 287.082031 641.472656 287.082031 Z M 641.472656 287.082031 " fill-opacity="1" fill-rule="nonzero"/></g><g clip-path="url(#78cdd6956f)"><path fill="#488cca" d="M 685.089844 342.480469 C 685.089844 343.910156 685.019531 345.332031 684.878906 346.753906 C 684.742188 348.175781 684.53125 349.585938 684.253906 350.988281 C 683.972656 352.386719 683.628906 353.769531 683.210938 355.136719 C 682.796875 356.503906 682.316406 357.847656 681.769531 359.167969 C 681.222656 360.484375 680.613281 361.773438 679.941406 363.035156 C 679.265625 364.292969 678.535156 365.515625 677.738281 366.703125 C 676.945312 367.890625 676.097656 369.039062 675.191406 370.140625 C 674.285156 371.246094 673.324219 372.300781 672.316406 373.3125 C 671.304688 374.320312 670.25 375.28125 669.144531 376.183594 C 668.039062 377.089844 666.894531 377.941406 665.707031 378.734375 C 664.519531 379.527344 663.292969 380.261719 662.035156 380.933594 C 660.773438 381.605469 659.484375 382.21875 658.164062 382.761719 C 656.84375 383.308594 655.503906 383.789062 654.136719 384.203125 C 652.769531 384.621094 651.382812 384.964844 649.984375 385.246094 C 648.582031 385.523438 647.171875 385.734375 645.75 385.871094 C 644.328125 386.011719 642.902344 386.082031 641.472656 386.082031 C 640.046875 386.082031 638.621094 386.011719 637.199219 385.871094 C 635.777344 385.734375 634.367188 385.523438 632.964844 385.246094 C 631.5625 384.964844 630.179688 384.621094 628.8125 384.203125 C 627.445312 383.789062 626.101562 383.308594 624.78125 382.761719 C 623.460938 382.21875 622.171875 381.605469 620.914062 380.933594 C 619.652344 380.261719 618.429688 379.527344 617.242188 378.734375 C 616.054688 377.941406 614.90625 377.089844 613.804688 376.183594 C 612.699219 375.28125 611.640625 374.320312 610.632812 373.3125 C 609.621094 372.300781 608.664062 371.246094 607.757812 370.140625 C 606.851562 369.039062 606 367.890625 605.207031 366.703125 C 604.414062 365.515625 603.679688 364.292969 603.007812 363.035156 C 602.332031 361.773438 601.722656 360.484375 601.175781 359.167969 C 600.628906 357.847656 600.148438 356.503906 599.734375 355.136719 C 599.320312 353.769531 598.972656 352.386719 598.695312 350.988281 C 598.417969 349.585938 598.207031 348.175781 598.066406 346.753906 C 597.925781 345.332031 597.855469 343.910156 597.855469 342.480469 C 597.855469 341.054688 597.925781 339.628906 598.066406 338.207031 C 598.207031 336.785156 598.417969 335.375 598.695312 333.972656 C 598.972656 332.574219 599.320312 331.191406 599.734375 329.824219 C 600.148438 328.457031 600.628906 327.113281 601.175781 325.796875 C 601.722656 324.476562 602.332031 323.1875 603.007812 321.925781 C 603.679688 320.667969 604.414062 319.445312 605.207031 318.257812 C 606 317.070312 606.851562 315.925781 607.757812 314.820312 C 608.664062 313.714844 609.621094 312.660156 610.632812 311.648438 C 611.640625 310.640625 612.699219 309.683594 613.804688 308.777344 C 614.90625 307.871094 616.054688 307.019531 617.242188 306.226562 C 618.429688 305.433594 619.652344 304.699219 620.914062 304.027344 C 622.171875 303.355469 623.460938 302.746094 624.78125 302.199219 C 626.101562 301.652344 627.445312 301.171875 628.8125 300.757812 C 630.179688 300.34375 631.5625 299.996094 632.964844 299.71875 C 634.367188 299.4375 635.777344 299.230469 637.199219 299.089844 C 638.621094 298.949219 640.046875 298.878906 641.472656 298.878906 C 642.902344 298.878906 644.328125 298.949219 645.75 299.089844 C 647.171875 299.230469 648.582031 299.4375 649.984375 299.71875 C 651.382812 299.996094 652.769531 300.34375 654.136719 300.757812 C 655.503906 301.171875 656.84375 301.652344 658.164062 302.199219 C 659.484375 302.746094 660.773438 303.355469 662.035156 304.027344 C 663.292969 304.699219 664.519531 305.433594 665.707031 306.226562 C 666.894531 307.019531 668.039062 307.871094 669.144531 308.777344 C 670.25 309.683594 671.304688 310.640625 672.316406 311.648438 C 673.324219 312.660156 674.285156 313.714844 675.191406 314.820312 C 676.097656 315.925781 676.945312 317.070312 677.738281 318.257812 C 678.535156 319.445312 679.265625 320.667969 679.941406 321.925781 C 680.613281 323.1875 681.222656 324.476562 681.769531 325.796875 C 682.316406 327.113281 682.796875 328.457031 683.210938 329.824219 C 683.628906 331.191406 683.972656 332.574219 684.253906 333.972656 C 684.53125 335.375 684.742188 336.785156 684.878906 338.207031 C 685.019531 339.628906 685.089844 341.054688 685.089844 342.480469 Z M 685.089844 342.480469 " fill-opacity="1" fill-rule="nonzero"/></g><g clip-path="url(#81ee894fc5)"><path fill="#488cca" d="M 749.363281 265.769531 L 745.847656 262.253906 L 930.226562 77.933594 L 1235.863281 77.933594 L 1235.863281 82.90625 L 932.292969 82.90625 Z M 749.363281 265.769531 " fill-opacity="1" fill-rule="nonzero"/></g><g clip-path="url(#88fc63863e)"><path fill="#488cca" d="M 1122.964844 492.957031 L 959.136719 492.957031 L 876.648438 381.046875 L 959.136719 269.128906 L 1122.964844 269.128906 L 1205.453125 381.046875 Z M 961.648438 487.984375 L 1120.449219 487.984375 L 1199.277344 381.046875 L 1120.449219 274.101562 L 961.648438 274.101562 L 882.820312 381.046875 Z M 961.648438 487.984375 " fill-opacity="1" fill-rule="nonzero"/></g><g clip-path="url(#471b2d6728)"><path fill="#488cca" d="M 430.703125 458.753906 L 292.792969 458.753906 L 223.261719 364.421875 L 292.792969 270.09375 L 430.699219 270.09375 L 500.226562 364.421875 Z M 295.3125 453.78125 L 428.191406 453.78125 L 494.054688 364.421875 L 428.183594 275.066406 L 295.3125 275.066406 L 229.445312 364.421875 Z M 295.3125 453.78125 " fill-opacity="1" fill-rule="nonzero"/></g><path fill="#488cca" d="M 704.246094 210.945312 L 592.609375 210.945312 L 536.792969 114.300781 L 592.609375 17.652344 L 704.246094 17.652344 L 760.0625 114.300781 Z M 595.480469 205.972656 L 701.371094 205.972656 L 754.316406 114.300781 L 701.371094 22.625 L 595.480469 22.625 L 542.53125 114.300781 Z M 595.480469 205.972656 " fill-opacity="1" fill-rule="nonzero"/><path fill="#488cca" d="M 96.425781 114.875 L 41.167969 114.875 L 13.535156 67.03125 L 41.167969 19.191406 L 96.433594 19.191406 L 124.0625 67.03125 Z M 44.035156 109.902344 L 93.558594 109.902344 L 118.316406 67.03125 L 93.558594 24.164062 L 44.035156 24.164062 L 19.277344 67.03125 Z M 44.035156 109.902344 " fill-opacity="1" fill-rule="nonzero"/><path fill="#488cca" d="M 994.539062 128.660156 L 944.234375 128.660156 L 919.074219 172.214844 L 944.234375 215.769531 L 994.539062 215.769531 L 1019.695312 172.214844 Z M 994.539062 128.660156 " fill-opacity="1" fill-rule="nonzero"/><path fill="#488cca" d="M 473.421875 93.101562 L 420.242188 93.101562 L 393.652344 47.058594 L 420.242188 1.019531 L 473.421875 1.019531 L 500.015625 47.058594 Z M 423.113281 88.128906 L 470.546875 88.128906 L 494.269531 47.0625 L 470.546875 6 L 423.113281 6 L 399.390625 47.0625 Z M 423.113281 88.128906 " fill-opacity="1" fill-rule="nonzero"/><path fill="#488cca" d="M 115.539062 116.476562 L 111.289062 113.898438 L 139.699219 67.164062 L 111.285156 20.160156 L 115.542969 17.589844 L 145.515625 67.167969 Z M 115.539062 116.476562 " fill-opacity="1" fill-rule="nonzero"/><path fill="#488cca" d="M 556.558594 256.664062 L 488.101562 152.527344 L 309.742188 152.527344 L 226.707031 69.519531 L 142.609375 69.519531 L 142.609375 64.546875 L 228.765625 64.546875 L 311.800781 147.554688 L 490.789062 147.554688 L 560.714844 253.933594 Z M 556.558594 256.664062 " fill-opacity="1" fill-rule="nonzero"/><g clip-path="url(#37680a05c2)"><path fill="#488cca" d="M 823.554688 265.496094 L 820.039062 261.980469 L 850.878906 231.152344 L 1040.023438 231.152344 L 1065.921875 205.257812 L 1174.101562 205.257812 L 1228.046875 259.1875 L 1383.273438 259.1875 L 1383.273438 264.15625 L 1225.988281 264.15625 L 1172.042969 210.230469 L 1067.980469 210.230469 L 1042.082031 236.125 L 852.9375 236.125 Z M 823.554688 265.496094 " fill-opacity="1" fill-rule="nonzero"/></g><path fill="#488cca" d="M 504.066406 260.925781 L 473.390625 224.472656 L 314.230469 224.472656 L 292.4375 198.582031 L 205.460938 198.582031 L 160.070312 252.507812 L 27.421875 252.507812 L 27.421875 247.535156 L 157.75 247.535156 L 203.144531 193.613281 L 294.753906 193.613281 L 316.546875 219.503906 L 475.707031 219.503906 L 507.875 257.722656 Z M 504.066406 260.925781 " fill-opacity="1" fill-rule="nonzero"/></g></g></g><g mask="url(#fff9f5745f)"><g transform="matrix(1, 0, 0, 1, 463, 0.000000000000039746)"><g clip-path="url(#946304ec59)"><path fill="#488cca" d="M 515.667969 246.390625 C 505.898438 246.390625 497.949219 254.335938 497.949219 264.101562 C 497.949219 273.867188 505.898438 281.8125 515.667969 281.8125 C 525.433594 281.8125 533.382812 273.867188 533.382812 264.101562 C 533.382812 254.335938 525.433594 246.390625 515.667969 246.390625 Z M 515.667969 276.839844 C 508.636719 276.839844 502.921875 271.121094 502.921875 264.101562 C 502.921875 257.082031 508.644531 251.363281 515.667969 251.363281 C 522.691406 251.363281 528.410156 257.082031 528.410156 264.101562 C 528.410156 271.121094 522.695312 276.839844 515.667969 276.839844 Z M 515.667969 276.839844 " fill-opacity="1" fill-rule="nonzero"/><path fill="#488cca" d="M 534.820312 96.308594 C 534.820312 95.734375 534.792969 95.160156 534.738281 94.589844 C 534.679688 94.015625 534.597656 93.449219 534.484375 92.882812 C 534.371094 92.320312 534.230469 91.765625 534.066406 91.214844 C 533.898438 90.664062 533.703125 90.125 533.484375 89.59375 C 533.265625 89.0625 533.019531 88.542969 532.75 88.035156 C 532.476562 87.53125 532.183594 87.039062 531.863281 86.558594 C 531.542969 86.082031 531.203125 85.621094 530.835938 85.175781 C 530.472656 84.730469 530.085938 84.308594 529.679688 83.898438 C 529.273438 83.492188 528.847656 83.109375 528.402344 82.742188 C 527.957031 82.378906 527.496094 82.039062 527.019531 81.71875 C 526.542969 81.398438 526.050781 81.105469 525.542969 80.832031 C 525.035156 80.5625 524.515625 80.316406 523.984375 80.097656 C 523.453125 79.875 522.914062 79.683594 522.363281 79.515625 C 521.8125 79.351562 521.257812 79.210938 520.691406 79.097656 C 520.128906 78.984375 519.5625 78.902344 518.988281 78.84375 C 518.417969 78.789062 517.84375 78.761719 517.269531 78.761719 C 516.691406 78.761719 516.121094 78.789062 515.546875 78.84375 C 514.976562 78.902344 514.40625 78.984375 513.84375 79.097656 C 513.28125 79.210938 512.722656 79.351562 512.171875 79.515625 C 511.621094 79.683594 511.082031 79.875 510.550781 80.097656 C 510.019531 80.316406 509.5 80.5625 508.992188 80.832031 C 508.484375 81.105469 507.992188 81.398438 507.515625 81.71875 C 507.039062 82.039062 506.578125 82.378906 506.132812 82.742188 C 505.6875 83.109375 505.261719 83.492188 504.855469 83.898438 C 504.449219 84.308594 504.0625 84.730469 503.699219 85.175781 C 503.335938 85.621094 502.992188 86.082031 502.671875 86.558594 C 502.355469 87.039062 502.058594 87.53125 501.789062 88.035156 C 501.515625 88.542969 501.269531 89.0625 501.050781 89.59375 C 500.832031 90.125 500.636719 90.664062 500.46875 91.214844 C 500.304688 91.765625 500.164062 92.320312 500.050781 92.882812 C 499.941406 93.449219 499.855469 94.015625 499.800781 94.589844 C 499.742188 95.160156 499.714844 95.734375 499.714844 96.308594 C 499.714844 96.882812 499.742188 97.457031 499.800781 98.027344 C 499.855469 98.601562 499.941406 99.167969 500.050781 99.730469 C 500.164062 100.292969 500.304688 100.851562 500.46875 101.402344 C 500.636719 101.953125 500.832031 102.492188 501.050781 103.023438 C 501.269531 103.554688 501.515625 104.074219 501.789062 104.578125 C 502.058594 105.085938 502.355469 105.578125 502.671875 106.058594 C 502.992188 106.535156 503.335938 106.996094 503.699219 107.441406 C 504.0625 107.882812 504.449219 108.308594 504.855469 108.714844 C 505.261719 109.121094 505.6875 109.507812 506.132812 109.871094 C 506.578125 110.238281 507.039062 110.578125 507.515625 110.898438 C 507.992188 111.21875 508.484375 111.511719 508.992188 111.78125 C 509.5 112.054688 510.019531 112.300781 510.550781 112.519531 C 511.082031 112.738281 511.621094 112.933594 512.171875 113.097656 C 512.722656 113.265625 513.28125 113.40625 513.84375 113.519531 C 514.40625 113.628906 514.976562 113.714844 515.546875 113.769531 C 516.121094 113.828125 516.691406 113.855469 517.269531 113.855469 C 517.84375 113.855469 518.417969 113.828125 518.988281 113.769531 C 519.5625 113.714844 520.128906 113.628906 520.691406 113.519531 C 521.257812 113.40625 521.8125 113.265625 522.363281 113.097656 C 522.914062 112.933594 523.453125 112.738281 523.984375 112.519531 C 524.515625 112.300781 525.035156 112.054688 525.542969 111.78125 C 526.050781 111.511719 526.542969 111.21875 527.019531 110.898438 C 527.496094 110.578125 527.960938 110.238281 528.402344 109.871094 C 528.847656 109.507812 529.273438 109.121094 529.679688 108.714844 C 530.085938 108.308594 530.472656 107.882812 530.835938 107.441406 C 531.203125 106.996094 531.542969 106.535156 531.863281 106.058594 C 532.183594 105.578125 532.476562 105.085938 532.75 104.578125 C 533.019531 104.074219 533.265625 103.554688 533.484375 103.023438 C 533.703125 102.492188 533.898438 101.953125 534.066406 101.402344 C 534.230469 100.851562 534.371094 100.292969 534.484375 99.730469 C 534.597656 99.167969 534.679688 98.601562 534.738281 98.027344 C 534.792969 97.457031 534.820312 96.882812 534.820312 96.308594 Z M 534.820312 96.308594 " fill-opacity="1" fill-rule="nonzero"/><path fill="#488cca" d="M 59.488281 146.582031 C 46.238281 146.582031 35.460938 157.355469 35.460938 170.601562 C 35.460938 183.847656 46.238281 194.625 59.488281 194.625 C 72.738281 194.625 83.519531 183.847656 83.519531 170.601562 C 83.519531 157.355469 72.738281 146.582031 59.488281 146.582031 Z M 59.488281 189.652344 C 48.984375 189.652344 40.433594 181.105469 40.433594 170.601562 C 40.433594 160.101562 48.984375 151.554688 59.488281 151.554688 C 69.996094 151.554688 78.542969 160.101562 78.542969 170.601562 C 78.542969 181.105469 69.996094 189.652344 59.488281 189.652344 Z M 59.488281 189.652344 " fill-opacity="1" fill-rule="nonzero"/><g clip-path="url(#8c7dd47d17)"><path fill="#488cca" d="M 65.632812 283.617188 C 65.632812 282.546875 65.578125 281.480469 65.476562 280.414062 C 65.371094 279.351562 65.214844 278.292969 65.003906 277.242188 C 64.796875 276.195312 64.535156 275.15625 64.226562 274.132812 C 63.914062 273.109375 63.554688 272.101562 63.144531 271.113281 C 62.734375 270.125 62.277344 269.160156 61.773438 268.214844 C 61.269531 267.273438 60.71875 266.355469 60.125 265.464844 C 59.53125 264.574219 58.894531 263.71875 58.214844 262.890625 C 57.535156 262.0625 56.816406 261.269531 56.058594 260.515625 C 55.300781 259.757812 54.511719 259.039062 53.683594 258.359375 C 52.855469 257.683594 51.996094 257.046875 51.105469 256.453125 C 50.214844 255.855469 49.300781 255.308594 48.355469 254.804688 C 47.410156 254.296875 46.445312 253.839844 45.457031 253.433594 C 44.46875 253.023438 43.460938 252.664062 42.4375 252.351562 C 41.410156 252.042969 40.375 251.78125 39.324219 251.574219 C 38.273438 251.363281 37.21875 251.207031 36.152344 251.101562 C 35.085938 250.996094 34.019531 250.945312 32.949219 250.945312 C 31.878906 250.945312 30.808594 250.996094 29.746094 251.101562 C 28.679688 251.207031 27.621094 251.363281 26.570312 251.574219 C 25.523438 251.78125 24.484375 252.042969 23.460938 252.351562 C 22.4375 252.664062 21.429688 253.023438 20.441406 253.433594 C 19.453125 253.839844 18.484375 254.296875 17.542969 254.804688 C 16.597656 255.308594 15.679688 255.855469 14.789062 256.453125 C 13.898438 257.046875 13.042969 257.683594 12.214844 258.359375 C 11.386719 259.039062 10.59375 259.757812 9.835938 260.515625 C 9.082031 261.269531 8.363281 262.0625 7.683594 262.890625 C 7.003906 263.71875 6.367188 264.574219 5.773438 265.464844 C 5.179688 266.355469 4.628906 267.273438 4.125 268.214844 C 3.621094 269.160156 3.164062 270.125 2.753906 271.113281 C 2.34375 272.101562 1.984375 273.109375 1.671875 274.132812 C 1.359375 275.15625 1.101562 276.195312 0.894531 277.242188 C 0.683594 278.292969 0.527344 279.351562 0.421875 280.414062 C 0.316406 281.480469 0.265625 282.546875 0.265625 283.617188 C 0.265625 284.6875 0.316406 285.753906 0.421875 286.820312 C 0.527344 287.886719 0.683594 288.941406 0.894531 289.992188 C 1.101562 291.042969 1.359375 292.078125 1.671875 293.101562 C 1.984375 294.125 2.34375 295.132812 2.753906 296.121094 C 3.164062 297.109375 3.621094 298.074219 4.125 299.019531 C 4.628906 299.964844 5.179688 300.878906 5.773438 301.769531 C 6.367188 302.660156 7.003906 303.519531 7.683594 304.34375 C 8.363281 305.171875 9.082031 305.964844 9.835938 306.71875 C 10.59375 307.476562 11.386719 308.195312 12.214844 308.875 C 13.042969 309.554688 13.898438 310.191406 14.789062 310.785156 C 15.679688 311.378906 16.597656 311.929688 17.542969 312.433594 C 18.484375 312.9375 19.453125 313.394531 20.441406 313.804688 C 21.429688 314.210938 22.4375 314.574219 23.460938 314.882812 C 24.484375 315.195312 25.523438 315.453125 26.570312 315.664062 C 27.621094 315.871094 28.679688 316.027344 29.746094 316.132812 C 30.808594 316.238281 31.878906 316.289062 32.949219 316.289062 C 34.019531 316.289062 35.085938 316.238281 36.152344 316.132812 C 37.21875 316.027344 38.273438 315.871094 39.324219 315.664062 C 40.375 315.453125 41.410156 315.195312 42.4375 314.882812 C 43.460938 314.574219 44.46875 314.210938 45.457031 313.804688 C 46.445312 313.394531 47.410156 312.9375 48.355469 312.433594 C 49.300781 311.929688 50.214844 311.378906 51.105469 310.785156 C 51.996094 310.191406 52.855469 309.554688 53.683594 308.875 C 54.511719 308.195312 55.300781 307.476562 56.058594 306.71875 C 56.816406 305.964844 57.535156 305.171875 58.214844 304.34375 C 58.894531 303.519531 59.53125 302.660156 60.125 301.769531 C 60.71875 300.878906 61.269531 299.964844 61.773438 299.019531 C 62.277344 298.074219 62.734375 297.109375 63.144531 296.121094 C 63.554688 295.132812 63.914062 294.125 64.226562 293.101562 C 64.535156 292.078125 64.796875 291.042969 65.003906 289.992188 C 65.214844 288.941406 65.371094 287.886719 65.476562 286.820312 C 65.578125 285.753906 65.632812 284.6875 65.632812 283.617188 Z M 65.632812 283.617188 " fill-opacity="1" fill-rule="nonzero"/></g><path fill="#488cca" d="M 848.246094 118.414062 C 848.246094 117.566406 848.203125 116.722656 848.121094 115.882812 C 848.039062 115.039062 847.914062 114.203125 847.75 113.371094 C 847.582031 112.542969 847.378906 111.722656 847.132812 110.910156 C 846.886719 110.101562 846.601562 109.304688 846.277344 108.523438 C 845.953125 107.742188 845.589844 106.976562 845.191406 106.230469 C 844.792969 105.484375 844.359375 104.757812 843.886719 104.054688 C 843.417969 103.351562 842.914062 102.671875 842.375 102.019531 C 841.839844 101.363281 841.269531 100.738281 840.671875 100.140625 C 840.074219 99.539062 839.445312 98.972656 838.792969 98.4375 C 838.136719 97.898438 837.457031 97.394531 836.753906 96.925781 C 836.050781 96.453125 835.324219 96.019531 834.578125 95.621094 C 833.832031 95.222656 833.066406 94.859375 832.285156 94.535156 C 831.503906 94.210938 830.707031 93.925781 829.894531 93.683594 C 829.085938 93.4375 828.265625 93.230469 827.433594 93.066406 C 826.605469 92.898438 825.765625 92.777344 824.925781 92.691406 C 824.082031 92.609375 823.238281 92.570312 822.390625 92.570312 C 821.542969 92.570312 820.699219 92.609375 819.855469 92.691406 C 819.011719 92.777344 818.175781 92.898438 817.347656 93.066406 C 816.515625 93.230469 815.695312 93.4375 814.886719 93.679688 C 814.074219 93.925781 813.277344 94.210938 812.496094 94.535156 C 811.714844 94.859375 810.949219 95.222656 810.203125 95.621094 C 809.457031 96.019531 808.730469 96.453125 808.027344 96.925781 C 807.324219 97.394531 806.644531 97.898438 805.988281 98.433594 C 805.332031 98.972656 804.707031 99.539062 804.109375 100.140625 C 803.507812 100.738281 802.941406 101.363281 802.40625 102.019531 C 801.867188 102.671875 801.363281 103.351562 800.894531 104.054688 C 800.421875 104.757812 799.988281 105.484375 799.589844 106.230469 C 799.191406 106.976562 798.828125 107.742188 798.503906 108.523438 C 798.179688 109.304688 797.894531 110.101562 797.648438 110.910156 C 797.402344 111.722656 797.199219 112.542969 797.03125 113.371094 C 796.867188 114.203125 796.742188 115.039062 796.660156 115.882812 C 796.578125 116.722656 796.535156 117.566406 796.535156 118.414062 C 796.535156 119.261719 796.578125 120.105469 796.660156 120.949219 C 796.742188 121.789062 796.867188 122.625 797.03125 123.457031 C 797.199219 124.285156 797.402344 125.105469 797.648438 125.917969 C 797.894531 126.726562 798.179688 127.523438 798.503906 128.304688 C 798.828125 129.085938 799.191406 129.851562 799.589844 130.597656 C 799.988281 131.34375 800.421875 132.070312 800.894531 132.773438 C 801.363281 133.476562 801.867188 134.15625 802.40625 134.8125 C 802.941406 135.464844 803.507812 136.089844 804.109375 136.691406 C 804.707031 137.289062 805.332031 137.855469 805.988281 138.394531 C 806.644531 138.929688 807.324219 139.433594 808.027344 139.90625 C 808.730469 140.375 809.457031 140.808594 810.203125 141.207031 C 810.949219 141.609375 811.714844 141.96875 812.496094 142.292969 C 813.277344 142.617188 814.074219 142.902344 814.886719 143.148438 C 815.695312 143.394531 816.515625 143.597656 817.347656 143.765625 C 818.175781 143.929688 819.011719 144.054688 819.855469 144.136719 C 820.699219 144.21875 821.542969 144.261719 822.390625 144.261719 C 823.238281 144.261719 824.082031 144.21875 824.925781 144.136719 C 825.765625 144.054688 826.605469 143.929688 827.433594 143.765625 C 828.265625 143.597656 829.085938 143.394531 829.894531 143.148438 C 830.707031 142.902344 831.503906 142.617188 832.285156 142.292969 C 833.066406 141.96875 833.832031 141.609375 834.578125 141.207031 C 835.324219 140.808594 836.050781 140.375 836.753906 139.90625 C 837.457031 139.433594 838.136719 138.929688 838.792969 138.394531 C 839.445312 137.855469 840.074219 137.289062 840.671875 136.691406 C 841.269531 136.089844 841.839844 135.464844 842.375 134.8125 C 842.914062 134.15625 843.417969 133.476562 843.886719 132.773438 C 844.359375 132.070312 844.792969 131.34375 845.191406 130.597656 C 845.589844 129.851562 845.953125 129.085938 846.277344 128.304688 C 846.601562 127.523438 846.886719 126.726562 847.132812 125.917969 C 847.378906 125.105469 847.582031 124.285156 847.75 123.457031 C 847.914062 122.625 848.039062 121.789062 848.121094 120.949219 C 848.203125 120.105469 848.246094 119.261719 848.246094 118.414062 Z M 848.246094 118.414062 " fill-opacity="1" fill-rule="nonzero"/><path fill="#488cca" d="M 802.300781 224.550781 C 786.398438 224.550781 773.460938 237.484375 773.460938 253.382812 C 773.460938 269.277344 786.398438 282.210938 802.300781 282.210938 C 818.203125 282.210938 831.140625 269.277344 831.140625 253.382812 C 831.140625 237.484375 818.207031 224.550781 802.300781 224.550781 Z M 802.300781 277.242188 C 789.140625 277.242188 778.4375 266.539062 778.4375 253.386719 C 778.4375 240.234375 789.144531 229.53125 802.300781 229.53125 C 815.460938 229.53125 826.164062 240.234375 826.164062 253.386719 C 826.164062 266.539062 815.460938 277.242188 802.300781 277.242188 Z M 802.300781 277.242188 " fill-opacity="1" fill-rule="nonzero"/><path fill="#488cca" d="M 261.515625 33.796875 C 261.515625 33.132812 261.453125 32.472656 261.320312 31.820312 C 261.191406 31.167969 261 30.535156 260.746094 29.921875 C 260.492188 29.304688 260.179688 28.722656 259.808594 28.167969 C 259.441406 27.617188 259.019531 27.105469 258.550781 26.636719 C 258.078125 26.164062 257.566406 25.746094 257.015625 25.375 C 256.460938 25.003906 255.875 24.695312 255.261719 24.4375 C 254.648438 24.183594 254.015625 23.992188 253.363281 23.863281 C 252.710938 23.734375 252.050781 23.667969 251.386719 23.667969 C 250.71875 23.667969 250.0625 23.734375 249.410156 23.863281 C 248.753906 23.992188 248.121094 24.183594 247.507812 24.4375 C 246.894531 24.695312 246.308594 25.007812 245.757812 25.375 C 245.203125 25.746094 244.691406 26.164062 244.21875 26.636719 C 243.75 27.105469 243.332031 27.617188 242.960938 28.167969 C 242.589844 28.722656 242.277344 29.304688 242.023438 29.921875 C 241.769531 30.535156 241.578125 31.167969 241.449219 31.820312 C 241.316406 32.472656 241.253906 33.132812 241.253906 33.796875 C 241.253906 34.460938 241.316406 35.121094 241.449219 35.773438 C 241.578125 36.425781 241.769531 37.058594 242.023438 37.671875 C 242.277344 38.289062 242.589844 38.871094 242.960938 39.425781 C 243.332031 39.976562 243.75 40.488281 244.21875 40.957031 C 244.691406 41.429688 245.203125 41.847656 245.757812 42.21875 C 246.308594 42.585938 246.894531 42.898438 247.507812 43.15625 C 248.121094 43.410156 248.753906 43.601562 249.410156 43.730469 C 250.0625 43.859375 250.71875 43.925781 251.386719 43.925781 C 252.050781 43.925781 252.710938 43.859375 253.363281 43.730469 C 254.015625 43.601562 254.648438 43.410156 255.261719 43.15625 C 255.875 42.898438 256.460938 42.585938 257.015625 42.21875 C 257.566406 41.847656 258.078125 41.429688 258.550781 40.957031 C 259.019531 40.488281 259.441406 39.976562 259.808594 39.425781 C 260.179688 38.871094 260.492188 38.289062 260.746094 37.671875 C 261 37.058594 261.191406 36.425781 261.320312 35.773438 C 261.453125 35.121094 261.515625 34.460938 261.515625 33.796875 Z M 261.515625 33.796875 " fill-opacity="1" fill-rule="nonzero"/><path fill="#488cca" d="M 124.007812 420.835938 C 124.007812 420.171875 123.941406 419.511719 123.8125 418.859375 C 123.683594 418.207031 123.488281 417.574219 123.234375 416.960938 C 122.980469 416.347656 122.667969 415.761719 122.300781 415.210938 C 121.929688 414.65625 121.507812 414.144531 121.039062 413.675781 C 120.570312 413.203125 120.058594 412.785156 119.503906 412.414062 C 118.949219 412.046875 118.367188 411.734375 117.753906 411.480469 C 117.136719 411.226562 116.503906 411.03125 115.851562 410.902344 C 115.199219 410.773438 114.539062 410.707031 113.875 410.707031 C 113.210938 410.707031 112.550781 410.773438 111.898438 410.902344 C 111.246094 411.03125 110.613281 411.226562 109.996094 411.480469 C 109.382812 411.734375 108.800781 412.046875 108.246094 412.414062 C 107.691406 412.785156 107.179688 413.203125 106.710938 413.675781 C 106.238281 414.144531 105.820312 414.65625 105.449219 415.210938 C 105.082031 415.761719 104.769531 416.347656 104.515625 416.960938 C 104.257812 417.574219 104.066406 418.207031 103.9375 418.859375 C 103.808594 419.511719 103.742188 420.171875 103.742188 420.835938 C 103.742188 421.5 103.808594 422.160156 103.9375 422.8125 C 104.066406 423.464844 104.257812 424.097656 104.515625 424.714844 C 104.769531 425.328125 105.082031 425.910156 105.449219 426.464844 C 105.820312 427.015625 106.238281 427.527344 106.710938 428 C 107.179688 428.46875 107.691406 428.890625 108.246094 429.257812 C 108.800781 429.628906 109.382812 429.941406 109.996094 430.195312 C 110.613281 430.449219 111.246094 430.640625 111.898438 430.769531 C 112.550781 430.902344 113.210938 430.964844 113.875 430.964844 C 114.539062 430.964844 115.199219 430.902344 115.851562 430.769531 C 116.503906 430.640625 117.136719 430.449219 117.753906 430.195312 C 118.367188 429.941406 118.949219 429.628906 119.503906 429.257812 C 120.058594 428.890625 120.570312 428.46875 121.039062 428 C 121.507812 427.527344 121.929688 427.015625 122.300781 426.464844 C 122.667969 425.910156 122.980469 425.328125 123.234375 424.714844 C 123.488281 424.097656 123.683594 423.464844 123.8125 422.8125 C 123.941406 422.160156 124.007812 421.5 124.007812 420.835938 Z M 124.007812 420.835938 " fill-opacity="1" fill-rule="nonzero"/><path fill="#488cca" d="M 123.375 516.148438 C 123.375 515.484375 123.308594 514.828125 123.179688 514.175781 C 123.050781 513.523438 122.859375 512.886719 122.605469 512.273438 C 122.347656 511.660156 122.039062 511.074219 121.667969 510.523438 C 121.296875 509.96875 120.878906 509.457031 120.40625 508.988281 C 119.9375 508.519531 119.425781 508.097656 118.871094 507.726562 C 118.320312 507.359375 117.734375 507.046875 117.121094 506.792969 C 116.507812 506.539062 115.871094 506.347656 115.21875 506.214844 C 114.566406 506.085938 113.910156 506.023438 113.242188 506.023438 C 112.578125 506.023438 111.917969 506.085938 111.265625 506.214844 C 110.613281 506.347656 109.980469 506.539062 109.367188 506.792969 C 108.75 507.046875 108.167969 507.359375 107.613281 507.726562 C 107.0625 508.097656 106.550781 508.519531 106.078125 508.988281 C 105.609375 509.457031 105.1875 509.96875 104.820312 510.523438 C 104.449219 511.074219 104.136719 511.660156 103.882812 512.273438 C 103.628906 512.886719 103.4375 513.523438 103.304688 514.175781 C 103.175781 514.828125 103.109375 515.484375 103.109375 516.148438 C 103.109375 516.816406 103.175781 517.472656 103.304688 518.125 C 103.4375 518.777344 103.628906 519.410156 103.882812 520.027344 C 104.136719 520.640625 104.449219 521.222656 104.820312 521.777344 C 105.1875 522.328125 105.609375 522.839844 106.078125 523.3125 C 106.550781 523.78125 107.0625 524.203125 107.613281 524.570312 C 108.167969 524.941406 108.75 525.253906 109.367188 525.507812 C 109.980469 525.761719 110.613281 525.953125 111.265625 526.082031 C 111.917969 526.214844 112.578125 526.277344 113.242188 526.277344 C 113.910156 526.277344 114.566406 526.214844 115.21875 526.082031 C 115.871094 525.953125 116.507812 525.761719 117.121094 525.507812 C 117.734375 525.253906 118.320312 524.941406 118.871094 524.570312 C 119.425781 524.203125 119.9375 523.78125 120.40625 523.3125 C 120.878906 522.839844 121.296875 522.328125 121.667969 521.777344 C 122.039062 521.222656 122.347656 520.640625 122.605469 520.027344 C 122.859375 519.410156 123.050781 518.777344 123.179688 518.125 C 123.308594 517.472656 123.375 516.816406 123.375 516.148438 Z M 123.375 516.148438 " fill-opacity="1" fill-rule="nonzero"/><path fill="#488cca" d="M 641.730469 87.855469 C 617.8125 87.855469 594.425781 96.125 575.875 111.140625 L 572.851562 113.589844 L 576.347656 115.308594 C 584.589844 119.347656 589.707031 127.558594 589.707031 136.730469 C 589.707031 149.890625 579.003906 160.589844 565.84375 160.589844 C 559.207031 160.589844 553.050781 157.933594 548.5 153.109375 L 545.824219 150.273438 L 544.382812 153.898438 C 539.488281 166.1875 537.007812 179.191406 537.007812 192.550781 C 537.007812 207.257812 540.003906 221.488281 545.90625 234.84375 L 547.300781 237.992188 L 549.851562 235.683594 C 554.246094 231.710938 559.929688 229.523438 565.855469 229.523438 C 579.015625 229.523438 589.71875 240.230469 589.71875 253.386719 C 589.71875 261.09375 585.96875 268.359375 579.679688 272.832031 L 576.886719 274.820312 L 579.644531 276.859375 C 597.726562 290.195312 619.199219 297.246094 641.742188 297.246094 C 665.898438 297.246094 689.476562 288.828125 708.117188 273.539062 L 704.964844 269.695312 C 687.207031 284.257812 664.753906 292.277344 641.742188 292.277344 C 621.351562 292.277344 601.890625 286.226562 585.230469 274.742188 C 591.207031 269.3125 594.691406 261.554688 594.691406 253.394531 C 594.691406 237.496094 581.753906 224.5625 565.855469 224.5625 C 559.84375 224.5625 554.046875 226.421875 549.195312 229.859375 C 544.410156 218.011719 541.988281 205.484375 541.988281 192.5625 C 541.988281 181.066406 543.914062 169.851562 547.71875 159.167969 C 552.820312 163.324219 559.140625 165.570312 565.855469 165.570312 C 581.753906 165.570312 594.691406 152.636719 594.691406 136.742188 C 594.691406 126.957031 589.871094 118.082031 581.894531 112.777344 C 599.070312 99.894531 620.179688 92.835938 641.742188 92.835938 C 668.492188 92.835938 693.605469 103.277344 712.460938 122.234375 L 715.988281 118.726562 C 696.179688 98.8125 669.8125 87.855469 641.730469 87.855469 Z M 641.730469 87.855469 " fill-opacity="1" fill-rule="nonzero"/><path fill="#488cca" d="M 742.886719 165.328125 L 738.082031 166.621094 C 740.339844 175.027344 741.488281 183.75 741.488281 192.550781 C 741.488281 205.046875 739.210938 217.222656 734.710938 228.753906 L 739.34375 230.558594 C 744.070312 218.453125 746.464844 205.664062 746.464844 192.546875 C 746.464844 183.3125 745.257812 174.152344 742.886719 165.328125 Z M 742.886719 165.328125 " fill-opacity="1" fill-rule="nonzero"/><path fill="#488cca" d="M 725.5625 224.550781 C 709.660156 224.550781 696.722656 237.484375 696.722656 253.382812 C 696.722656 269.277344 709.660156 282.210938 725.5625 282.210938 C 741.464844 282.210938 754.402344 269.277344 754.402344 253.382812 C 754.402344 237.484375 741.464844 224.550781 725.5625 224.550781 Z M 725.5625 277.238281 C 712.402344 277.238281 701.699219 266.539062 701.699219 253.382812 C 701.699219 240.226562 712.402344 229.523438 725.5625 229.523438 C 738.722656 229.523438 749.425781 240.226562 749.425781 253.382812 C 749.425781 266.539062 738.71875 277.238281 725.5625 277.238281 Z M 725.5625 277.238281 " fill-opacity="1" fill-rule="nonzero"/><path fill="#488cca" d="M 725.5625 115.429688 C 709.660156 115.429688 696.722656 128.363281 696.722656 144.261719 C 696.722656 160.15625 709.660156 173.089844 725.5625 173.089844 C 741.464844 173.089844 754.402344 160.15625 754.402344 144.261719 C 754.402344 128.363281 741.464844 115.429688 725.5625 115.429688 Z M 725.5625 168.117188 C 712.402344 168.117188 701.699219 157.417969 701.699219 144.261719 C 701.699219 131.105469 712.402344 120.402344 725.5625 120.402344 C 738.722656 120.402344 749.425781 131.105469 749.425781 144.261719 C 749.425781 157.417969 738.71875 168.117188 725.5625 168.117188 Z M 725.5625 168.117188 " fill-opacity="1" fill-rule="nonzero"/><path fill="#488cca" d="M 565.84375 107.902344 C 549.941406 107.902344 537.003906 120.835938 537.003906 136.730469 C 537.003906 144.121094 539.800781 151.152344 544.882812 156.523438 L 548.5 153.105469 C 544.296875 148.660156 541.984375 142.84375 541.984375 136.726562 C 541.984375 123.570312 552.6875 112.871094 565.847656 112.871094 C 569.535156 112.871094 573.070312 113.6875 576.347656 115.300781 L 578.542969 110.84375 C 574.566406 108.894531 570.296875 107.902344 565.84375 107.902344 Z M 565.84375 107.902344 " fill-opacity="1" fill-rule="nonzero"/><path fill="#488cca" d="M 546.511719 231.996094 C 540.472656 237.457031 537.003906 245.25 537.003906 253.386719 C 537.003906 269.28125 549.941406 282.214844 565.84375 282.214844 C 571.878906 282.214844 577.65625 280.371094 582.554688 276.878906 L 579.671875 272.832031 C 575.617188 275.714844 570.835938 277.242188 565.84375 277.242188 C 552.683594 277.242188 541.980469 266.542969 541.980469 253.386719 C 541.980469 246.652344 544.84375 240.199219 549.84375 235.683594 Z M 546.511719 231.996094 " fill-opacity="1" fill-rule="nonzero"/><path fill="#488cca" d="M 641.304688 132.175781 C 608.003906 132.175781 580.910156 159.261719 580.910156 192.550781 C 580.910156 225.839844 608.003906 252.925781 641.304688 252.925781 C 674.605469 252.925781 701.699219 225.839844 701.699219 192.550781 C 701.699219 159.261719 674.605469 132.175781 641.304688 132.175781 Z M 641.304688 247.945312 C 610.742188 247.945312 585.882812 223.09375 585.882812 192.546875 C 585.882812 161.996094 610.742188 137.144531 641.304688 137.144531 C 671.863281 137.144531 696.722656 161.996094 696.722656 192.546875 C 696.722656 223.09375 671.859375 247.945312 641.304688 247.945312 Z M 641.304688 247.945312 " fill-opacity="1" fill-rule="nonzero"/><path fill="#488cca" d="M 684.921875 192.546875 C 684.921875 191.117188 684.851562 189.691406 684.710938 188.273438 C 684.570312 186.851562 684.359375 185.441406 684.082031 184.039062 C 683.804688 182.640625 683.457031 181.253906 683.042969 179.890625 C 682.628906 178.523438 682.148438 177.179688 681.601562 175.859375 C 681.054688 174.539062 680.445312 173.25 679.769531 171.992188 C 679.097656 170.734375 678.363281 169.507812 677.570312 168.320312 C 676.777344 167.132812 675.925781 165.988281 675.019531 164.886719 C 674.113281 163.78125 673.15625 162.726562 672.144531 161.714844 C 671.136719 160.707031 670.078125 159.746094 668.972656 158.839844 C 667.871094 157.933594 666.722656 157.085938 665.535156 156.292969 C 664.347656 155.5 663.125 154.765625 661.863281 154.09375 C 660.605469 153.417969 659.316406 152.808594 657.996094 152.261719 C 656.675781 151.714844 655.332031 151.234375 653.964844 150.820312 C 652.597656 150.40625 651.214844 150.0625 649.8125 149.78125 C 648.410156 149.503906 647 149.292969 645.578125 149.152344 C 644.15625 149.015625 642.730469 148.945312 641.304688 148.945312 C 639.875 148.945312 638.449219 149.015625 637.027344 149.152344 C 635.605469 149.292969 634.195312 149.503906 632.792969 149.78125 C 631.394531 150.0625 630.007812 150.40625 628.640625 150.820312 C 627.273438 151.234375 625.933594 151.714844 624.613281 152.261719 C 623.292969 152.808594 622.003906 153.417969 620.742188 154.09375 C 619.484375 154.765625 618.257812 155.5 617.070312 156.292969 C 615.882812 157.085938 614.738281 157.9375 613.632812 158.839844 C 612.527344 159.746094 611.472656 160.707031 610.460938 161.714844 C 609.453125 162.726562 608.492188 163.78125 607.585938 164.886719 C 606.679688 165.988281 605.832031 167.136719 605.039062 168.320312 C 604.242188 169.507812 603.511719 170.734375 602.835938 171.992188 C 602.164062 173.25 601.554688 174.542969 601.007812 175.859375 C 600.460938 177.179688 599.980469 178.523438 599.566406 179.890625 C 599.148438 181.253906 598.804688 182.640625 598.523438 184.039062 C 598.246094 185.441406 598.035156 186.851562 597.898438 188.273438 C 597.757812 189.691406 597.6875 191.117188 597.6875 192.546875 C 597.6875 193.972656 597.757812 195.398438 597.898438 196.820312 C 598.035156 198.242188 598.246094 199.652344 598.523438 201.050781 C 598.804688 202.453125 599.148438 203.835938 599.566406 205.203125 C 599.980469 206.570312 600.460938 207.914062 601.007812 209.230469 C 601.554688 210.550781 602.164062 211.839844 602.835938 213.101562 C 603.511719 214.359375 604.242188 215.582031 605.039062 216.769531 C 605.832031 217.957031 606.679688 219.101562 607.585938 220.207031 C 608.492188 221.308594 609.453125 222.367188 610.460938 223.378906 C 611.472656 224.386719 612.527344 225.34375 613.632812 226.25 C 614.738281 227.15625 615.882812 228.007812 617.070312 228.800781 C 618.257812 229.59375 619.484375 230.324219 620.742188 231 C 622.003906 231.671875 623.292969 232.28125 624.613281 232.828125 C 625.933594 233.375 627.273438 233.855469 628.640625 234.269531 C 630.007812 234.683594 631.394531 235.03125 632.792969 235.308594 C 634.195312 235.589844 635.605469 235.796875 637.027344 235.9375 C 638.449219 236.078125 639.875 236.148438 641.304688 236.148438 C 642.730469 236.148438 644.15625 236.078125 645.578125 235.9375 C 647 235.796875 648.410156 235.589844 649.8125 235.308594 C 651.214844 235.03125 652.597656 234.683594 653.964844 234.269531 C 655.332031 233.855469 656.675781 233.375 657.996094 232.828125 C 659.316406 232.28125 660.605469 231.671875 661.863281 231 C 663.125 230.324219 664.347656 229.59375 665.535156 228.800781 C 666.722656 228.007812 667.871094 227.15625 668.972656 226.25 C 670.078125 225.34375 671.136719 224.386719 672.144531 223.378906 C 673.15625 222.367188 674.113281 221.308594 675.019531 220.207031 C 675.925781 219.101562 676.777344 217.957031 677.570312 216.769531 C 678.363281 215.582031 679.097656 214.359375 679.769531 213.101562 C 680.445312 211.839844 681.054688 210.550781 681.601562 209.230469 C 682.148438 207.914062 682.628906 206.570312 683.042969 205.203125 C 683.457031 203.835938 683.804688 202.453125 684.082031 201.050781 C 684.359375 199.652344 684.570312 198.242188 684.710938 196.820312 C 684.851562 195.398438 684.921875 193.972656 684.921875 192.546875 Z M 684.921875 192.546875 " fill-opacity="1" fill-rule="nonzero"/><g clip-path="url(#5ee22825be)"><path fill="#488cca" d="M 749.195312 269.257812 L 745.675781 272.773438 L 930.058594 457.09375 L 1235.691406 457.09375 L 1235.691406 452.121094 L 932.121094 452.121094 Z M 749.195312 269.257812 " fill-opacity="1" fill-rule="nonzero"/></g><g clip-path="url(#aa9d4c41db)"><path fill="#488cca" d="M 1234.695312 -59.964844 L 929.0625 -59.964844 L 744.683594 124.355469 L 748.199219 127.871094 L 931.125 -54.992188 L 1234.695312 -54.992188 Z M 1234.695312 -59.964844 " fill-opacity="1" fill-rule="nonzero"/></g><g clip-path="url(#22e9d086e1)"><path fill="#488cca" d="M 1122.792969 42.070312 L 958.964844 42.070312 L 876.476562 153.980469 L 958.964844 265.898438 L 1122.792969 265.898438 L 1205.28125 153.980469 Z M 961.476562 47.042969 L 1120.28125 47.042969 L 1199.109375 153.980469 L 1120.28125 260.925781 L 961.476562 260.925781 L 882.648438 153.980469 Z M 961.476562 47.042969 " fill-opacity="1" fill-rule="nonzero"/></g><path fill="#488cca" d="M 430.53125 76.273438 L 292.625 76.273438 L 223.09375 170.601562 L 292.625 264.933594 L 430.527344 264.933594 L 500.058594 170.601562 Z M 295.140625 81.246094 L 428.019531 81.246094 L 493.886719 170.601562 L 428.015625 259.960938 L 295.140625 259.960938 L 229.277344 170.601562 Z M 295.140625 81.246094 " fill-opacity="1" fill-rule="nonzero"/><g clip-path="url(#bd4b6fbdfe)"><path fill="#488cca" d="M 716.609375 62.902344 L 610.59375 62.902344 L 557.582031 -28.878906 L 610.59375 -120.660156 L 716.609375 -120.660156 L 769.621094 -28.878906 Z M 716.609375 62.902344 " fill-opacity="1" fill-rule="nonzero"/></g><path fill="#488cca" d="M 704.074219 324.082031 L 592.4375 324.082031 L 536.621094 420.726562 L 592.4375 517.375 L 704.074219 517.375 L 759.894531 420.726562 Z M 595.308594 329.054688 L 701.199219 329.054688 L 754.148438 420.726562 L 701.199219 512.402344 L 595.308594 512.402344 L 542.363281 420.726562 Z M 595.308594 329.054688 " fill-opacity="1" fill-rule="nonzero"/><g clip-path="url(#5c01574a50)"><path fill="#488cca" d="M 214.148438 -95.183594 L 118.203125 -95.183594 L 70.226562 -12.121094 L 118.203125 70.945312 L 214.148438 70.945312 L 262.125 -12.121094 Z M 121.078125 -90.210938 L 211.28125 -90.210938 L 256.382812 -12.121094 L 211.28125 65.972656 L 121.078125 65.972656 L 75.972656 -12.121094 Z M 121.078125 -90.210938 " fill-opacity="1" fill-rule="nonzero"/></g><path fill="#488cca" d="M 96.257812 420.152344 L 40.996094 420.152344 L 13.367188 467.992188 L 40.996094 515.835938 L 96.261719 515.835938 L 123.890625 467.992188 Z M 43.867188 425.121094 L 93.386719 425.121094 L 118.148438 467.992188 L 93.386719 510.863281 L 43.867188 510.863281 L 19.105469 467.992188 Z M 43.867188 425.121094 " fill-opacity="1" fill-rule="nonzero"/><g clip-path="url(#48beb05868)"><path fill="#488cca" d="M 994.371094 406.367188 L 944.0625 406.367188 L 918.90625 362.8125 L 944.0625 319.257812 L 994.371094 319.257812 L 1019.523438 362.8125 Z M 994.371094 406.367188 " fill-opacity="1" fill-rule="nonzero"/></g><g clip-path="url(#8d4c983c48)"><path fill="#488cca" d="M 473.253906 441.925781 L 420.070312 441.925781 L 393.480469 487.96875 L 420.070312 534.003906 L 473.253906 534.003906 L 499.84375 487.96875 Z M 422.941406 446.894531 L 470.378906 446.894531 L 494.097656 487.960938 L 470.378906 529.027344 L 422.941406 529.027344 L 399.222656 487.960938 Z M 422.941406 446.894531 " fill-opacity="1" fill-rule="nonzero"/></g><g clip-path="url(#05c8cb93ba)"><path fill="#488cca" d="M 249.664062 -61.566406 L 245.417969 -58.984375 L 273.828125 -12.25 L 245.410156 34.75 L 249.667969 37.320312 L 279.640625 -12.257812 Z M 249.664062 -61.566406 " fill-opacity="1" fill-rule="nonzero"/></g><path fill="#488cca" d="M 115.367188 418.550781 L 111.121094 421.128906 L 139.53125 467.863281 L 111.113281 514.867188 L 115.371094 517.4375 L 145.34375 467.859375 Z M 115.367188 418.550781 " fill-opacity="1" fill-rule="nonzero"/><g clip-path="url(#d86ff5fa44)"><path fill="#488cca" d="M 486.007812 -14.609375 L 276.738281 -14.609375 L 276.738281 -9.636719 L 483.203125 -9.636719 L 556.339844 111.671875 L 560.597656 109.105469 Z M 486.007812 -14.609375 " fill-opacity="1" fill-rule="nonzero"/></g><path fill="#488cca" d="M 556.386719 278.363281 L 487.929688 382.5 L 309.570312 382.5 L 226.535156 465.507812 L 142.441406 465.507812 L 142.441406 470.480469 L 228.59375 470.480469 L 311.628906 387.472656 L 490.617188 387.472656 L 560.546875 281.089844 Z M 556.386719 278.363281 " fill-opacity="1" fill-rule="nonzero"/><g clip-path="url(#32a507c2ea)"><path fill="#488cca" d="M 823.386719 269.53125 L 819.867188 273.046875 L 850.707031 303.875 L 1039.851562 303.875 L 1065.75 329.769531 L 1173.929688 329.769531 L 1227.878906 275.839844 L 1383.105469 275.839844 L 1383.105469 270.867188 L 1225.816406 270.867188 L 1171.871094 324.796875 L 1067.8125 324.796875 L 1041.910156 298.902344 L 852.765625 298.902344 Z M 823.386719 269.53125 " fill-opacity="1" fill-rule="nonzero"/></g><path fill="#488cca" d="M 503.898438 274.101562 L 473.21875 310.550781 L 314.0625 310.550781 L 292.265625 336.441406 L 205.292969 336.441406 L 159.898438 282.519531 L 27.253906 282.519531 L 27.253906 287.492188 L 157.582031 287.492188 L 202.972656 341.414062 L 294.582031 341.414062 L 316.375 315.523438 L 475.535156 315.523438 L 507.703125 277.304688 Z M 503.898438 274.101562 " fill-opacity="1" fill-rule="nonzero"/><g clip-path="url(#99dbe50c8e)"><path fill="#488cca" d="M 1133.765625 -31.363281 L 968.1875 -31.363281 L 816.671875 120.09375 L 820.1875 123.609375 L 970.246094 -26.390625 L 1131.070312 -26.390625 L 1231.882812 128.597656 L 1377.78125 128.597656 L 1377.78125 123.625 L 1234.578125 123.625 Z M 1133.765625 -31.363281 " fill-opacity="1" fill-rule="nonzero"/></g><path fill="#488cca" d="M 473.125 25.867188 L 294.285156 25.867188 L 182.175781 168.117188 L 81.03125 168.117188 L 81.03125 173.089844 L 184.589844 173.089844 L 296.699219 30.839844 L 470.539062 30.839844 L 517.214844 97.484375 L 521.285156 94.632812 Z M 473.125 25.867188 " fill-opacity="1" fill-rule="nonzero"/></g></g></g></svg>