<svg xmlns="http://www.w3.org/2000/svg" xmlns:xlink="http://www.w3.org/1999/xlink" width="1920" zoomAndPan="magnify" viewBox="0 0 1440 809.999993" height="1080" preserveAspectRatio="xMidYMid meet" version="1.0"><defs><filter x="0%" y="0%" width="100%" height="100%" id="90e3e375c6"><feColorMatrix values="0 0 0 0 1 0 0 0 0 1 0 0 0 0 1 0 0 0 1 0" color-interpolation-filters="sRGB"/></filter><mask id="1425237064"><g filter="url(#90e3e375c6)"><rect x="-144" width="1728" fill="#000000" y="-80.999999" height="971.999992" fill-opacity="0.09"/></g></mask><clipPath id="d5e012af15"><path d="M 0.898438 0.75 L 810.148438 0.75 L 810.148438 810 L 0.898438 810 Z M 0.898438 0.75 " clip-rule="nonzero"/></clipPath><clipPath id="533eccc5b6"><path d="M 405.523438 0.75 C 182.054688 0.75 0.898438 181.90625 0.898438 405.375 C 0.898438 628.84375 182.054688 810 405.523438 810 C 628.992188 810 810.148438 628.84375 810.148438 405.375 C 810.148438 181.90625 628.992188 0.75 405.523438 0.75 Z M 405.523438 0.75 " clip-rule="nonzero"/></clipPath><clipPath id="f71b0d40c4"><rect x="0" width="811" y="0" height="810"/></clipPath></defs><g mask="url(#1425237064)"><g transform="matrix(1, 0, 0, 1, 288, 0.000000000000039746)"><g clip-path="url(#f71b0d40c4)"><g clip-path="url(#d5e012af15)"><g clip-path="url(#533eccc5b6)"><path fill="#0b1924" d="M 0.898438 0.75 L 810.148438 0.75 L 810.148438 810 L 0.898438 810 Z M 0.898438 0.75 " fill-opacity="1" fill-rule="nonzero"/></g></g></g></g></g><path fill="#e53935" d="M 886.878906 200.984375 C 881.808594 200.984375 877.691406 196.867188 877.691406 191.796875 L 877.691406 173.417969 C 877.691406 168.347656 881.808594 164.230469 886.878906 164.230469 C 891.953125 164.230469 896.066406 168.347656 896.066406 173.417969 L 896.066406 191.796875 C 896.066406 196.867188 891.953125 200.984375 886.878906 200.984375 Z M 886.878906 200.984375 " fill-opacity="1" fill-rule="nonzero"/><path fill="#e53935" d="M 886.878906 292.867188 C 881.808594 292.867188 877.691406 288.75 877.691406 283.679688 L 877.691406 265.304688 C 877.691406 260.230469 881.808594 256.113281 886.878906 256.113281 C 891.953125 256.113281 896.066406 260.230469 896.066406 265.304688 L 896.066406 283.679688 C 896.066406 288.75 891.953125 292.867188 886.878906 292.867188 Z M 886.878906 292.867188 " fill-opacity="1" fill-rule="nonzero"/><path fill="#e53935" d="M 850.128906 237.738281 L 831.753906 237.738281 C 826.683594 237.738281 822.566406 233.621094 822.566406 228.550781 C 822.566406 223.476562 826.683594 219.359375 831.753906 219.359375 L 850.128906 219.359375 C 855.199219 219.359375 859.316406 223.476562 859.316406 228.550781 C 859.316406 233.621094 855.199219 237.738281 850.128906 237.738281 Z M 850.128906 237.738281 " fill-opacity="1" fill-rule="nonzero"/><path fill="#e53935" d="M 925.863281 276.722656 C 923.511719 276.722656 921.160156 275.824219 919.367188 274.03125 L 906.378906 261.039062 C 902.785156 257.445312 902.785156 251.640625 906.378906 248.046875 C 909.96875 244.453125 915.777344 244.453125 919.367188 248.046875 L 932.359375 261.039062 C 935.953125 264.632812 935.953125 270.4375 932.359375 274.03125 C 930.558594 275.824219 928.214844 276.722656 925.863281 276.722656 Z M 925.863281 276.722656 " fill-opacity="1" fill-rule="nonzero"/><path fill="#e53935" d="M 912.871094 211.742188 C 910.519531 211.742188 908.167969 210.84375 906.378906 209.050781 C 902.785156 205.457031 902.785156 199.652344 906.378906 196.058594 L 919.367188 183.066406 C 922.960938 179.472656 928.769531 179.472656 932.359375 183.066406 C 935.953125 186.660156 935.953125 192.464844 932.359375 196.058594 L 919.367188 209.050781 C 917.566406 210.851562 915.214844 211.742188 912.871094 211.742188 Z M 912.871094 211.742188 " fill-opacity="1" fill-rule="nonzero"/><path fill="#ff7373" d="M 923.632812 228.550781 C 923.632812 229.753906 923.574219 230.953125 923.453125 232.152344 C 923.335938 233.347656 923.160156 234.539062 922.925781 235.71875 C 922.691406 236.898438 922.398438 238.066406 922.050781 239.21875 C 921.699219 240.371094 921.292969 241.503906 920.835938 242.613281 C 920.375 243.726562 919.859375 244.8125 919.292969 245.875 C 918.726562 246.9375 918.105469 247.96875 917.4375 248.96875 C 916.769531 249.96875 916.054688 250.933594 915.289062 251.867188 C 914.527344 252.796875 913.71875 253.6875 912.867188 254.539062 C 912.015625 255.390625 911.125 256.195312 910.195312 256.960938 C 909.265625 257.722656 908.300781 258.441406 907.296875 259.109375 C 906.296875 259.777344 905.265625 260.394531 904.203125 260.964844 C 903.144531 261.53125 902.054688 262.042969 900.945312 262.503906 C 899.832031 262.964844 898.699219 263.371094 897.546875 263.71875 C 896.398438 264.070312 895.230469 264.363281 894.050781 264.597656 C 892.871094 264.832031 891.679688 265.007812 890.484375 265.125 C 889.285156 265.242188 888.085938 265.304688 886.878906 265.304688 C 885.675781 265.304688 884.476562 265.242188 883.277344 265.125 C 882.082031 265.007812 880.890625 264.832031 879.710938 264.597656 C 878.53125 264.363281 877.363281 264.070312 876.210938 263.71875 C 875.058594 263.371094 873.929688 262.964844 872.816406 262.503906 C 871.703125 262.042969 870.617188 261.53125 869.554688 260.964844 C 868.496094 260.394531 867.464844 259.777344 866.460938 259.109375 C 865.460938 258.441406 864.496094 257.722656 863.566406 256.960938 C 862.636719 256.195312 861.746094 255.390625 860.894531 254.539062 C 860.042969 253.6875 859.234375 252.796875 858.472656 251.867188 C 857.707031 250.933594 856.992188 249.96875 856.324219 248.96875 C 855.652344 247.96875 855.035156 246.9375 854.46875 245.875 C 853.902344 244.8125 853.386719 243.726562 852.925781 242.613281 C 852.464844 241.503906 852.0625 240.371094 851.710938 239.21875 C 851.363281 238.066406 851.070312 236.898438 850.835938 235.71875 C 850.601562 234.539062 850.425781 233.347656 850.304688 232.152344 C 850.1875 230.953125 850.128906 229.753906 850.128906 228.550781 C 850.128906 227.34375 850.1875 226.144531 850.304688 224.945312 C 850.425781 223.75 850.601562 222.558594 850.835938 221.378906 C 851.070312 220.199219 851.363281 219.03125 851.710938 217.878906 C 852.0625 216.726562 852.464844 215.597656 852.925781 214.484375 C 853.386719 213.371094 853.902344 212.285156 854.46875 211.222656 C 855.035156 210.160156 855.652344 209.128906 856.324219 208.128906 C 856.992188 207.128906 857.707031 206.164062 858.472656 205.234375 C 859.234375 204.300781 860.042969 203.410156 860.894531 202.558594 C 861.746094 201.710938 862.636719 200.902344 863.566406 200.136719 C 864.496094 199.375 865.460938 198.660156 866.460938 197.988281 C 867.464844 197.320312 868.496094 196.703125 869.554688 196.136719 C 870.617188 195.566406 871.703125 195.054688 872.816406 194.59375 C 873.929688 194.132812 875.058594 193.726562 876.210938 193.378906 C 877.363281 193.027344 878.53125 192.738281 879.710938 192.5 C 880.890625 192.265625 882.082031 192.089844 883.277344 191.972656 C 884.476562 191.855469 885.675781 191.796875 886.878906 191.796875 C 888.085938 191.796875 889.285156 191.855469 890.484375 191.972656 C 891.679688 192.089844 892.871094 192.265625 894.050781 192.5 C 895.230469 192.738281 896.398438 193.027344 897.546875 193.378906 C 898.699219 193.726562 899.832031 194.132812 900.945312 194.59375 C 902.054688 195.054688 903.144531 195.566406 904.203125 196.136719 C 905.265625 196.703125 906.296875 197.320312 907.296875 197.988281 C 908.300781 198.660156 909.265625 199.375 910.195312 200.136719 C 911.125 200.902344 912.015625 201.710938 912.867188 202.558594 C 913.71875 203.410156 914.527344 204.300781 915.289062 205.234375 C 916.054688 206.164062 916.769531 207.128906 917.4375 208.128906 C 918.105469 209.128906 918.726562 210.160156 919.292969 211.222656 C 919.859375 212.285156 920.375 213.371094 920.835938 214.484375 C 921.292969 215.597656 921.699219 216.726562 922.050781 217.878906 C 922.398438 219.03125 922.691406 220.199219 922.925781 221.378906 C 923.160156 222.558594 923.335938 223.75 923.453125 224.945312 C 923.574219 226.144531 923.632812 227.34375 923.632812 228.550781 Z M 923.632812 228.550781 " fill-opacity="1" fill-rule="nonzero"/><path fill="#ef5350" d="M 913.324219 238.859375 C 893.027344 238.859375 876.570312 222.402344 876.570312 202.105469 C 876.570312 198.960938 877.085938 195.96875 877.832031 193.054688 C 861.9375 197.105469 850.128906 211.394531 850.128906 228.550781 C 850.128906 248.847656 866.585938 265.304688 886.878906 265.304688 C 904.035156 265.304688 918.320312 253.496094 922.371094 237.601562 C 919.460938 238.34375 916.464844 238.859375 913.324219 238.859375 Z M 913.324219 238.859375 " fill-opacity="1" fill-rule="nonzero"/><path fill="#e53935" d="M 942.007812 237.738281 L 914.445312 237.738281 C 909.371094 237.738281 905.257812 233.621094 905.257812 228.550781 C 905.257812 223.476562 909.371094 219.359375 914.445312 219.359375 L 942.007812 219.359375 C 947.078125 219.359375 951.195312 223.476562 951.195312 228.550781 C 951.195312 233.621094 947.078125 237.738281 942.007812 237.738281 Z M 942.007812 237.738281 " fill-opacity="1" fill-rule="nonzero"/><path fill="#e53935" d="M 867.394531 218.25 C 865.042969 218.25 862.6875 217.347656 860.898438 215.558594 L 841.402344 196.058594 C 837.808594 192.464844 837.808594 186.660156 841.402344 183.066406 C 844.992188 179.472656 850.800781 179.472656 854.390625 183.066406 L 873.890625 202.5625 C 877.480469 206.15625 877.480469 211.964844 873.890625 215.558594 C 872.097656 217.347656 869.746094 218.25 867.394531 218.25 Z M 867.394531 218.25 " fill-opacity="1" fill-rule="nonzero"/><path fill="#e53935" d="M 847.898438 276.722656 C 845.542969 276.722656 843.191406 275.824219 841.402344 274.03125 C 837.808594 270.4375 837.808594 264.632812 841.402344 261.039062 L 860.898438 241.542969 C 864.488281 237.949219 870.296875 237.949219 873.890625 241.542969 C 877.480469 245.132812 877.480469 250.941406 873.890625 254.535156 L 854.390625 274.03125 C 852.601562 275.824219 850.25 276.722656 847.898438 276.722656 Z M 847.898438 276.722656 " fill-opacity="1" fill-rule="nonzero"/><path fill="#ef5350" d="M 896.066406 228.550781 C 896.066406 229.152344 896.007812 229.75 895.890625 230.339844 C 895.773438 230.933594 895.601562 231.507812 895.367188 232.066406 C 895.136719 232.621094 894.855469 233.152344 894.519531 233.652344 C 894.183594 234.15625 893.804688 234.621094 893.378906 235.046875 C 892.949219 235.472656 892.488281 235.855469 891.984375 236.1875 C 891.484375 236.523438 890.953125 236.808594 890.394531 237.039062 C 889.839844 237.269531 889.265625 237.441406 888.671875 237.5625 C 888.082031 237.679688 887.484375 237.738281 886.878906 237.738281 C 886.277344 237.738281 885.679688 237.679688 885.089844 237.5625 C 884.496094 237.441406 883.921875 237.269531 883.363281 237.039062 C 882.808594 236.808594 882.277344 236.523438 881.777344 236.1875 C 881.273438 235.855469 880.808594 235.472656 880.382812 235.046875 C 879.957031 234.621094 879.574219 234.15625 879.242188 233.652344 C 878.90625 233.152344 878.621094 232.621094 878.390625 232.066406 C 878.160156 231.507812 877.988281 230.933594 877.871094 230.339844 C 877.75 229.75 877.691406 229.152344 877.691406 228.550781 C 877.691406 227.945312 877.75 227.347656 877.871094 226.757812 C 877.988281 226.164062 878.160156 225.589844 878.390625 225.03125 C 878.621094 224.476562 878.90625 223.945312 879.242188 223.445312 C 879.574219 222.941406 879.957031 222.476562 880.382812 222.050781 C 880.808594 221.625 881.273438 221.246094 881.777344 220.910156 C 882.277344 220.574219 882.808594 220.289062 883.363281 220.058594 C 883.921875 219.828125 884.496094 219.65625 885.089844 219.539062 C 885.679688 219.417969 886.277344 219.359375 886.878906 219.359375 C 887.484375 219.359375 888.082031 219.417969 888.671875 219.539062 C 889.265625 219.65625 889.839844 219.828125 890.394531 220.058594 C 890.953125 220.289062 891.484375 220.574219 891.984375 220.910156 C 892.488281 221.246094 892.949219 221.625 893.378906 222.050781 C 893.804688 222.476562 894.183594 222.941406 894.519531 223.445312 C 894.855469 223.945312 895.136719 224.476562 895.367188 225.03125 C 895.601562 225.589844 895.773438 226.164062 895.890625 226.757812 C 896.007812 227.347656 896.066406 227.945312 896.066406 228.550781 Z M 896.066406 228.550781 " fill-opacity="1" fill-rule="nonzero"/><path fill="#e53935" d="M 894.433594 233.484375 C 889.304688 230.386719 885.042969 226.125 881.945312 220.996094 C 879.449219 222.640625 877.691406 225.332031 877.691406 228.550781 C 877.691406 233.621094 881.808594 237.738281 886.878906 237.738281 C 890.097656 237.738281 892.789062 235.984375 894.433594 233.484375 Z M 894.433594 233.484375 " fill-opacity="1" fill-rule="nonzero"/><path fill="#e53935" d="M 491.804688 586.898438 C 486.734375 586.898438 482.617188 582.78125 482.617188 577.710938 L 482.617188 559.332031 C 482.617188 554.261719 486.734375 550.144531 491.804688 550.144531 C 496.875 550.144531 500.992188 554.261719 500.992188 559.332031 L 500.992188 577.710938 C 500.992188 582.78125 496.875 586.898438 491.804688 586.898438 Z M 491.804688 586.898438 " fill-opacity="1" fill-rule="nonzero"/><path fill="#e53935" d="M 491.804688 678.78125 C 486.734375 678.78125 482.617188 674.664062 482.617188 669.59375 L 482.617188 651.214844 C 482.617188 646.144531 486.734375 642.027344 491.804688 642.027344 C 496.875 642.027344 500.992188 646.144531 500.992188 651.214844 L 500.992188 669.59375 C 500.992188 674.664062 496.875 678.78125 491.804688 678.78125 Z M 491.804688 678.78125 " fill-opacity="1" fill-rule="nonzero"/><path fill="#e53935" d="M 455.054688 623.652344 L 436.675781 623.652344 C 431.605469 623.652344 427.488281 619.535156 427.488281 614.464844 C 427.488281 609.390625 431.605469 605.273438 436.675781 605.273438 L 455.054688 605.273438 C 460.125 605.273438 464.242188 609.390625 464.242188 614.464844 C 464.242188 619.535156 460.125 623.652344 455.054688 623.652344 Z M 455.054688 623.652344 " fill-opacity="1" fill-rule="nonzero"/><path fill="#e53935" d="M 530.789062 662.636719 C 528.4375 662.636719 526.085938 661.738281 524.292969 659.945312 L 511.300781 646.953125 C 507.707031 643.359375 507.707031 637.554688 511.300781 633.960938 C 514.894531 630.367188 520.699219 630.367188 524.292969 633.960938 L 537.285156 646.953125 C 540.875 650.546875 540.875 656.351562 537.285156 659.945312 C 535.484375 661.738281 533.140625 662.636719 530.789062 662.636719 Z M 530.789062 662.636719 " fill-opacity="1" fill-rule="nonzero"/><path fill="#e53935" d="M 517.796875 597.65625 C 515.445312 597.65625 513.09375 596.757812 511.300781 594.964844 C 507.707031 591.371094 507.707031 585.566406 511.300781 581.972656 L 524.292969 568.980469 C 527.886719 565.386719 533.691406 565.386719 537.285156 568.980469 C 540.875 572.574219 540.875 578.378906 537.285156 581.972656 L 524.292969 594.964844 C 522.492188 596.765625 520.140625 597.65625 517.796875 597.65625 Z M 517.796875 597.65625 " fill-opacity="1" fill-rule="nonzero"/><path fill="#ff7373" d="M 528.554688 614.464844 C 528.554688 615.667969 528.496094 616.867188 528.378906 618.066406 C 528.261719 619.261719 528.085938 620.453125 527.847656 621.632812 C 527.613281 622.8125 527.324219 623.980469 526.972656 625.132812 C 526.625 626.285156 526.21875 627.414062 525.757812 628.527344 C 525.296875 629.640625 524.785156 630.726562 524.214844 631.789062 C 523.648438 632.851562 523.03125 633.882812 522.363281 634.882812 C 521.691406 635.882812 520.976562 636.847656 520.214844 637.78125 C 519.449219 638.710938 518.640625 639.601562 517.792969 640.453125 C 516.941406 641.304688 516.050781 642.109375 515.117188 642.875 C 514.1875 643.636719 513.222656 644.355469 512.222656 645.023438 C 511.222656 645.691406 510.191406 646.308594 509.128906 646.875 C 508.066406 647.445312 506.980469 647.957031 505.867188 648.417969 C 504.757812 648.878906 503.625 649.285156 502.472656 649.632812 C 501.320312 649.984375 500.15625 650.277344 498.972656 650.511719 C 497.792969 650.746094 496.605469 650.921875 495.40625 651.039062 C 494.207031 651.15625 493.007812 651.214844 491.804688 651.214844 C 490.601562 651.214844 489.398438 651.15625 488.203125 651.039062 C 487.003906 650.921875 485.816406 650.746094 484.632812 650.511719 C 483.453125 650.277344 482.289062 649.984375 481.136719 649.632812 C 479.984375 649.285156 478.851562 648.878906 477.742188 648.417969 C 476.628906 647.957031 475.542969 647.445312 474.480469 646.875 C 473.417969 646.308594 472.386719 645.691406 471.386719 645.023438 C 470.386719 644.355469 469.421875 643.636719 468.488281 642.875 C 467.558594 642.109375 466.667969 641.304688 465.816406 640.453125 C 464.964844 639.601562 464.160156 638.710938 463.394531 637.78125 C 462.632812 636.847656 461.914062 635.882812 461.246094 634.882812 C 460.578125 633.882812 459.960938 632.851562 459.394531 631.789062 C 458.824219 630.726562 458.3125 629.640625 457.851562 628.527344 C 457.390625 627.414062 456.984375 626.285156 456.636719 625.132812 C 456.285156 623.980469 455.992188 622.8125 455.757812 621.632812 C 455.523438 620.453125 455.347656 619.261719 455.230469 618.066406 C 455.113281 616.867188 455.054688 615.667969 455.054688 614.464844 C 455.054688 613.257812 455.113281 612.058594 455.230469 610.859375 C 455.347656 609.664062 455.523438 608.472656 455.757812 607.292969 C 455.992188 606.113281 456.285156 604.945312 456.636719 603.792969 C 456.984375 602.640625 457.390625 601.511719 457.851562 600.398438 C 458.3125 599.285156 458.824219 598.199219 459.394531 597.136719 C 459.960938 596.074219 460.578125 595.042969 461.246094 594.042969 C 461.914062 593.042969 462.632812 592.078125 463.394531 591.148438 C 464.160156 590.214844 464.964844 589.324219 465.816406 588.472656 C 466.667969 587.625 467.558594 586.816406 468.488281 586.050781 C 469.421875 585.289062 470.386719 584.570312 471.386719 583.902344 C 472.386719 583.234375 473.417969 582.617188 474.480469 582.050781 C 475.542969 581.480469 476.628906 580.96875 477.742188 580.507812 C 478.851562 580.046875 479.984375 579.640625 481.136719 579.292969 C 482.289062 578.941406 483.453125 578.652344 484.632812 578.414062 C 485.816406 578.179688 487.003906 578.003906 488.203125 577.886719 C 489.398438 577.769531 490.601562 577.710938 491.804688 577.710938 C 493.007812 577.710938 494.207031 577.769531 495.40625 577.886719 C 496.605469 578.003906 497.792969 578.179688 498.972656 578.414062 C 500.15625 578.652344 501.320312 578.941406 502.472656 579.292969 C 503.625 579.640625 504.757812 580.046875 505.867188 580.507812 C 506.980469 580.96875 508.066406 581.480469 509.128906 582.050781 C 510.191406 582.617188 511.222656 583.234375 512.222656 583.902344 C 513.222656 584.570312 514.1875 585.289062 515.117188 586.050781 C 516.050781 586.816406 516.941406 587.625 517.792969 588.472656 C 518.640625 589.324219 519.449219 590.214844 520.214844 591.148438 C 520.976562 592.078125 521.691406 593.042969 522.363281 594.042969 C 523.03125 595.042969 523.648438 596.074219 524.214844 597.136719 C 524.785156 598.199219 525.296875 599.285156 525.757812 600.398438 C 526.21875 601.511719 526.625 602.640625 526.972656 603.792969 C 527.324219 604.945312 527.613281 606.113281 527.847656 607.292969 C 528.085938 608.472656 528.261719 609.664062 528.378906 610.859375 C 528.496094 612.058594 528.554688 613.257812 528.554688 614.464844 Z M 528.554688 614.464844 " fill-opacity="1" fill-rule="nonzero"/><path fill="#ef5350" d="M 518.246094 624.773438 C 497.949219 624.773438 481.496094 608.316406 481.496094 588.019531 C 481.496094 584.875 482.011719 581.882812 482.753906 578.96875 C 466.859375 583.019531 455.054688 597.308594 455.054688 614.464844 C 455.054688 634.761719 471.507812 651.214844 491.804688 651.214844 C 508.957031 651.214844 523.246094 639.410156 527.296875 623.515625 C 524.382812 624.257812 521.390625 624.773438 518.246094 624.773438 Z M 518.246094 624.773438 " fill-opacity="1" fill-rule="nonzero"/><path fill="#e53935" d="M 546.929688 623.652344 L 519.367188 623.652344 C 514.296875 623.652344 510.179688 619.535156 510.179688 614.464844 C 510.179688 609.390625 514.296875 605.273438 519.367188 605.273438 L 546.929688 605.273438 C 552.003906 605.273438 556.117188 609.390625 556.117188 614.464844 C 556.117188 619.535156 552.003906 623.652344 546.929688 623.652344 Z M 546.929688 623.652344 " fill-opacity="1" fill-rule="nonzero"/><path fill="#e53935" d="M 472.316406 604.164062 C 469.964844 604.164062 467.613281 603.261719 465.820312 601.46875 L 446.324219 581.972656 C 442.730469 578.378906 442.730469 572.574219 446.324219 568.980469 C 449.917969 565.386719 455.722656 565.386719 459.316406 568.980469 L 478.8125 588.476562 C 482.40625 592.070312 482.40625 597.878906 478.8125 601.46875 C 477.019531 603.261719 474.667969 604.164062 472.316406 604.164062 Z M 472.316406 604.164062 " fill-opacity="1" fill-rule="nonzero"/><path fill="#e53935" d="M 452.820312 662.636719 C 450.46875 662.636719 448.117188 661.738281 446.324219 659.945312 C 442.730469 656.351562 442.730469 650.546875 446.324219 646.953125 L 465.820312 627.457031 C 469.414062 623.863281 475.21875 623.863281 478.8125 627.457031 C 482.40625 631.046875 482.40625 636.855469 478.8125 640.449219 L 459.316406 659.945312 C 457.523438 661.738281 455.171875 662.636719 452.820312 662.636719 Z M 452.820312 662.636719 " fill-opacity="1" fill-rule="nonzero"/><path fill="#ef5350" d="M 500.992188 614.464844 C 500.992188 615.066406 500.933594 615.664062 500.816406 616.253906 C 500.699219 616.847656 500.523438 617.421875 500.292969 617.980469 C 500.0625 618.535156 499.777344 619.066406 499.445312 619.566406 C 499.109375 620.070312 498.726562 620.535156 498.300781 620.960938 C 497.875 621.386719 497.410156 621.769531 496.910156 622.101562 C 496.40625 622.4375 495.878906 622.722656 495.320312 622.953125 C 494.761719 623.183594 494.1875 623.355469 493.597656 623.476562 C 493.003906 623.59375 492.40625 623.652344 491.804688 623.652344 C 491.199219 623.652344 490.605469 623.59375 490.011719 623.476562 C 489.421875 623.355469 488.84375 623.183594 488.289062 622.953125 C 487.730469 622.722656 487.203125 622.4375 486.699219 622.101562 C 486.199219 621.769531 485.734375 621.386719 485.308594 620.960938 C 484.882812 620.535156 484.5 620.070312 484.164062 619.566406 C 483.828125 619.066406 483.546875 618.535156 483.316406 617.980469 C 483.085938 617.421875 482.910156 616.847656 482.792969 616.253906 C 482.675781 615.664062 482.617188 615.066406 482.617188 614.464844 C 482.617188 613.859375 482.675781 613.261719 482.792969 612.671875 C 482.910156 612.078125 483.085938 611.503906 483.316406 610.945312 C 483.546875 610.390625 483.828125 609.859375 484.164062 609.359375 C 484.5 608.855469 484.882812 608.390625 485.308594 607.964844 C 485.734375 607.539062 486.199219 607.160156 486.699219 606.824219 C 487.203125 606.488281 487.730469 606.203125 488.289062 605.972656 C 488.84375 605.742188 489.421875 605.570312 490.011719 605.453125 C 490.605469 605.332031 491.199219 605.273438 491.804688 605.273438 C 492.40625 605.273438 493.003906 605.332031 493.597656 605.449219 C 494.1875 605.570312 494.761719 605.742188 495.320312 605.972656 C 495.878906 606.203125 496.40625 606.488281 496.910156 606.824219 C 497.410156 607.160156 497.875 607.539062 498.300781 607.964844 C 498.726562 608.390625 499.109375 608.855469 499.445312 609.359375 C 499.777344 609.859375 500.0625 610.390625 500.292969 610.945312 C 500.523438 611.503906 500.699219 612.078125 500.816406 612.671875 C 500.933594 613.261719 500.992188 613.859375 500.992188 614.464844 Z M 500.992188 614.464844 " fill-opacity="1" fill-rule="nonzero"/><path fill="#e53935" d="M 499.355469 619.398438 C 494.230469 616.300781 489.964844 612.039062 486.871094 606.910156 C 484.371094 608.554688 482.617188 611.246094 482.617188 614.464844 C 482.617188 619.535156 486.734375 623.652344 491.804688 623.652344 C 495.019531 623.652344 497.710938 621.898438 499.355469 619.398438 Z M 499.355469 619.398438 " fill-opacity="1" fill-rule="nonzero"/><path fill="#e53935" d="M 951.195312 155.042969 C 951.195312 155.644531 951.136719 156.242188 951.019531 156.835938 C 950.902344 157.425781 950.726562 158 950.496094 158.558594 C 950.265625 159.117188 949.980469 159.644531 949.648438 160.144531 C 949.3125 160.648438 948.929688 161.113281 948.503906 161.539062 C 948.078125 161.964844 947.613281 162.347656 947.113281 162.679688 C 946.609375 163.015625 946.082031 163.300781 945.523438 163.53125 C 944.964844 163.761719 944.390625 163.9375 943.800781 164.054688 C 943.207031 164.171875 942.609375 164.230469 942.007812 164.230469 C 941.402344 164.230469 940.804688 164.171875 940.214844 164.054688 C 939.625 163.9375 939.046875 163.761719 938.492188 163.53125 C 937.933594 163.300781 937.40625 163.015625 936.902344 162.679688 C 936.402344 162.347656 935.9375 161.964844 935.511719 161.539062 C 935.085938 161.113281 934.703125 160.648438 934.367188 160.144531 C 934.03125 159.644531 933.75 159.117188 933.519531 158.558594 C 933.289062 158 933.113281 157.425781 932.996094 156.835938 C 932.878906 156.242188 932.820312 155.644531 932.820312 155.042969 C 932.820312 154.4375 932.878906 153.839844 932.996094 153.25 C 933.113281 152.65625 933.289062 152.082031 933.519531 151.527344 C 933.75 150.96875 934.03125 150.4375 934.367188 149.9375 C 934.703125 149.433594 935.085938 148.972656 935.511719 148.542969 C 935.9375 148.117188 936.402344 147.738281 936.902344 147.402344 C 937.40625 147.066406 937.933594 146.785156 938.492188 146.550781 C 939.046875 146.320312 939.625 146.148438 940.214844 146.03125 C 940.804688 145.910156 941.402344 145.851562 942.007812 145.851562 C 942.609375 145.851562 943.207031 145.910156 943.800781 146.03125 C 944.390625 146.148438 944.964844 146.320312 945.523438 146.550781 C 946.082031 146.785156 946.609375 147.066406 947.113281 147.402344 C 947.613281 147.738281 948.078125 148.117188 948.503906 148.542969 C 948.929688 148.972656 949.3125 149.433594 949.648438 149.9375 C 949.980469 150.4375 950.265625 150.96875 950.496094 151.527344 C 950.726562 152.082031 950.902344 152.65625 951.019531 153.25 C 951.136719 153.839844 951.195312 154.4375 951.195312 155.042969 Z M 951.195312 155.042969 " fill-opacity="1" fill-rule="nonzero"/><path fill="#e53935" d="M 896.066406 357.1875 C 896.066406 357.789062 896.007812 358.386719 895.890625 358.980469 C 895.773438 359.570312 895.601562 360.144531 895.367188 360.703125 C 895.136719 361.261719 894.855469 361.789062 894.519531 362.292969 C 894.183594 362.792969 893.804688 363.257812 893.378906 363.683594 C 892.949219 364.109375 892.488281 364.492188 891.984375 364.828125 C 891.484375 365.164062 890.953125 365.445312 890.394531 365.675781 C 889.839844 365.90625 889.265625 366.082031 888.671875 366.199219 C 888.082031 366.316406 887.484375 366.375 886.878906 366.375 C 886.277344 366.375 885.679688 366.316406 885.089844 366.199219 C 884.496094 366.082031 883.921875 365.90625 883.363281 365.675781 C 882.808594 365.445312 882.277344 365.164062 881.777344 364.828125 C 881.273438 364.492188 880.808594 364.109375 880.382812 363.683594 C 879.957031 363.257812 879.574219 362.792969 879.242188 362.292969 C 878.90625 361.789062 878.621094 361.261719 878.390625 360.703125 C 878.160156 360.144531 877.988281 359.570312 877.871094 358.980469 C 877.75 358.386719 877.691406 357.789062 877.691406 357.1875 C 877.691406 356.582031 877.75 355.984375 877.871094 355.394531 C 877.988281 354.804688 878.160156 354.226562 878.390625 353.671875 C 878.621094 353.113281 878.90625 352.582031 879.242188 352.082031 C 879.574219 351.582031 879.957031 351.117188 880.382812 350.691406 C 880.808594 350.261719 881.273438 349.882812 881.777344 349.546875 C 882.277344 349.210938 882.808594 348.929688 883.363281 348.699219 C 883.921875 348.46875 884.496094 348.292969 885.089844 348.175781 C 885.679688 348.058594 886.277344 348 886.878906 348 C 887.484375 348 888.082031 348.058594 888.671875 348.175781 C 889.265625 348.292969 889.839844 348.46875 890.394531 348.699219 C 890.953125 348.929688 891.484375 349.210938 891.984375 349.546875 C 892.488281 349.882812 892.949219 350.261719 893.378906 350.691406 C 893.804688 351.117188 894.183594 351.582031 894.519531 352.082031 C 894.855469 352.582031 895.136719 353.113281 895.367188 353.671875 C 895.601562 354.226562 895.773438 354.804688 895.890625 355.394531 C 896.007812 355.984375 896.066406 356.582031 896.066406 357.1875 Z M 896.066406 357.1875 " fill-opacity="1" fill-rule="nonzero"/><path fill="#e53935" d="M 951.195312 320.433594 C 951.195312 321.035156 951.136719 321.632812 951.019531 322.226562 C 950.902344 322.816406 950.726562 323.390625 950.496094 323.949219 C 950.265625 324.507812 949.980469 325.035156 949.648438 325.539062 C 949.3125 326.039062 948.929688 326.503906 948.503906 326.929688 C 948.078125 327.355469 947.613281 327.738281 947.113281 328.074219 C 946.609375 328.410156 946.082031 328.691406 945.523438 328.921875 C 944.964844 329.152344 944.390625 329.328125 943.800781 329.445312 C 943.207031 329.5625 942.609375 329.621094 942.007812 329.621094 C 941.402344 329.621094 940.804688 329.5625 940.214844 329.445312 C 939.625 329.328125 939.046875 329.152344 938.492188 328.921875 C 937.933594 328.691406 937.40625 328.410156 936.902344 328.074219 C 936.402344 327.738281 935.9375 327.355469 935.511719 326.929688 C 935.085938 326.503906 934.703125 326.039062 934.367188 325.539062 C 934.03125 325.035156 933.75 324.507812 933.519531 323.949219 C 933.289062 323.390625 933.113281 322.816406 932.996094 322.226562 C 932.878906 321.632812 932.820312 321.035156 932.820312 320.433594 C 932.820312 319.828125 932.878906 319.234375 932.996094 318.640625 C 933.113281 318.050781 933.289062 317.472656 933.519531 316.917969 C 933.75 316.359375 934.03125 315.832031 934.367188 315.328125 C 934.703125 314.828125 935.085938 314.363281 935.511719 313.9375 C 935.9375 313.507812 936.402344 313.128906 936.902344 312.792969 C 937.40625 312.457031 937.933594 312.175781 938.492188 311.945312 C 939.046875 311.714844 939.625 311.539062 940.214844 311.421875 C 940.804688 311.304688 941.402344 311.246094 942.007812 311.246094 C 942.609375 311.246094 943.207031 311.304688 943.800781 311.421875 C 944.390625 311.539062 944.964844 311.714844 945.523438 311.945312 C 946.082031 312.175781 946.609375 312.457031 947.113281 312.792969 C 947.613281 313.128906 948.078125 313.507812 948.503906 313.9375 C 948.929688 314.363281 949.3125 314.828125 949.648438 315.328125 C 949.980469 315.832031 950.265625 316.359375 950.496094 316.917969 C 950.726562 317.472656 950.902344 318.050781 951.019531 318.640625 C 951.136719 319.234375 951.195312 319.828125 951.195312 320.433594 Z M 951.195312 320.433594 " fill-opacity="1" fill-rule="nonzero"/><path fill="#ef5350" d="M 812.855469 652.566406 C 819.3125 668.152344 838.414062 674.675781 853.34375 665.144531 C 862.945312 659.027344 867.816406 646.933594 865.199219 635.855469 C 863.433594 628.363281 858.96875 622.539062 853.214844 618.882812 C 843.53125 612.726562 837.3125 602.351562 834.886719 591.132812 L 821.59375 529.597656 C 801.910156 525.703125 781.828125 534.027344 770.664062 550.695312 L 804.777344 603.621094 C 811.089844 613.414062 813.636719 625.285156 811.320312 636.707031 C 810.273438 641.855469 810.6875 647.339844 812.855469 652.566406 Z M 812.855469 652.566406 " fill-opacity="1" fill-rule="nonzero"/><path fill="#e53935" d="M 834.886719 591.152344 L 821.582031 529.597656 C 801.902344 525.703125 781.816406 534.027344 770.65625 550.695312 L 778.214844 562.429688 C 794.828125 561.4375 810.648438 572.351562 814.398438 589.691406 C 816.859375 601.085938 823.449219 611.273438 833.167969 617.714844 C 837.542969 620.609375 841.125 624.789062 843.292969 630.011719 C 849.402344 644.765625 841.65625 661.628906 826.15625 666.652344 C 831.644531 669.355469 837.964844 670.347656 844.046875 668.996094 C 861.339844 665.175781 870.242188 647.054688 863.78125 631.472656 C 861.625 626.25 858.03125 622.070312 853.65625 619.175781 C 843.945312 612.734375 837.347656 602.535156 834.886719 591.152344 Z M 834.886719 591.152344 " fill-opacity="1" fill-rule="nonzero"/><path fill="#ef5350" d="M 943.339844 439.378906 C 958.921875 432.917969 965.445312 413.816406 955.917969 398.882812 C 949.796875 389.28125 937.707031 384.414062 926.628906 387.03125 C 919.140625 388.796875 913.3125 393.261719 909.65625 399.011719 C 903.5 408.699219 893.128906 414.917969 881.910156 417.34375 L 820.378906 430.640625 C 816.484375 450.320312 824.808594 470.40625 841.472656 481.570312 L 894.394531 447.453125 C 904.191406 441.140625 916.0625 438.597656 927.480469 440.910156 C 932.625 441.960938 938.121094 441.546875 943.339844 439.378906 Z M 943.339844 439.378906 " fill-opacity="1" fill-rule="nonzero"/><path fill="#e53935" d="M 894.40625 447.464844 L 841.484375 481.578125 C 824.816406 470.417969 816.492188 450.332031 820.386719 430.648438 L 834.03125 427.699219 C 845.074219 440.148438 863.984375 443.613281 878.886719 434.003906 C 888.679688 427.691406 900.550781 425.136719 911.972656 427.460938 C 917.117188 428.507812 922.601562 428.085938 927.820312 425.925781 C 942.578125 419.816406 949.019531 402.414062 941.613281 387.894531 C 947.402344 389.859375 952.5625 393.628906 955.917969 398.894531 C 965.4375 413.824219 958.921875 432.925781 943.339844 439.386719 C 938.121094 441.546875 932.625 441.96875 927.492188 440.921875 C 916.070312 438.597656 904.199219 441.140625 894.40625 447.464844 Z M 894.40625 447.464844 " fill-opacity="1" fill-rule="nonzero"/><path fill="#ef5350" d="M 730.171875 652.566406 C 723.714844 668.152344 704.613281 674.675781 689.683594 665.144531 C 680.082031 659.027344 675.210938 646.933594 677.832031 635.855469 C 679.59375 628.363281 684.058594 622.539062 689.8125 618.882812 C 699.496094 612.726562 705.714844 602.351562 708.140625 591.132812 L 721.433594 529.597656 C 741.117188 525.703125 761.199219 534.027344 772.363281 550.695312 L 738.25 603.621094 C 731.9375 613.414062 729.390625 625.285156 731.707031 636.707031 C 732.753906 641.855469 732.332031 647.339844 730.171875 652.566406 Z M 730.171875 652.566406 " fill-opacity="1" fill-rule="nonzero"/><path fill="#e53935" d="M 738.25 603.621094 L 772.363281 550.695312 C 761.199219 534.027344 741.117188 525.703125 721.433594 529.597656 L 718.484375 543.242188 C 730.9375 554.289062 734.398438 573.199219 724.789062 588.101562 C 718.476562 597.894531 715.921875 609.769531 718.246094 621.1875 C 719.292969 626.335938 718.871094 631.820312 716.714844 637.039062 C 710.601562 651.796875 693.203125 658.238281 678.683594 650.832031 C 680.652344 656.621094 684.417969 661.785156 689.683594 665.136719 C 704.613281 674.65625 723.714844 668.140625 730.171875 652.558594 C 732.332031 647.339844 732.753906 641.84375 731.707031 636.707031 C 729.390625 625.285156 731.9375 613.425781 738.25 603.621094 Z M 738.25 603.621094 " fill-opacity="1" fill-rule="nonzero"/><path fill="#e53935" d="M 808.800781 611.273438 C 815.554688 609.839844 822.1875 607.765625 828.683594 605.035156 C 831.863281 603.675781 834.988281 602.242188 837.972656 600.679688 C 836.613281 597.628906 835.628906 594.441406 834.921875 591.132812 L 821.996094 531.160156 L 821.609375 529.597656 C 821.152344 529.535156 820.636719 529.40625 820.113281 529.40625 C 804.136719 526.675781 788.082031 531.941406 776.847656 543.179688 C 774.898438 545.128906 773.082031 547.203125 771.519531 549.546875 C 771.195312 549.867188 770.929688 550.261719 770.671875 550.648438 L 771.519531 552.007812 L 804.777344 603.59375 C 806.332031 606.074219 807.699219 608.609375 808.800781 611.273438 Z M 808.800781 611.273438 " fill-opacity="1" fill-rule="nonzero"/><path fill="#e53935" d="M 833.875 475.351562 C 835.824219 477.296875 838.039062 479.117188 840.371094 480.679688 C 840.691406 481 841.089844 481.269531 841.472656 481.523438 L 842.835938 480.679688 L 894.351562 447.480469 C 895.132812 446.957031 896.039062 446.445312 896.886719 445.984375 C 896.5625 444.882812 896.234375 443.90625 895.785156 442.933594 C 891.953125 433.644531 887.148438 425.199219 881.550781 417.398438 L 821.914062 430.261719 L 820.351562 430.648438 C 820.289062 431.109375 820.160156 431.621094 820.160156 432.144531 C 817.503906 448.070312 822.703125 464.175781 833.875 475.351562 Z M 833.875 475.351562 " fill-opacity="1" fill-rule="nonzero"/><path fill="#e53935" d="M 708.234375 590.609375 C 717.007812 597.042969 726.617188 602.242188 736.816406 606.074219 C 737.273438 605.230469 737.726562 604.382812 738.25 603.601562 L 771.507812 552.019531 L 772.355469 550.660156 C 772.097656 550.273438 771.832031 549.878906 771.507812 549.554688 C 769.945312 547.214844 768.128906 545.136719 766.179688 543.1875 C 754.945312 531.949219 738.890625 526.6875 722.914062 529.414062 C 722.390625 529.414062 721.875 529.542969 721.417969 529.609375 L 721.03125 531.171875 Z M 708.234375 590.609375 " fill-opacity="1" fill-rule="nonzero"/><path fill="#ef5350" d="M 465.628906 417.820312 C 450.046875 424.28125 431.925781 415.378906 428.105469 398.085938 C 425.644531 386.964844 430.75 374.976562 440.433594 368.996094 C 446.976562 364.953125 454.253906 363.988281 460.898438 365.464844 C 472.097656 367.964844 483.828125 365.023438 493.476562 358.804688 L 546.390625 324.695312 C 563.054688 335.859375 571.378906 355.945312 567.484375 375.628906 L 505.933594 388.933594 C 494.542969 391.394531 484.351562 397.984375 477.914062 407.703125 C 475.027344 412.078125 470.847656 415.664062 465.628906 417.820312 Z M 465.628906 417.820312 " fill-opacity="1" fill-rule="nonzero"/><path fill="#e53935" d="M 568.46875 365.859375 C 568.46875 368.617188 568.191406 371.464844 567.640625 374.222656 C 567.640625 374.683594 567.546875 375.140625 567.457031 375.601562 L 565.894531 375.96875 L 505.992188 388.925781 C 505.070312 389.109375 504.0625 389.382812 503.140625 389.660156 C 502.589844 388.648438 502.132812 387.730469 501.765625 386.71875 C 497.90625 377.4375 495.332031 368.066406 493.769531 358.601562 L 545.039062 325.523438 L 546.417969 324.695312 C 546.785156 324.972656 547.242188 325.25 547.609375 325.617188 C 560.75 334.988281 568.46875 350.058594 568.46875 365.859375 Z M 568.46875 365.859375 " fill-opacity="1" fill-rule="nonzero"/><path fill="#e53935" d="M 505.945312 388.933594 L 567.492188 375.628906 C 571.390625 355.945312 563.066406 335.859375 546.398438 324.695312 L 534.664062 332.257812 C 535.65625 348.871094 524.742188 364.695312 507.40625 368.441406 C 496.011719 370.90625 485.824219 377.492188 479.382812 387.214844 C 476.488281 391.589844 472.308594 395.171875 467.089844 397.339844 C 452.332031 403.449219 435.472656 395.703125 430.449219 380.203125 C 427.746094 385.691406 426.753906 392.011719 428.105469 398.09375 C 431.925781 415.386719 450.046875 424.289062 465.628906 417.832031 C 470.847656 415.671875 475.027344 412.078125 477.921875 407.703125 C 484.363281 397.984375 494.550781 391.394531 505.945312 388.933594 Z M 505.945312 388.933594 " fill-opacity="1" fill-rule="nonzero"/><path fill="#ef5350" d="M 575.019531 153.710938 C 568.558594 138.125 549.457031 131.601562 534.527344 141.128906 C 524.925781 147.25 520.058594 159.34375 522.675781 170.421875 C 524.441406 177.910156 528.90625 183.738281 534.65625 187.394531 C 544.339844 193.550781 550.558594 203.925781 552.984375 215.144531 L 566.28125 276.679688 C 585.960938 280.574219 606.046875 272.25 617.207031 255.582031 L 583.09375 202.65625 C 576.78125 192.859375 574.238281 180.988281 576.554688 169.570312 C 577.601562 164.421875 577.1875 158.929688 575.019531 153.710938 Z M 575.019531 153.710938 " fill-opacity="1" fill-rule="nonzero"/><path fill="#e53935" d="M 552.984375 215.125 L 566.289062 276.679688 C 585.96875 280.574219 606.054688 272.25 617.21875 255.582031 L 609.65625 243.847656 C 593.042969 244.839844 577.222656 233.925781 573.476562 216.585938 C 571.011719 205.191406 564.425781 195.003906 554.703125 188.5625 C 550.332031 185.667969 546.746094 181.484375 544.578125 176.265625 C 538.46875 161.511719 546.214844 144.648438 561.714844 139.625 C 556.230469 136.921875 549.90625 135.929688 543.824219 137.28125 C 526.535156 141.101562 517.632812 159.222656 524.089844 174.804688 C 526.25 180.023438 529.84375 184.207031 534.214844 187.101562 C 543.925781 193.542969 550.523438 203.730469 552.984375 215.125 Z M 552.984375 215.125 " fill-opacity="1" fill-rule="nonzero"/><path fill="#ef5350" d="M 708.628906 174.804688 C 715.085938 159.222656 706.183594 141.101562 688.890625 137.28125 C 677.773438 134.816406 665.785156 139.925781 659.804688 149.609375 C 655.761719 156.152344 654.796875 163.429688 656.277344 170.074219 C 658.773438 181.273438 655.835938 193.007812 649.613281 202.65625 L 615.507812 255.570312 C 626.671875 272.238281 646.757812 280.566406 666.4375 276.667969 L 679.742188 215.117188 C 682.203125 203.722656 688.792969 193.53125 698.511719 187.089844 C 702.886719 184.207031 706.46875 180.023438 708.628906 174.804688 Z M 708.628906 174.804688 " fill-opacity="1" fill-rule="nonzero"/><path fill="#e53935" d="M 679.742188 215.125 L 666.4375 276.679688 C 646.757812 280.574219 626.671875 272.25 615.507812 255.582031 L 623.070312 243.847656 C 639.683594 244.839844 655.503906 233.925781 659.253906 216.585938 C 661.714844 205.191406 668.300781 195.003906 678.023438 188.5625 C 682.394531 185.667969 685.980469 181.484375 688.148438 176.265625 C 694.257812 161.511719 686.511719 144.648438 671.011719 139.625 C 676.496094 136.921875 682.820312 135.929688 688.902344 137.28125 C 706.191406 141.101562 715.097656 159.222656 708.636719 174.804688 C 706.476562 180.023438 702.886719 184.207031 698.511719 187.101562 C 688.792969 193.542969 682.203125 203.730469 679.742188 215.125 Z M 679.742188 215.125 " fill-opacity="1" fill-rule="nonzero"/><path fill="#e53935" d="M 617.253906 255.601562 C 616.980469 255.96875 616.703125 256.425781 616.429688 256.792969 C 606.964844 269.933594 591.894531 277.652344 576 277.652344 C 573.246094 277.652344 570.398438 277.375 567.640625 276.824219 C 567.179688 276.824219 566.722656 276.734375 566.261719 276.640625 L 565.894531 275.078125 L 556.429688 230.882812 C 560.472656 228.492188 564.609375 226.472656 568.925781 224.726562 C 576.738281 221.511719 584.730469 219.121094 592.632812 217.558594 L 616.335938 254.222656 Z M 617.253906 255.601562 " fill-opacity="1" fill-rule="nonzero"/><path fill="#e53935" d="M 676.332031 230.792969 L 666.777344 275.078125 L 666.410156 276.640625 C 665.949219 276.734375 665.492188 276.824219 665.03125 276.824219 C 662.273438 277.375 659.425781 277.652344 656.671875 277.652344 C 640.867188 277.652344 625.800781 269.933594 616.429688 256.792969 C 616.058594 256.425781 615.785156 255.96875 615.507812 255.601562 L 616.335938 254.222656 L 639.949219 217.652344 C 652.71875 220.039062 665.03125 224.542969 676.332031 230.792969 Z M 676.332031 230.792969 " fill-opacity="1" fill-rule="nonzero"/><path fill="#e53935" d="M 831.476562 385.945312 L 821.921875 430.234375 L 821.554688 431.796875 C 821.097656 431.890625 820.636719 431.980469 820.175781 431.980469 C 817.421875 432.53125 814.574219 432.808594 811.816406 432.808594 C 796.011719 432.808594 780.945312 425.089844 771.574219 411.949219 C 771.207031 411.582031 770.929688 411.125 770.65625 410.753906 L 771.480469 409.378906 L 795.09375 372.808594 C 807.867188 375.195312 820.175781 379.699219 831.476562 385.945312 Z M 831.476562 385.945312 " fill-opacity="1" fill-rule="nonzero"/><path fill="#ff7373" d="M 857.121094 392.09375 C 833.324219 366.707031 800.605469 355.222656 768.699219 357.546875 C 748.347656 359.035156 731.734375 342.972656 730.449219 322.609375 C 728.804688 296.570312 717.972656 271.007812 697.933594 251.199219 C 656.585938 210.320312 588.351562 209.105469 545.664062 248.578125 C 499.4375 291.324219 498.375 363.480469 542.464844 407.585938 C 566.152344 431.273438 597.90625 441.875 628.859375 439.480469 C 648.234375 437.972656 665.621094 453.078125 666.5 472.492188 C 667.707031 499 678.417969 525.160156 698.667969 545.410156 C 742.75 589.5 814.867188 588.449219 857.617188 542.269531 C 896.34375 500.425781 896.113281 433.699219 857.121094 392.09375 Z M 857.121094 392.09375 " fill-opacity="1" fill-rule="nonzero"/><path fill="#ef5350" d="M 762.984375 471.90625 C 742.734375 451.652344 732.019531 425.492188 730.816406 398.984375 C 729.933594 379.570312 712.550781 364.464844 693.171875 365.972656 C 662.21875 368.371094 630.46875 357.765625 606.78125 334.078125 C 578.042969 305.335938 568.613281 264.695312 578.242188 228.023438 C 566.484375 232.804688 555.394531 239.585938 545.664062 248.570312 C 499.4375 291.316406 498.375 363.472656 542.464844 407.578125 C 566.152344 431.265625 597.90625 441.867188 628.859375 439.46875 C 648.234375 437.960938 665.621094 453.066406 666.5 472.484375 C 667.707031 498.992188 678.417969 525.152344 698.667969 545.402344 C 742.75 589.488281 814.867188 588.441406 857.617188 542.261719 C 870.066406 528.808594 878.4375 512.773438 882.835938 495.851562 C 842.933594 512.242188 795.386719 504.320312 762.984375 471.90625 Z M 762.984375 471.90625 " fill-opacity="1" fill-rule="nonzero"/><path fill="#e53935" d="M 613.039062 439.433594 L 617.21875 395.519531 L 591.253906 435.8125 C 598.402344 437.761719 605.6875 438.953125 613.039062 439.433594 Z M 613.039062 439.433594 " fill-opacity="1" fill-rule="nonzero"/><path fill="#e53935" d="M 857.121094 392.09375 C 848.539062 382.941406 838.773438 375.664062 828.335938 370.113281 L 821.59375 431.84375 L 864.488281 400.90625 C 862.191406 397.875 859.765625 394.914062 857.121094 392.09375 Z M 857.121094 392.09375 " fill-opacity="1" fill-rule="nonzero"/><path fill="#ef5350" d="M 679.742188 358.609375 C 675.5625 350.652344 666.445312 345.757812 657.820312 348.273438 C 654.742188 349.175781 652.113281 350.773438 650.019531 352.832031 C 642.761719 359.980469 644.902344 372.320312 653.527344 377.742188 C 679.648438 394.160156 699.257812 419.136719 709.003906 448.402344 C 712.890625 457.773438 723.640625 462.230469 733.011719 458.34375 C 742.382812 454.457031 746.839844 443.707031 742.953125 434.332031 L 742.429688 433.929688 C 716.511719 413.632812 695.1875 388.050781 679.878906 358.90625 Z M 679.742188 358.609375 " fill-opacity="1" fill-rule="nonzero"/><path fill="#e53935" d="M 733.757812 335.898438 C 731.957031 331.800781 730.75 327.34375 730.457031 322.621094 C 729.933594 314.332031 728.371094 306.109375 725.984375 298.085938 L 686.328125 326.40625 Z M 733.757812 335.898438 " fill-opacity="1" fill-rule="nonzero"/><path fill="#ef5350" d="M 639.101562 264.0625 C 639.101562 264.664062 639.074219 265.265625 639.015625 265.863281 C 638.957031 266.460938 638.867188 267.058594 638.75 267.648438 C 638.632812 268.238281 638.488281 268.820312 638.3125 269.398438 C 638.136719 269.972656 637.933594 270.539062 637.703125 271.09375 C 637.472656 271.652344 637.21875 272.195312 636.933594 272.726562 C 636.648438 273.257812 636.339844 273.773438 636.007812 274.273438 C 635.671875 274.773438 635.3125 275.253906 634.933594 275.71875 C 634.550781 276.1875 634.148438 276.632812 633.722656 277.058594 C 633.296875 277.480469 632.851562 277.886719 632.386719 278.269531 C 631.921875 278.648438 631.4375 279.007812 630.9375 279.34375 C 630.4375 279.675781 629.921875 279.984375 629.390625 280.269531 C 628.859375 280.554688 628.316406 280.808594 627.761719 281.039062 C 627.203125 281.269531 626.636719 281.472656 626.0625 281.648438 C 625.484375 281.824219 624.902344 281.96875 624.3125 282.085938 C 623.722656 282.203125 623.128906 282.292969 622.527344 282.351562 C 621.929688 282.410156 621.328125 282.4375 620.726562 282.4375 C 620.125 282.4375 619.527344 282.410156 618.925781 282.351562 C 618.328125 282.292969 617.734375 282.203125 617.144531 282.085938 C 616.550781 281.96875 615.96875 281.824219 615.394531 281.648438 C 614.816406 281.472656 614.25 281.269531 613.695312 281.039062 C 613.140625 280.808594 612.597656 280.554688 612.066406 280.269531 C 611.535156 279.984375 611.019531 279.675781 610.519531 279.34375 C 610.019531 279.007812 609.535156 278.648438 609.070312 278.269531 C 608.605469 277.886719 608.160156 277.480469 607.734375 277.058594 C 607.308594 276.632812 606.90625 276.1875 606.523438 275.71875 C 606.140625 275.253906 605.785156 274.773438 605.449219 274.273438 C 605.113281 273.773438 604.804688 273.257812 604.523438 272.726562 C 604.238281 272.195312 603.980469 271.652344 603.75 271.09375 C 603.519531 270.539062 603.316406 269.972656 603.144531 269.398438 C 602.96875 268.820312 602.824219 268.238281 602.707031 267.648438 C 602.585938 267.058594 602.5 266.460938 602.441406 265.863281 C 602.382812 265.265625 602.351562 264.664062 602.351562 264.0625 C 602.351562 263.460938 602.382812 262.859375 602.441406 262.261719 C 602.5 261.664062 602.585938 261.066406 602.707031 260.476562 C 602.824219 259.886719 602.96875 259.304688 603.144531 258.726562 C 603.316406 258.152344 603.519531 257.585938 603.75 257.03125 C 603.980469 256.472656 604.238281 255.929688 604.523438 255.398438 C 604.804688 254.867188 605.113281 254.351562 605.449219 253.851562 C 605.785156 253.351562 606.140625 252.871094 606.523438 252.402344 C 606.90625 251.9375 607.308594 251.492188 607.734375 251.066406 C 608.160156 250.640625 608.605469 250.238281 609.070312 249.855469 C 609.535156 249.476562 610.019531 249.117188 610.519531 248.78125 C 611.019531 248.449219 611.535156 248.140625 612.066406 247.855469 C 612.597656 247.570312 613.140625 247.316406 613.695312 247.085938 C 614.25 246.855469 614.816406 246.652344 615.394531 246.476562 C 615.96875 246.300781 616.550781 246.15625 617.144531 246.039062 C 617.734375 245.921875 618.328125 245.832031 618.925781 245.773438 C 619.527344 245.714844 620.125 245.683594 620.726562 245.683594 C 621.328125 245.683594 621.929688 245.714844 622.527344 245.773438 C 623.128906 245.832031 623.722656 245.921875 624.3125 246.039062 C 624.902344 246.15625 625.484375 246.300781 626.0625 246.476562 C 626.636719 246.652344 627.203125 246.855469 627.761719 247.085938 C 628.316406 247.316406 628.859375 247.570312 629.390625 247.855469 C 629.921875 248.140625 630.4375 248.449219 630.9375 248.78125 C 631.4375 249.117188 631.921875 249.476562 632.386719 249.855469 C 632.851562 250.238281 633.296875 250.640625 633.722656 251.066406 C 634.148438 251.492188 634.550781 251.9375 634.933594 252.402344 C 635.3125 252.871094 635.671875 253.351562 636.007812 253.851562 C 636.339844 254.351562 636.648438 254.867188 636.933594 255.398438 C 637.21875 255.929688 637.472656 256.472656 637.703125 257.03125 C 637.933594 257.585938 638.136719 258.152344 638.3125 258.726562 C 638.488281 259.304688 638.632812 259.886719 638.75 260.476562 C 638.867188 261.066406 638.957031 261.664062 639.015625 262.261719 C 639.074219 262.859375 639.101562 263.460938 639.101562 264.0625 Z M 639.101562 264.0625 " fill-opacity="1" fill-rule="nonzero"/><path fill="#ff7373" d="M 788.195312 284.203125 C 803.777344 277.742188 810.300781 258.640625 800.773438 243.710938 C 794.652344 234.109375 782.5625 229.238281 771.480469 231.855469 C 763.992188 233.621094 758.167969 238.085938 754.511719 243.839844 C 748.355469 253.523438 737.984375 259.742188 726.765625 262.167969 L 665.234375 275.464844 C 661.339844 295.148438 669.660156 315.234375 686.328125 326.398438 L 739.25 292.28125 C 749.042969 285.96875 760.914062 283.421875 772.335938 285.738281 C 777.480469 286.785156 782.964844 286.371094 788.195312 284.203125 Z M 788.195312 284.203125 " fill-opacity="1" fill-rule="nonzero"/><path fill="#ef5350" d="M 739.25 292.289062 L 686.328125 326.40625 C 669.664062 315.242188 661.339844 295.15625 665.234375 275.472656 L 678.878906 272.523438 C 689.921875 284.976562 708.828125 288.4375 723.734375 278.828125 C 733.527344 272.515625 745.398438 269.960938 756.816406 272.285156 C 761.964844 273.332031 767.449219 272.910156 772.667969 270.75 C 787.421875 264.640625 793.863281 247.238281 786.457031 232.71875 C 792.246094 234.6875 797.410156 238.453125 800.761719 243.71875 C 810.28125 258.652344 803.765625 277.753906 788.183594 284.210938 C 782.964844 286.371094 777.472656 286.792969 772.335938 285.746094 C 760.914062 283.421875 749.054688 285.96875 739.25 292.289062 Z M 739.25 292.289062 " fill-opacity="1" fill-rule="nonzero"/><path fill="#e53935" d="M 514.304688 300.144531 C 511.117188 311.667969 509.8125 323.574219 510.4375 335.429688 L 546.398438 326.398438 Z M 514.304688 300.144531 " fill-opacity="1" fill-rule="nonzero"/><path fill="#ff7373" d="M 465.628906 233.273438 C 450.046875 226.8125 431.925781 235.714844 428.105469 253.007812 C 425.644531 264.125 430.75 276.117188 440.433594 282.097656 C 446.976562 286.140625 454.253906 287.105469 460.898438 285.628906 C 472.097656 283.128906 483.828125 286.070312 493.476562 292.289062 L 546.390625 326.398438 C 563.054688 315.234375 571.378906 295.148438 567.484375 275.464844 L 505.933594 262.160156 C 494.542969 259.699219 484.351562 253.109375 477.914062 243.386719 C 475.027344 239.023438 470.847656 235.441406 465.628906 233.273438 Z M 465.628906 233.273438 " fill-opacity="1" fill-rule="nonzero"/><path fill="#ef5350" d="M 493.46875 292.289062 L 546.390625 326.40625 C 563.054688 315.242188 571.378906 295.15625 567.484375 275.472656 L 553.839844 272.523438 C 542.796875 284.976562 523.886719 288.4375 508.984375 278.828125 C 499.191406 272.515625 487.320312 269.960938 475.898438 272.285156 C 470.753906 273.332031 465.269531 272.910156 460.050781 270.75 C 445.296875 264.640625 438.855469 247.238281 446.261719 232.71875 C 440.472656 234.6875 435.308594 238.453125 431.953125 243.71875 C 422.4375 258.652344 428.949219 277.753906 444.53125 284.210938 C 449.75 286.371094 455.246094 286.792969 460.382812 285.746094 C 471.800781 283.421875 483.671875 285.96875 493.46875 292.289062 Z M 493.46875 292.289062 " fill-opacity="1" fill-rule="nonzero"/><path fill="#ff7373" d="M 575.019531 497.394531 C 568.558594 512.976562 549.457031 519.5 534.527344 509.972656 C 524.925781 503.851562 520.058594 491.761719 522.675781 480.679688 C 524.441406 473.191406 528.90625 467.367188 534.65625 463.707031 C 544.339844 457.550781 550.558594 447.179688 552.984375 435.960938 L 566.28125 374.425781 C 585.960938 370.527344 606.046875 378.851562 617.207031 395.519531 L 583.09375 448.445312 C 576.78125 458.242188 574.238281 470.113281 576.554688 481.535156 C 577.601562 486.679688 577.1875 492.164062 575.019531 497.394531 Z M 575.019531 497.394531 " fill-opacity="1" fill-rule="nonzero"/><path fill="#ef5350" d="M 583.105469 448.445312 L 617.21875 395.519531 C 606.054688 378.851562 585.96875 370.527344 566.289062 374.425781 L 563.339844 388.070312 C 575.789062 399.113281 579.253906 418.023438 569.644531 432.925781 C 563.332031 442.722656 560.777344 454.59375 563.101562 466.015625 C 564.148438 471.160156 563.726562 476.644531 561.566406 481.863281 C 555.457031 496.621094 538.054688 503.0625 523.539062 495.65625 C 525.503906 501.445312 529.273438 506.609375 534.535156 509.964844 C 549.46875 519.480469 568.570312 512.96875 575.027344 497.382812 C 577.1875 492.164062 577.609375 486.671875 576.5625 481.535156 C 574.238281 470.113281 576.78125 458.25 583.105469 448.445312 Z M 583.105469 448.445312 " fill-opacity="1" fill-rule="nonzero"/><path fill="#e53935" d="M 785.519531 542.207031 C 785.519531 542.808594 785.492188 543.40625 785.433594 544.007812 C 785.371094 544.605469 785.285156 545.199219 785.167969 545.789062 C 785.050781 546.378906 784.902344 546.964844 784.730469 547.539062 C 784.554688 548.117188 784.351562 548.683594 784.121094 549.238281 C 783.890625 549.792969 783.632812 550.335938 783.351562 550.867188 C 783.066406 551.398438 782.757812 551.914062 782.421875 552.414062 C 782.089844 552.914062 781.730469 553.398438 781.347656 553.863281 C 780.96875 554.328125 780.5625 554.773438 780.136719 555.199219 C 779.710938 555.625 779.265625 556.027344 778.800781 556.410156 C 778.335938 556.792969 777.855469 557.152344 777.355469 557.484375 C 776.851562 557.820312 776.335938 558.128906 775.808594 558.414062 C 775.277344 558.695312 774.734375 558.953125 774.175781 559.183594 C 773.621094 559.414062 773.054688 559.617188 772.480469 559.789062 C 771.902344 559.964844 771.320312 560.113281 770.730469 560.230469 C 770.140625 560.347656 769.542969 560.433594 768.945312 560.492188 C 768.347656 560.550781 767.746094 560.582031 767.144531 560.582031 C 766.542969 560.582031 765.941406 560.550781 765.34375 560.492188 C 764.746094 560.433594 764.148438 560.347656 763.558594 560.230469 C 762.96875 560.113281 762.386719 559.964844 761.8125 559.789062 C 761.234375 559.617188 760.667969 559.414062 760.113281 559.183594 C 759.558594 558.953125 759.011719 558.695312 758.484375 558.414062 C 757.953125 558.128906 757.4375 557.820312 756.9375 557.484375 C 756.433594 557.152344 755.953125 556.792969 755.488281 556.410156 C 755.023438 556.027344 754.578125 555.625 754.152344 555.199219 C 753.726562 554.773438 753.320312 554.328125 752.941406 553.863281 C 752.558594 553.398438 752.199219 552.914062 751.867188 552.414062 C 751.53125 551.914062 751.222656 551.398438 750.9375 550.867188 C 750.65625 550.335938 750.398438 549.792969 750.167969 549.238281 C 749.9375 548.683594 749.734375 548.117188 749.558594 547.539062 C 749.386719 546.964844 749.238281 546.378906 749.121094 545.789062 C 749.003906 545.199219 748.917969 544.605469 748.859375 544.007812 C 748.796875 543.40625 748.769531 542.808594 748.769531 542.207031 C 748.769531 541.601562 748.796875 541.003906 748.859375 540.402344 C 748.917969 539.804688 749.003906 539.210938 749.121094 538.621094 C 749.238281 538.03125 749.386719 537.445312 749.558594 536.871094 C 749.734375 536.292969 749.9375 535.730469 750.167969 535.171875 C 750.398438 534.617188 750.65625 534.074219 750.9375 533.542969 C 751.222656 533.011719 751.53125 532.496094 751.867188 531.996094 C 752.199219 531.496094 752.558594 531.011719 752.941406 530.546875 C 753.320312 530.082031 753.726562 529.636719 754.152344 529.210938 C 754.578125 528.785156 755.023438 528.382812 755.488281 528 C 755.953125 527.617188 756.433594 527.261719 756.9375 526.925781 C 757.4375 526.589844 757.953125 526.28125 758.484375 526 C 759.011719 525.714844 759.558594 525.457031 760.113281 525.226562 C 760.667969 524.996094 761.234375 524.792969 761.8125 524.621094 C 762.386719 524.445312 762.96875 524.300781 763.558594 524.179688 C 764.148438 524.0625 764.746094 523.976562 765.34375 523.917969 C 765.941406 523.859375 766.542969 523.828125 767.144531 523.828125 C 767.746094 523.828125 768.347656 523.859375 768.945312 523.917969 C 769.542969 523.976562 770.140625 524.0625 770.730469 524.179688 C 771.320312 524.300781 771.902344 524.445312 772.480469 524.621094 C 773.054688 524.792969 773.621094 524.996094 774.175781 525.226562 C 774.734375 525.457031 775.277344 525.714844 775.808594 526 C 776.335938 526.28125 776.851562 526.589844 777.355469 526.925781 C 777.855469 527.261719 778.335938 527.617188 778.800781 528 C 779.265625 528.382812 779.710938 528.785156 780.136719 529.210938 C 780.5625 529.636719 780.96875 530.082031 781.347656 530.546875 C 781.730469 531.011719 782.089844 531.496094 782.421875 531.996094 C 782.757812 532.496094 783.066406 533.011719 783.351562 533.542969 C 783.632812 534.074219 783.890625 534.617188 784.121094 535.171875 C 784.351562 535.730469 784.554688 536.292969 784.730469 536.871094 C 784.902344 537.445312 785.050781 538.03125 785.167969 538.621094 C 785.285156 539.210938 785.375 539.804688 785.433594 540.402344 C 785.492188 541.003906 785.519531 541.601562 785.519531 542.207031 Z M 785.519531 542.207031 " fill-opacity="1" fill-rule="nonzero"/><path fill="#ff7373" d="M 812.855469 308.882812 C 819.3125 293.300781 838.414062 286.777344 853.34375 296.304688 C 862.945312 302.425781 867.816406 314.515625 865.199219 325.597656 C 863.433594 333.085938 858.96875 338.910156 853.214844 342.566406 C 843.53125 348.722656 837.3125 359.097656 834.886719 370.316406 L 821.59375 431.851562 C 801.910156 435.75 781.828125 427.421875 770.664062 410.753906 L 804.777344 357.832031 C 811.089844 348.035156 813.636719 336.164062 811.320312 324.742188 C 810.273438 319.597656 810.6875 314.101562 812.855469 308.882812 Z M 812.855469 308.882812 " fill-opacity="1" fill-rule="nonzero"/><path fill="#ef5350" d="M 834.886719 370.300781 L 821.582031 431.851562 C 801.902344 435.75 781.816406 427.421875 770.65625 410.753906 L 778.214844 399.023438 C 794.828125 400.015625 810.648438 389.097656 814.398438 371.761719 C 816.859375 360.367188 823.449219 350.175781 833.167969 343.734375 C 837.542969 340.839844 841.125 336.660156 843.292969 331.441406 C 849.402344 316.683594 841.65625 299.824219 826.15625 294.796875 C 831.644531 292.097656 837.964844 291.105469 844.046875 292.453125 C 861.339844 296.277344 870.242188 314.398438 863.78125 329.980469 C 861.625 335.199219 858.03125 339.378906 853.65625 342.273438 C 843.945312 348.714844 837.347656 358.90625 834.886719 370.300781 Z M 834.886719 370.300781 " fill-opacity="1" fill-rule="nonzero"/><path fill="#e53935" d="M 722.601562 530.847656 L 708.546875 554.1875 C 705.054688 551.523438 701.746094 548.582031 698.621094 545.457031 C 696.140625 542.886719 693.753906 540.3125 691.457031 537.554688 Z M 722.601562 530.847656 " fill-opacity="1" fill-rule="nonzero"/><path fill="#e53935" d="M 866.574219 531.03125 C 863.910156 534.890625 860.878906 538.660156 857.570312 542.242188 C 854.078125 546.007812 850.40625 549.5 846.546875 552.625 L 820.359375 530.847656 Z M 866.574219 531.03125 " fill-opacity="1" fill-rule="nonzero"/><path fill="#ff7373" d="M 620.78125 572.996094 C 605.199219 579.457031 587.082031 570.550781 583.261719 553.257812 C 580.796875 542.140625 585.90625 530.148438 595.589844 524.167969 C 602.132812 520.125 609.410156 519.160156 616.050781 520.640625 C 627.25 523.140625 638.984375 520.199219 648.632812 513.976562 L 701.542969 479.871094 C 718.210938 491.035156 726.535156 511.121094 722.640625 530.800781 L 661.089844 544.105469 C 649.695312 546.570312 639.507812 553.15625 633.066406 562.878906 C 630.171875 567.253906 626 570.835938 620.78125 572.996094 Z M 620.78125 572.996094 " fill-opacity="1" fill-rule="nonzero"/><path fill="#ef5350" d="M 661.089844 544.105469 L 722.640625 530.800781 C 726.535156 511.121094 718.210938 491.035156 701.542969 479.871094 L 689.8125 487.433594 C 690.804688 504.046875 679.886719 519.867188 662.550781 523.617188 C 651.15625 526.078125 640.96875 532.667969 634.527344 542.390625 C 631.632812 546.761719 627.453125 550.347656 622.234375 552.515625 C 607.480469 558.625 590.621094 550.878906 585.59375 535.378906 C 582.890625 540.863281 581.898438 547.183594 583.25 553.269531 C 587.074219 570.5625 605.191406 579.464844 620.773438 573.003906 C 625.992188 570.84375 630.171875 567.253906 633.066406 562.878906 C 639.507812 553.15625 649.695312 546.570312 661.089844 544.105469 Z M 661.089844 544.105469 " fill-opacity="1" fill-rule="nonzero"/><path fill="#ff7373" d="M 922.246094 572.996094 C 937.828125 579.457031 955.945312 570.550781 959.765625 553.257812 C 962.230469 542.140625 957.121094 530.148438 947.4375 524.167969 C 940.894531 520.125 933.617188 519.160156 926.976562 520.640625 C 915.777344 523.140625 904.042969 520.199219 894.394531 513.976562 L 841.484375 479.871094 C 824.816406 491.035156 816.492188 511.121094 820.386719 530.800781 L 881.9375 544.105469 C 893.332031 546.570312 903.519531 553.15625 909.960938 562.878906 C 912.84375 567.253906 917.027344 570.835938 922.246094 572.996094 Z M 922.246094 572.996094 " fill-opacity="1" fill-rule="nonzero"/><path fill="#ef5350" d="M 881.929688 544.105469 L 820.378906 530.800781 C 816.484375 511.121094 824.808594 491.035156 841.472656 479.871094 L 853.207031 487.433594 C 852.214844 504.046875 863.128906 519.867188 880.46875 523.617188 C 891.859375 526.078125 902.050781 532.667969 908.488281 542.390625 C 911.382812 546.761719 915.566406 550.347656 920.785156 552.515625 C 935.539062 558.625 952.398438 550.878906 957.425781 535.378906 C 960.125 540.863281 961.117188 547.183594 959.765625 553.269531 C 955.945312 570.5625 937.828125 579.464844 922.246094 573.003906 C 917.027344 570.84375 912.84375 567.253906 909.949219 562.878906 C 903.511719 553.15625 893.320312 546.570312 881.929688 544.105469 Z M 881.929688 544.105469 " fill-opacity="1" fill-rule="nonzero"/><path fill="#e53935" d="M 709.011719 448.402344 C 712.898438 457.78125 723.648438 462.230469 733.019531 458.34375 C 738.570312 456.046875 742.335938 451.324219 743.726562 445.917969 C 740.785156 440.425781 738.324219 434.738281 736.382812 428.910156 C 715.34375 411.261719 697.613281 390.035156 683.976562 366.199219 C 671.167969 366.128906 658.386719 363.886719 646.222656 359.375 C 644.394531 366.027344 647.1875 373.746094 653.527344 377.730469 C 679.660156 394.152344 699.265625 419.125 709.011719 448.402344 Z M 709.011719 448.402344 " fill-opacity="1" fill-rule="nonzero"/><path fill="#e53935" d="M 580.347656 319.816406 C 580.347656 320.421875 580.289062 321.019531 580.171875 321.609375 C 580.054688 322.203125 579.878906 322.777344 579.648438 323.332031 C 579.417969 323.890625 579.132812 324.421875 578.800781 324.921875 C 578.464844 325.425781 578.082031 325.886719 577.65625 326.316406 C 577.230469 326.742188 576.765625 327.121094 576.265625 327.457031 C 575.761719 327.792969 575.234375 328.074219 574.675781 328.308594 C 574.117188 328.539062 573.542969 328.710938 572.953125 328.828125 C 572.359375 328.949219 571.761719 329.007812 571.160156 329.007812 C 570.554688 329.007812 569.957031 328.949219 569.367188 328.828125 C 568.773438 328.710938 568.199219 328.539062 567.644531 328.308594 C 567.085938 328.074219 566.554688 327.792969 566.054688 327.457031 C 565.554688 327.121094 565.089844 326.742188 564.664062 326.316406 C 564.234375 325.886719 563.855469 325.425781 563.519531 324.921875 C 563.183594 324.421875 562.902344 323.890625 562.671875 323.332031 C 562.441406 322.777344 562.265625 322.203125 562.148438 321.609375 C 562.03125 321.019531 561.972656 320.421875 561.972656 319.816406 C 561.972656 319.214844 562.03125 318.617188 562.148438 318.023438 C 562.265625 317.433594 562.441406 316.859375 562.671875 316.300781 C 562.902344 315.742188 563.183594 315.214844 563.519531 314.714844 C 563.855469 314.210938 564.234375 313.746094 564.664062 313.320312 C 565.089844 312.894531 565.554688 312.511719 566.054688 312.179688 C 566.554688 311.84375 567.085938 311.558594 567.644531 311.328125 C 568.199219 311.097656 568.773438 310.921875 569.367188 310.804688 C 569.957031 310.6875 570.554688 310.628906 571.160156 310.628906 C 571.761719 310.628906 572.359375 310.6875 572.953125 310.804688 C 573.542969 310.921875 574.117188 311.097656 574.675781 311.328125 C 575.234375 311.558594 575.761719 311.84375 576.265625 312.179688 C 576.765625 312.511719 577.230469 312.894531 577.65625 313.320312 C 578.082031 313.746094 578.464844 314.210938 578.800781 314.714844 C 579.132812 315.214844 579.417969 315.742188 579.648438 316.300781 C 579.878906 316.859375 580.054688 317.433594 580.171875 318.023438 C 580.289062 318.617188 580.347656 319.214844 580.347656 319.816406 Z M 580.347656 319.816406 " fill-opacity="1" fill-rule="nonzero"/><path fill="#e53935" d="M 607.121094 353.078125 C 607.121094 353.683594 607.0625 354.28125 606.945312 354.871094 C 606.828125 355.464844 606.652344 356.039062 606.421875 356.597656 C 606.191406 357.152344 605.90625 357.683594 605.570312 358.183594 C 605.238281 358.6875 604.855469 359.152344 604.429688 359.578125 C 604.003906 360.003906 603.539062 360.382812 603.039062 360.71875 C 602.535156 361.054688 602.007812 361.339844 601.449219 361.570312 C 600.890625 361.800781 600.316406 361.972656 599.726562 362.089844 C 599.132812 362.210938 598.535156 362.269531 597.933594 362.269531 C 597.328125 362.269531 596.730469 362.210938 596.140625 362.089844 C 595.546875 361.972656 594.972656 361.800781 594.417969 361.570312 C 593.859375 361.339844 593.328125 361.054688 592.828125 360.71875 C 592.328125 360.382812 591.863281 360.003906 591.4375 359.578125 C 591.007812 359.152344 590.628906 358.6875 590.292969 358.183594 C 589.957031 357.683594 589.675781 357.152344 589.445312 356.597656 C 589.214844 356.039062 589.039062 355.464844 588.921875 354.871094 C 588.804688 354.28125 588.746094 353.683594 588.746094 353.078125 C 588.746094 352.476562 588.804688 351.878906 588.921875 351.289062 C 589.039062 350.695312 589.214844 350.121094 589.445312 349.5625 C 589.675781 349.007812 589.957031 348.476562 590.292969 347.976562 C 590.628906 347.472656 591.007812 347.007812 591.4375 346.582031 C 591.863281 346.15625 592.328125 345.773438 592.828125 345.441406 C 593.328125 345.105469 593.859375 344.820312 594.417969 344.589844 C 594.972656 344.359375 595.546875 344.1875 596.140625 344.066406 C 596.730469 343.949219 597.328125 343.890625 597.933594 343.890625 C 598.535156 343.890625 599.132812 343.949219 599.726562 344.066406 C 600.316406 344.1875 600.890625 344.359375 601.449219 344.589844 C 602.007812 344.820312 602.535156 345.105469 603.039062 345.441406 C 603.539062 345.773438 604.003906 346.15625 604.429688 346.582031 C 604.855469 347.007812 605.238281 347.472656 605.570312 347.976562 C 605.90625 348.476562 606.191406 349.007812 606.421875 349.5625 C 606.652344 350.121094 606.828125 350.695312 606.945312 351.289062 C 607.0625 351.878906 607.121094 352.476562 607.121094 353.078125 Z M 607.121094 353.078125 " fill-opacity="1" fill-rule="nonzero"/><path fill="#ef5350" d="M 651.011719 315.003906 C 651.011719 315.605469 650.953125 316.203125 650.835938 316.796875 C 650.714844 317.386719 650.542969 317.960938 650.3125 318.519531 C 650.082031 319.078125 649.796875 319.605469 649.460938 320.109375 C 649.128906 320.609375 648.746094 321.074219 648.320312 321.5 C 647.894531 321.925781 647.429688 322.308594 646.925781 322.644531 C 646.425781 322.976562 645.894531 323.261719 645.339844 323.492188 C 644.78125 323.722656 644.207031 323.898438 643.617188 324.015625 C 643.023438 324.132812 642.425781 324.191406 641.824219 324.191406 C 641.21875 324.191406 640.621094 324.132812 640.03125 324.015625 C 639.4375 323.898438 638.863281 323.722656 638.308594 323.492188 C 637.75 323.261719 637.21875 322.976562 636.71875 322.644531 C 636.21875 322.308594 635.753906 321.925781 635.328125 321.5 C 634.898438 321.074219 634.519531 320.609375 634.183594 320.109375 C 633.847656 319.605469 633.566406 319.078125 633.335938 318.519531 C 633.105469 317.960938 632.929688 317.386719 632.8125 316.796875 C 632.695312 316.203125 632.636719 315.605469 632.636719 315.003906 C 632.636719 314.398438 632.695312 313.800781 632.8125 313.210938 C 632.929688 312.617188 633.105469 312.042969 633.335938 311.488281 C 633.566406 310.929688 633.847656 310.398438 634.183594 309.898438 C 634.519531 309.398438 634.898438 308.933594 635.328125 308.503906 C 635.753906 308.078125 636.21875 307.699219 636.71875 307.363281 C 637.21875 307.027344 637.75 306.746094 638.308594 306.515625 C 638.863281 306.28125 639.4375 306.109375 640.03125 305.992188 C 640.621094 305.875 641.21875 305.816406 641.824219 305.816406 C 642.425781 305.816406 643.023438 305.875 643.617188 305.992188 C 644.207031 306.109375 644.78125 306.28125 645.339844 306.515625 C 645.894531 306.746094 646.425781 307.027344 646.925781 307.363281 C 647.429688 307.699219 647.894531 308.078125 648.320312 308.503906 C 648.746094 308.933594 649.128906 309.398438 649.460938 309.898438 C 649.796875 310.398438 650.082031 310.929688 650.3125 311.488281 C 650.542969 312.042969 650.714844 312.617188 650.835938 313.210938 C 650.953125 313.800781 651.011719 314.398438 651.011719 315.003906 Z M 651.011719 315.003906 " fill-opacity="1" fill-rule="nonzero"/><path fill="#ef5350" d="M 826.949219 478.289062 C 826.949219 478.894531 826.890625 479.492188 826.773438 480.082031 C 826.652344 480.675781 826.480469 481.25 826.25 481.808594 C 826.019531 482.363281 825.734375 482.894531 825.398438 483.394531 C 825.066406 483.898438 824.683594 484.359375 824.257812 484.789062 C 823.832031 485.214844 823.367188 485.59375 822.863281 485.929688 C 822.363281 486.265625 821.832031 486.546875 821.277344 486.78125 C 820.71875 487.011719 820.144531 487.183594 819.554688 487.300781 C 818.960938 487.421875 818.363281 487.480469 817.761719 487.480469 C 817.15625 487.480469 816.558594 487.421875 815.96875 487.300781 C 815.375 487.183594 814.800781 487.011719 814.246094 486.78125 C 813.6875 486.546875 813.15625 486.265625 812.65625 485.929688 C 812.15625 485.59375 811.691406 485.214844 811.265625 484.789062 C 810.835938 484.359375 810.457031 483.898438 810.121094 483.394531 C 809.785156 482.894531 809.503906 482.363281 809.273438 481.808594 C 809.042969 481.25 808.867188 480.675781 808.75 480.082031 C 808.632812 479.492188 808.574219 478.894531 808.574219 478.289062 C 808.574219 477.6875 808.632812 477.089844 808.75 476.496094 C 808.867188 475.90625 809.042969 475.332031 809.273438 474.773438 C 809.503906 474.21875 809.785156 473.6875 810.121094 473.1875 C 810.457031 472.683594 810.835938 472.21875 811.265625 471.792969 C 811.691406 471.367188 812.15625 470.984375 812.65625 470.652344 C 813.15625 470.316406 813.6875 470.03125 814.246094 469.800781 C 814.800781 469.570312 815.375 469.394531 815.96875 469.277344 C 816.558594 469.160156 817.15625 469.101562 817.761719 469.101562 C 818.363281 469.101562 818.960938 469.160156 819.554688 469.277344 C 820.144531 469.394531 820.71875 469.570312 821.277344 469.800781 C 821.832031 470.03125 822.363281 470.316406 822.863281 470.652344 C 823.367188 470.984375 823.832031 471.367188 824.257812 471.792969 C 824.683594 472.21875 825.066406 472.683594 825.398438 473.1875 C 825.734375 473.6875 826.019531 474.21875 826.25 474.773438 C 826.480469 475.332031 826.652344 475.90625 826.773438 476.496094 C 826.890625 477.089844 826.949219 477.6875 826.949219 478.289062 Z M 826.949219 478.289062 " fill-opacity="1" fill-rule="nonzero"/><path fill="#ef5350" d="M 790.988281 445.039062 C 790.988281 445.640625 790.929688 446.238281 790.8125 446.832031 C 790.691406 447.421875 790.519531 447.996094 790.289062 448.554688 C 790.058594 449.109375 789.773438 449.640625 789.4375 450.140625 C 789.105469 450.644531 788.722656 451.109375 788.296875 451.535156 C 787.871094 451.960938 787.40625 452.34375 786.902344 452.675781 C 786.402344 453.011719 785.871094 453.296875 785.316406 453.527344 C 784.757812 453.757812 784.183594 453.933594 783.59375 454.050781 C 783 454.167969 782.402344 454.226562 781.800781 454.226562 C 781.195312 454.226562 780.597656 454.167969 780.007812 454.050781 C 779.414062 453.933594 778.839844 453.757812 778.285156 453.527344 C 777.726562 453.296875 777.195312 453.011719 776.695312 452.675781 C 776.191406 452.34375 775.730469 451.960938 775.300781 451.535156 C 774.875 451.109375 774.496094 450.644531 774.160156 450.140625 C 773.824219 449.640625 773.542969 449.109375 773.3125 448.554688 C 773.078125 447.996094 772.90625 447.421875 772.789062 446.832031 C 772.671875 446.238281 772.613281 445.640625 772.613281 445.039062 C 772.613281 444.433594 772.671875 443.835938 772.789062 443.246094 C 772.90625 442.652344 773.078125 442.078125 773.3125 441.519531 C 773.542969 440.964844 773.824219 440.433594 774.160156 439.933594 C 774.496094 439.429688 774.875 438.96875 775.300781 438.539062 C 775.730469 438.113281 776.191406 437.734375 776.695312 437.398438 C 777.195312 437.0625 777.726562 436.78125 778.285156 436.546875 C 778.839844 436.316406 779.414062 436.144531 780.007812 436.027344 C 780.597656 435.90625 781.195312 435.847656 781.800781 435.847656 C 782.402344 435.847656 783 435.90625 783.59375 436.027344 C 784.183594 436.144531 784.757812 436.316406 785.316406 436.546875 C 785.871094 436.78125 786.402344 437.0625 786.902344 437.398438 C 787.40625 437.734375 787.871094 438.113281 788.296875 438.539062 C 788.722656 438.96875 789.105469 439.429688 789.4375 439.933594 C 789.773438 440.433594 790.058594 440.964844 790.289062 441.519531 C 790.519531 442.078125 790.691406 442.652344 790.8125 443.246094 C 790.929688 443.835938 790.988281 444.433594 790.988281 445.039062 Z M 790.988281 445.039062 " fill-opacity="1" fill-rule="nonzero"/><path fill="#e53935" d="M 756.277344 492.304688 C 756.277344 492.90625 756.214844 493.503906 756.097656 494.09375 C 755.980469 494.6875 755.808594 495.261719 755.578125 495.820312 C 755.34375 496.375 755.0625 496.90625 754.726562 497.40625 C 754.390625 497.910156 754.011719 498.375 753.585938 498.800781 C 753.15625 499.226562 752.695312 499.609375 752.191406 499.941406 C 751.691406 500.277344 751.160156 500.5625 750.605469 500.792969 C 750.046875 501.023438 749.472656 501.195312 748.878906 501.316406 C 748.289062 501.433594 747.691406 501.492188 747.085938 501.492188 C 746.484375 501.492188 745.886719 501.433594 745.296875 501.316406 C 744.703125 501.195312 744.128906 501.023438 743.570312 500.792969 C 743.015625 500.5625 742.484375 500.277344 741.984375 499.941406 C 741.480469 499.609375 741.019531 499.226562 740.589844 498.800781 C 740.164062 498.375 739.785156 497.910156 739.449219 497.40625 C 739.113281 496.90625 738.832031 496.375 738.597656 495.820312 C 738.367188 495.261719 738.195312 494.6875 738.078125 494.09375 C 737.957031 493.503906 737.898438 492.90625 737.898438 492.304688 C 737.898438 491.699219 737.957031 491.101562 738.078125 490.511719 C 738.195312 489.917969 738.367188 489.34375 738.597656 488.785156 C 738.832031 488.230469 739.113281 487.699219 739.449219 487.199219 C 739.785156 486.695312 740.164062 486.230469 740.589844 485.804688 C 741.019531 485.378906 741.480469 485 741.984375 484.664062 C 742.484375 484.328125 743.015625 484.042969 743.570312 483.8125 C 744.128906 483.582031 744.703125 483.410156 745.296875 483.292969 C 745.886719 483.171875 746.484375 483.113281 747.085938 483.113281 C 747.691406 483.113281 748.289062 483.171875 748.878906 483.292969 C 749.472656 483.410156 750.046875 483.582031 750.605469 483.8125 C 751.160156 484.042969 751.691406 484.328125 752.191406 484.664062 C 752.695312 485 753.15625 485.378906 753.585938 485.804688 C 754.011719 486.230469 754.390625 486.695312 754.726562 487.199219 C 755.0625 487.699219 755.34375 488.230469 755.578125 488.785156 C 755.808594 489.34375 755.980469 489.917969 756.097656 490.511719 C 756.214844 491.101562 756.277344 491.699219 756.277344 492.304688 Z M 756.277344 492.304688 " fill-opacity="1" fill-rule="nonzero"/><path fill="#e53935" d="M 831.753906 155.042969 C 831.753906 155.644531 831.695312 156.242188 831.578125 156.835938 C 831.460938 157.425781 831.285156 158 831.054688 158.558594 C 830.824219 159.117188 830.539062 159.644531 830.207031 160.144531 C 829.871094 160.648438 829.488281 161.113281 829.0625 161.539062 C 828.636719 161.964844 828.171875 162.347656 827.671875 162.679688 C 827.167969 163.015625 826.640625 163.300781 826.082031 163.53125 C 825.523438 163.761719 824.949219 163.9375 824.359375 164.054688 C 823.765625 164.171875 823.167969 164.230469 822.566406 164.230469 C 821.960938 164.230469 821.363281 164.171875 820.773438 164.054688 C 820.179688 163.9375 819.605469 163.761719 819.050781 163.53125 C 818.492188 163.300781 817.960938 163.015625 817.460938 162.679688 C 816.960938 162.347656 816.496094 161.964844 816.070312 161.539062 C 815.640625 161.113281 815.261719 160.648438 814.925781 160.144531 C 814.589844 159.644531 814.308594 159.117188 814.078125 158.558594 C 813.847656 158 813.671875 157.425781 813.554688 156.835938 C 813.4375 156.242188 813.378906 155.644531 813.378906 155.042969 C 813.378906 154.4375 813.4375 153.839844 813.554688 153.25 C 813.671875 152.65625 813.847656 152.082031 814.078125 151.527344 C 814.308594 150.96875 814.589844 150.4375 814.925781 149.9375 C 815.261719 149.433594 815.640625 148.972656 816.070312 148.542969 C 816.496094 148.117188 816.960938 147.738281 817.460938 147.402344 C 817.960938 147.066406 818.492188 146.785156 819.050781 146.550781 C 819.605469 146.320312 820.179688 146.148438 820.773438 146.03125 C 821.363281 145.910156 821.960938 145.851562 822.566406 145.851562 C 823.167969 145.851562 823.765625 145.910156 824.359375 146.03125 C 824.949219 146.148438 825.523438 146.320312 826.082031 146.550781 C 826.640625 146.785156 827.167969 147.066406 827.671875 147.402344 C 828.171875 147.738281 828.636719 148.117188 829.0625 148.542969 C 829.488281 148.972656 829.871094 149.433594 830.207031 149.9375 C 830.539062 150.4375 830.824219 150.96875 831.054688 151.527344 C 831.285156 152.082031 831.460938 152.65625 831.578125 153.25 C 831.695312 153.839844 831.753906 154.4375 831.753906 155.042969 Z M 831.753906 155.042969 " fill-opacity="1" fill-rule="nonzero"/><path fill="#e53935" d="M 647.996094 605.273438 C 647.996094 605.878906 647.9375 606.476562 647.820312 607.066406 C 647.703125 607.660156 647.527344 608.234375 647.296875 608.789062 C 647.066406 609.347656 646.785156 609.878906 646.449219 610.378906 C 646.113281 610.882812 645.734375 611.34375 645.304688 611.773438 C 644.878906 612.199219 644.414062 612.578125 643.914062 612.914062 C 643.414062 613.25 642.882812 613.53125 642.324219 613.761719 C 641.769531 613.996094 641.195312 614.167969 640.601562 614.285156 C 640.011719 614.402344 639.414062 614.464844 638.808594 614.464844 C 638.207031 614.464844 637.609375 614.402344 637.015625 614.285156 C 636.425781 614.167969 635.851562 613.996094 635.292969 613.761719 C 634.734375 613.53125 634.207031 613.25 633.703125 612.914062 C 633.203125 612.578125 632.738281 612.199219 632.3125 611.773438 C 631.886719 611.34375 631.503906 610.882812 631.171875 610.378906 C 630.835938 609.878906 630.550781 609.347656 630.320312 608.789062 C 630.089844 608.234375 629.914062 607.660156 629.796875 607.066406 C 629.679688 606.476562 629.621094 605.878906 629.621094 605.273438 C 629.621094 604.671875 629.679688 604.074219 629.796875 603.480469 C 629.914062 602.890625 630.089844 602.316406 630.320312 601.757812 C 630.550781 601.199219 630.835938 600.671875 631.171875 600.167969 C 631.503906 599.667969 631.886719 599.203125 632.3125 598.777344 C 632.738281 598.351562 633.203125 597.96875 633.703125 597.632812 C 634.207031 597.300781 634.734375 597.015625 635.292969 596.785156 C 635.851562 596.554688 636.425781 596.378906 637.015625 596.261719 C 637.609375 596.144531 638.207031 596.085938 638.808594 596.085938 C 639.414062 596.085938 640.011719 596.144531 640.601562 596.261719 C 641.195312 596.378906 641.769531 596.554688 642.324219 596.785156 C 642.882812 597.015625 643.414062 597.300781 643.914062 597.632812 C 644.414062 597.96875 644.878906 598.351562 645.304688 598.777344 C 645.734375 599.203125 646.113281 599.667969 646.449219 600.167969 C 646.785156 600.671875 647.066406 601.199219 647.296875 601.757812 C 647.527344 602.316406 647.703125 602.890625 647.820312 603.480469 C 647.9375 604.074219 647.996094 604.671875 647.996094 605.273438 Z M 647.996094 605.273438 " fill-opacity="1" fill-rule="nonzero"/><path fill="#e53935" d="M 602.058594 651.214844 C 602.058594 651.820312 602 652.417969 601.882812 653.007812 C 601.765625 653.601562 601.589844 654.175781 601.359375 654.734375 C 601.128906 655.289062 600.84375 655.820312 600.507812 656.320312 C 600.175781 656.824219 599.792969 657.289062 599.367188 657.714844 C 598.941406 658.140625 598.476562 658.519531 597.976562 658.855469 C 597.472656 659.191406 596.945312 659.476562 596.386719 659.707031 C 595.828125 659.9375 595.253906 660.109375 594.664062 660.230469 C 594.070312 660.347656 593.472656 660.40625 592.871094 660.40625 C 592.265625 660.40625 591.667969 660.347656 591.078125 660.230469 C 590.484375 660.109375 589.910156 659.9375 589.355469 659.707031 C 588.796875 659.476562 588.265625 659.191406 587.765625 658.855469 C 587.265625 658.519531 586.800781 658.140625 586.375 657.714844 C 585.945312 657.289062 585.566406 656.824219 585.230469 656.320312 C 584.894531 655.820312 584.613281 655.289062 584.382812 654.734375 C 584.152344 654.175781 583.976562 653.601562 583.859375 653.007812 C 583.742188 652.417969 583.683594 651.820312 583.683594 651.214844 C 583.683594 650.613281 583.742188 650.015625 583.859375 649.425781 C 583.976562 648.832031 584.152344 648.257812 584.382812 647.699219 C 584.613281 647.144531 584.894531 646.613281 585.230469 646.113281 C 585.566406 645.609375 585.945312 645.144531 586.375 644.71875 C 586.800781 644.292969 587.265625 643.910156 587.765625 643.578125 C 588.265625 643.242188 588.796875 642.957031 589.355469 642.726562 C 589.910156 642.496094 590.484375 642.324219 591.078125 642.203125 C 591.667969 642.085938 592.265625 642.027344 592.871094 642.027344 C 593.472656 642.027344 594.070312 642.085938 594.664062 642.203125 C 595.253906 642.324219 595.828125 642.496094 596.386719 642.726562 C 596.945312 642.957031 597.472656 643.242188 597.976562 643.578125 C 598.476562 643.910156 598.941406 644.292969 599.367188 644.71875 C 599.792969 645.144531 600.175781 645.609375 600.507812 646.113281 C 600.84375 646.613281 601.128906 647.144531 601.359375 647.699219 C 601.589844 648.257812 601.765625 648.832031 601.882812 649.425781 C 602 650.015625 602.058594 650.613281 602.058594 651.214844 Z M 602.058594 651.214844 " fill-opacity="1" fill-rule="nonzero"/><path fill="#e53935" d="M 491.804688 467.449219 C 491.804688 468.050781 491.746094 468.648438 491.628906 469.242188 C 491.511719 469.832031 491.335938 470.40625 491.105469 470.964844 C 490.875 471.523438 490.589844 472.050781 490.257812 472.554688 C 489.921875 473.054688 489.539062 473.519531 489.113281 473.945312 C 488.6875 474.371094 488.222656 474.753906 487.722656 475.089844 C 487.21875 475.421875 486.691406 475.707031 486.132812 475.9375 C 485.574219 476.167969 485 476.34375 484.410156 476.460938 C 483.816406 476.578125 483.21875 476.636719 482.617188 476.636719 C 482.011719 476.636719 481.414062 476.578125 480.824219 476.460938 C 480.230469 476.34375 479.65625 476.167969 479.101562 475.9375 C 478.542969 475.707031 478.011719 475.421875 477.511719 475.089844 C 477.011719 474.753906 476.546875 474.371094 476.121094 473.945312 C 475.691406 473.519531 475.3125 473.054688 474.976562 472.554688 C 474.640625 472.050781 474.359375 471.523438 474.128906 470.964844 C 473.898438 470.40625 473.722656 469.832031 473.605469 469.242188 C 473.488281 468.648438 473.429688 468.050781 473.429688 467.449219 C 473.429688 466.84375 473.488281 466.246094 473.605469 465.65625 C 473.722656 465.0625 473.898438 464.488281 474.128906 463.933594 C 474.359375 463.375 474.640625 462.84375 474.976562 462.34375 C 475.3125 461.839844 475.691406 461.378906 476.121094 460.949219 C 476.546875 460.523438 477.011719 460.144531 477.511719 459.808594 C 478.011719 459.472656 478.542969 459.191406 479.101562 458.960938 C 479.65625 458.726562 480.230469 458.554688 480.824219 458.4375 C 481.414062 458.320312 482.011719 458.261719 482.617188 458.261719 C 483.21875 458.261719 483.816406 458.320312 484.410156 458.4375 C 485 458.554688 485.574219 458.726562 486.132812 458.960938 C 486.691406 459.191406 487.21875 459.472656 487.722656 459.808594 C 488.222656 460.144531 488.6875 460.523438 489.113281 460.949219 C 489.539062 461.378906 489.921875 461.839844 490.257812 462.34375 C 490.589844 462.84375 490.875 463.375 491.105469 463.933594 C 491.335938 464.488281 491.511719 465.0625 491.628906 465.65625 C 491.746094 466.246094 491.804688 466.84375 491.804688 467.449219 Z M 491.804688 467.449219 " fill-opacity="1" fill-rule="nonzero"/><path fill="#e53935" d="M 455.054688 513.390625 C 455.054688 513.992188 454.996094 514.589844 454.875 515.183594 C 454.757812 515.773438 454.585938 516.347656 454.355469 516.90625 C 454.121094 517.464844 453.839844 517.992188 453.503906 518.496094 C 453.167969 518.996094 452.789062 519.460938 452.363281 519.886719 C 451.933594 520.3125 451.472656 520.695312 450.96875 521.03125 C 450.46875 521.367188 449.9375 521.648438 449.382812 521.878906 C 448.824219 522.109375 448.25 522.285156 447.65625 522.402344 C 447.066406 522.519531 446.46875 522.578125 445.867188 522.578125 C 445.261719 522.578125 444.664062 522.519531 444.074219 522.402344 C 443.480469 522.285156 442.90625 522.109375 442.347656 521.878906 C 441.792969 521.648438 441.261719 521.367188 440.761719 521.03125 C 440.257812 520.695312 439.796875 520.3125 439.367188 519.886719 C 438.941406 519.460938 438.5625 518.996094 438.226562 518.496094 C 437.890625 517.992188 437.609375 517.464844 437.375 516.90625 C 437.144531 516.347656 436.972656 515.773438 436.855469 515.183594 C 436.734375 514.589844 436.675781 513.992188 436.675781 513.390625 C 436.675781 512.785156 436.734375 512.191406 436.855469 511.597656 C 436.972656 511.007812 437.144531 510.429688 437.375 509.875 C 437.609375 509.316406 437.890625 508.789062 438.226562 508.285156 C 438.5625 507.785156 438.941406 507.320312 439.367188 506.894531 C 439.796875 506.464844 440.257812 506.085938 440.761719 505.75 C 441.261719 505.414062 441.792969 505.132812 442.347656 504.902344 C 442.90625 504.671875 443.480469 504.496094 444.074219 504.378906 C 444.664062 504.261719 445.261719 504.203125 445.867188 504.203125 C 446.46875 504.203125 447.066406 504.261719 447.65625 504.378906 C 448.25 504.496094 448.824219 504.671875 449.382812 504.902344 C 449.9375 505.132812 450.46875 505.414062 450.96875 505.75 C 451.472656 506.085938 451.933594 506.464844 452.363281 506.894531 C 452.789062 507.320312 453.167969 507.785156 453.503906 508.285156 C 453.839844 508.789062 454.121094 509.316406 454.355469 509.875 C 454.585938 510.429688 454.757812 511.007812 454.875 511.597656 C 454.996094 512.191406 455.054688 512.785156 455.054688 513.390625 Z M 455.054688 513.390625 " fill-opacity="1" fill-rule="nonzero"/></svg>